LuxiSerif-Bold.sfdir
StartChar: quotedbl
Encoding: 34 34 255
Width: 555
Flags: W
LayerCount: 2
Fore
SplineSet
145 482 m 1
 97 771 l 1
 242 771 l 1
 193 482 l 1
 145 482 l 1
362 482 m 1
 314 771 l 1
 458 771 l 1
 410 482 l 1
 362 482 l 1
EndSplineSet
EndChar
StartChar: numbersign
Encoding: 35 35 257
Width: 500
Flags: MW
HStem: 0 20 211 60<23 93 11 108 23 155 170 272 349 430> 451 61<71 152 57 167 71 215 229 331 408 477> 703 20<221 283 283 283 400 462 462 462>
LayerCount: 2
Fore
SplineSet
38 0 m 1
 93 211 l 1
 11 211 l 1
 23 271 l 1
 108 271 l 1
 152 451 l 1
 57 451 l 1
 71 512 l 1
 167 512 l 1
 221 723 l 1
 283 723 l 1
 229 512 l 1
 346 512 l 1
 400 723 l 1
 462 723 l 1
 408 512 l 1
 489 512 l 1
 477 451 l 1
 393 451 l 1
 349 271 l 1
 442 271 l 1
 430 211 l 1
 334 211 l 1
 281 0 l 1
 218 0 l 1
 272 211 l 1
 155 211 l 1
 101 0 l 1
 38 0 l 1
170 271 m 1
 287 271 l 1
 331 451 l 1
 215 451 l 1
 170 271 l 1
EndSplineSet
EndChar
StartChar: dollar
Encoding: 36 36 214
Width: 500
Flags: W
HStem: 0 20
VStem: 54 122<546 588.5> 227 45<-78 0 -78 0 53 289> 240 48<457 676 676 676> 344 123<140.5 186>
LayerCount: 2
Fore
SplineSet
35 36 m 1xa8
 35 175 l 1
 101 175 l 1
 102 166 l 1
 103 136 l 2
 105 85 146 56 227 50 c 1
 227 316 l 1xa8
 185 347 l 2
 72 430 54 456 54 532 c 0
 54 645 128 720 243 723 c 1
 243 801 l 1
 288 801 l 1
 288 723 l 1
 343 720 395 709 444 690 c 1
 444 554 l 1
 378 554 l 1
 377 563 l 1
 376 597 l 2
 372 647 343 674 288 679 c 1
 288 428 l 1xd0
 343 391 l 2
 427 334 467 272 467 196 c 0
 467 85 399 16 272 0 c 1
 272 -78 l 1
 227 -78 l 1
 227 0 l 1
 154 4 92 16 35 36 c 1xa8
272 289 m 1
 272 53 l 1
 321 62 344 95 344 158 c 0
 344 214 322 254 272 289 c 1
240 457 m 1xd0
 240 676 l 1
 197 665 176 630 176 570 c 0
 176 522 195 487 240 457 c 1xd0
EndSplineSet
EndChar
StartChar: percent
Encoding: 37 37 278
Width: 1000
Flags: W
HStem: -18 20 0 46<716 758.5 716 793.5> 316 46<716.5 759> 360 46<240.5 283 240.5 317.5> 677 46<241 283.5> 721 20<762 858 858 858>
VStem: 89 109<497 587 497 601> 326 109<497 586> 565 109<135.5 225.5 135.5 240> 802 109<137 226>
LayerCount: 2
Fore
SplineSet
142 -18 m 1x87c0
 762 741 l 1
 858 741 l 1
 233 -18 l 1
 142 -18 l 1x87c0
262 723 m 0x1bc0
 377 723 435 662 435 542 c 0
 435 421 376 360 259 360 c 0
 146 360 89 421 89 540 c 0
 89 662 147 723 262 723 c 0x1bc0
262 677 m 0
 220 677 198 631 198 543 c 0
 198 451 219 406 262 406 c 0
 304 406 326 453 326 541 c 0
 326 631 305 677 262 677 c 0
738 362 m 0x63c0
 853 362 911 301 911 181 c 0
 911 61 852 0 735 0 c 0
 622 0 565 61 565 179 c 0
 565 301 623 362 738 362 c 0x63c0
738 316 m 0
 695 316 674 271 674 180 c 0
 674 91 695 46 737 46 c 0
 780 46 802 93 802 181 c 0
 802 271 780 316 738 316 c 0
EndSplineSet
EndChar
StartChar: ampersand
Encoding: 38 38 249
Width: 833
Flags: W
HStem: -18 66<320.5 366> 0 20 696 45<364 418.5>
VStem: 42 137<186.5 269.5> 171 137<595.5 635> 474 120<577.5 636.5>
LayerCount: 2
Fore
SplineSet
571 0 m 1x6c
 534 41 l 1
 472 0 408 -18 324 -18 c 0
 154 -18 42 76 42 217 c 0x90
 42 322 100 386 236 434 c 1
 189 501 171 544 171 586 c 0
 171 684 249 741 383 741 c 0
 518 741 594 688 594 592 c 0
 594 509 539 457 410 418 c 1
 463 343 519 268 565 209 c 2
 601 164 l 1
 626 207 637 247 637 298 c 0
 637 343 629 354 596 357 c 2
 576 358 l 1
 567 359 l 1
 567 404 l 1
 802 404 l 1
 802 359 l 1
 793 358 l 1
 771 357 l 2
 740 356 734 348 729 302 c 0
 723 247 691 189 633 130 c 1
 661 95 l 2
 696 54 702 51 771 46 c 2
 781 45 l 1
 781 0 l 1
 571 0 l 1x6c
293 347 m 2xb0
 262 394 l 1
 204 365 179 322 179 249 c 0
 179 124 257 48 384 48 c 0
 424 48 457 56 495 75 c 1
 424 163 354 258 293 347 c 2xb0
385 453 m 1xac
 448 502 474 548 474 607 c 0
 474 666 446 696 391 696 c 0
 337 696 308 668 308 615 c 0
 308 576 330 527 377 463 c 0
 379 461 382 457 385 453 c 1xac
EndSplineSet
EndChar
StartChar: quotesingle
Encoding: 39 39 254
Width: 278
Flags: W
LayerCount: 2
Fore
SplineSet
115 470 m 1
 61 771 l 1
 218 771 l 1
 164 470 l 1
 115 470 l 1
EndSplineSet
EndChar
StartChar: parenleft
Encoding: 40 40 245
Width: 333
Flags: MW
VStem: 33 145<214.5 369.5>
LayerCount: 2
Fore
SplineSet
294 -105 m 1
 294 -150 l 1
 130 -58 33 115 33 314 c 0
 33 425 66 531 129 625 c 0
 174 692 222 736 294 777 c 1
 294 732 l 1
 210 653 178 536 178 313 c 0
 178 91 210 -26 294 -105 c 1
EndSplineSet
EndChar
StartChar: parenright
Encoding: 41 41 246
Width: 333
Flags: MW
VStem: 155 145<257.5 412 257.5 424>
LayerCount: 2
Fore
SplineSet
39 732 m 1
 39 777 l 1
 202 685 300 511 300 313 c 0
 300 202 267 96 204 2 c 0
 159 -65 111 -109 39 -150 c 1
 39 -105 l 1
 123 -26 155 92 155 313 c 0
 155 535 122 652 39 732 c 1
EndSplineSet
EndChar
StartChar: asterisk
Encoding: 42 42 253
Width: 500
Flags: MW
HStem: 703 20<197 304 304 304>
LayerCount: 2
Fore
SplineSet
242 488 m 1
 184 355 l 1
 98 418 l 1
 206 514 l 1
 216 499 227 491 242 488 c 1
202 529 m 1
 58 543 l 1
 92 647 l 1
 215 572 l 1
 206 561 201 550 201 539 c 2
 201 536 l 1
 201 534 l 1
 201 533 l 2
 201 532 201 531 202 529 c 1
227 581 m 1
 197 723 l 1
 304 723 l 1
 272 581 l 1
 265 584 257 586 251 586 c 0
 245 586 235 584 227 581 c 1
284 571 m 1
 409 646 l 1
 442 542 l 1
 298 529 l 1
 298 538 l 2
 298 548 293 559 284 571 c 1
293 514 m 1
 401 418 l 1
 314 355 l 1
 257 488 l 1
 271 491 283 500 293 514 c 1
EndSplineSet
EndChar
StartChar: plus
Encoding: 43 43 259
Width: 570
Flags: MW
HStem: 253 72<44 249 44 249 321 526>
VStem: 249 72<48 253 48 253 325 530>
LayerCount: 2
Fore
SplineSet
249 48 m 1
 249 253 l 1
 44 253 l 1
 44 325 l 1
 249 325 l 1
 249 530 l 1
 321 530 l 1
 321 325 l 1
 526 325 l 1
 526 253 l 1
 321 253 l 1
 321 48 l 1
 249 48 l 1
EndSplineSet
EndChar
StartChar: comma
Encoding: 44 44 226
Width: 250
Flags: MW
HStem: 0 20
VStem: 47 157<-144 36 -99 36 6 36 36 157 6 157>
LayerCount: 2
Fore
SplineSet
47 -144 m 1
 47 -99 l 1
 86 -100 108 -72 108 -21 c 2
 108 -17 l 1
 107 0 l 1
 47 0 l 1
 47 157 l 1
 204 157 l 1
 204 36 l 2
 204 -24 189 -69 158 -100 c 0
 131 -127 104 -137 47 -144 c 1
EndSplineSet
EndChar
StartChar: hyphen
Encoding: 45 45 241
Width: 333
Flags: MW
HStem: 253 72<24 309 24 309>
LayerCount: 2
Fore
SplineSet
24 253 m 1
 24 325 l 1
 309 325 l 1
 309 253 l 1
 24 253 l 1
EndSplineSet
EndChar
StartChar: period
Encoding: 46 46 222
Width: 250
Flags: MW
HStem: 0 157<47 204 47 204>
VStem: 47 157<0 157 0 157>
LayerCount: 2
Fore
SplineSet
47 0 m 1
 47 157 l 1
 204 157 l 1
 204 0 l 1
 47 0 l 1
EndSplineSet
EndChar
StartChar: slash
Encoding: 47 47 240
Width: 278
Flags: MW
HStem: 703 20<231 307 307 307>
LayerCount: 2
Fore
SplineSet
-29 -145 m 1
 231 723 l 1
 307 723 l 1
 47 -145 l 1
 -29 -145 l 1
EndSplineSet
EndChar
StartChar: zero
Encoding: 48 48 212
Width: 500
Flags: MW
HStem: -18 20 721 20<178.5 321.5>
LayerCount: 2
Fore
SplineSet
250 696 m 0
 194 696 178 622 178 361 c 0
 178 100 194 27 251 27 c 0
 306 27 322 103 322 372 c 0
 322 620 305 696 250 696 c 0
250 741 m 0
 393 741 476 603 476 363 c 0
 476 118 394 -18 247 -18 c 0
 107 -18 24 123 24 363 c 0
 24 602 107 741 250 741 c 0
EndSplineSet
EndChar
StartChar: one
Encoding: 49 49 203
Width: 500
Flags: MW
HStem: 0 20 709 20<329 329>
VStem: 184 145<142 545 545 545>
LayerCount: 2
Fore
SplineSet
58 0 m 1
 58 45 l 1
 67 46 l 1
 122 51 l 2
 164 55 168 56 173 68 c 0
 179 80 184 116 184 142 c 2
 184 545 l 1
 181 595 l 2
 179 621 174 630 161 630 c 0
 152 630 128 626 94 620 c 2
 58 613 l 1
 58 661 l 1
 329 729 l 1
 329 142 l 2
 329 60 333 54 393 50 c 2
 447 46 l 1
 455 45 l 1
 455 0 l 1
 58 0 l 1
EndSplineSet
EndChar
StartChar: two
Encoding: 50 50 204
Width: 500
Flags: MW
HStem: 0 121<159 465 159 465> 693 48<214 239>
VStem: 316 152<516.5 596>
LayerCount: 2
Fore
SplineSet
19 0 m 1
 19 48 l 1
 39 105 72 161 114 211 c 2
 161 267 l 1
 188 298 l 1
 253 377 l 2
 295 427 316 485 316 548 c 0
 316 644 277 693 201 693 c 0
 138 693 107 668 106 616 c 2
 105 576 l 1
 104 567 l 1
 38 567 l 1
 38 702 l 1
 116 729 180 741 248 741 c 0
 394 741 468 678 468 555 c 0
 468 470 443 435 315 337 c 0
 290 318 269 300 258 288 c 2
 222 251 l 2
 183 210 161 166 159 121 c 1
 465 121 l 1
 465 0 l 1
 19 0 l 1
EndSplineSet
EndChar
StartChar: three
Encoding: 51 51 205
Width: 500
Flags: W
HStem: -18 45<184 238.5 178 295> 697 45<193.5 230>
VStem: 303 145<525 606.5> 323 149<136 213 126 244>
LayerCount: 2
Fore
SplineSet
36 8 m 1xd0
 36 144 l 1
 102 144 l 1
 103 136 l 1
 103 128 l 2
 105 87 107 77 117 61 c 0
 132 39 159 27 197 27 c 0
 280 27 323 83 323 189 c 0xd0
 323 299 261 361 151 361 c 2
 102 361 l 1
 102 406 l 1
 144 406 l 2
 250 406 303 457 303 562 c 0
 303 651 266 697 194 697 c 0
 144 697 115 673 113 628 c 2
 111 584 l 1
 110 575 l 1
 41 575 l 1
 41 709 l 1
 111 732 165 742 222 742 c 0
 366 742 448 679 448 570 c 0xe0
 448 480 399 425 285 389 c 1
 365 370 405 348 437 306 c 0
 460 275 472 236 472 190 c 0
 472 62 373 -18 217 -18 c 0
 151 -18 93 -10 36 8 c 1xd0
EndSplineSet
EndChar
StartChar: four
Encoding: 52 52 206
Width: 500
Flags: MW
HStem: 0 20 196 103<12 288 85 288 85 288 409 482> 712 20<302 409 409 409>
VStem: 288 121<142 196 142 196 299 617 617 617>
LayerCount: 2
Fore
SplineSet
12 196 m 1
 12 278 l 1
 302 732 l 1
 409 732 l 1
 409 299 l 1
 482 299 l 1
 482 196 l 1
 409 196 l 1
 409 142 l 1
 411 93 l 2
 412 58 423 49 467 46 c 2
 476 45 l 1
 476 0 l 1
 210 0 l 1
 210 45 l 1
 219 46 l 2
 282 51 285 53 286 93 c 2
 288 142 l 1
 288 196 l 1
 12 196 l 1
85 299 m 1
 288 299 l 1
 288 617 l 1
 85 299 l 1
EndSplineSet
EndChar
StartChar: five
Encoding: 53 53 207
Width: 500
Flags: MW
HStem: -18 45<185 230 171.5 277.5> 612 111<129 441 129 129>
VStem: 302 153<139 258.5>
LayerCount: 2
Fore
SplineSet
57 5 m 1
 57 139 l 1
 123 139 l 1
 124 130 l 1
 126 100 l 2
 129 46 148 27 195 27 c 0
 265 27 302 84 302 193 c 0
 302 324 244 388 125 388 c 0
 111 388 92 387 70 384 c 1
 70 723 l 1
 441 723 l 1
 441 612 l 1
 129 612 l 1
 117 434 l 1
 155 434 l 2
 338 436 455 347 455 205 c 0
 455 73 352 -18 203 -18 c 0
 167 -18 120 -11 57 5 c 1
EndSplineSet
EndChar
StartChar: six
Encoding: 54 54 208
Width: 500
Flags: MW
HStem: -18 45<233 283.5 233 319> 405 61<279.5 280.5> 696 45<288.5 332.5>
VStem: 331 145<171 278.5>
LayerCount: 2
Fore
SplineSet
442 712 m 1
 442 582 l 1
 376 582 l 1
 375 591 l 2
 375 592 375 597 374 602 c 2
 373 627 l 2
 373 678 356 696 309 696 c 0
 268 696 236 670 211 615 c 0
 198 587 188 555 182 522 c 0
 176 485 171 431 173 417 c 0
 174 412 174 409 174 407 c 2
 174 383 l 1
 214 442 253 466 306 466 c 0
 408 466 476 379 476 248 c 0
 476 94 383 -18 255 -18 c 0
 114 -18 23 121 23 336 c 0
 23 586 132 741 308 741 c 0
 359 741 401 732 442 712 c 1
255 405 m 0
 204 405 178 348 178 235 c 0
 178 99 206 27 260 27 c 0
 307 27 331 89 331 215 c 0
 331 342 306 405 255 405 c 0
EndSplineSet
EndChar
StartChar: seven
Encoding: 55 55 209
Width: 500
Flags: MW
HStem: 0 20 603 120<40 392 40 477>
LayerCount: 2
Fore
SplineSet
229 0 m 1
 72 0 l 1
 100 150 137 223 335 518 c 2
 392 603 l 1
 40 603 l 1
 40 723 l 1
 477 723 l 1
 477 631 l 1
 325 439 243 231 229 0 c 1
EndSplineSet
EndChar
StartChar: eight
Encoding: 56 56 210
Width: 500
Flags: W
HStem: -18 45<229 288.5 229 312> 697 45<227 271>
VStem: 24 136<133.5 212.5> 63 121<577.5 621> 318 125<548.5 616.5> 349 127<120 160>
LayerCount: 2
Fore
SplineSet
174 379 m 1xe4
 153 397 l 2
 93 451 63 507 63 568 c 0
 63 674 140 742 260 742 c 0
 372 742 443 680 443 584 c 0xd8
 443 510 403 456 309 404 c 1
 459 274 476 251 476 177 c 0
 476 63 380 -18 244 -18 c 0
 111 -18 24 56 24 170 c 0
 24 255 69 318 174 379 c 1xe4
257 454 m 2
 274 435 l 1
 306 481 318 520 318 577 c 0
 318 656 294 697 248 697 c 0
 206 697 184 667 184 608 c 0
 184 547 198 518 257 454 c 2
209 353 m 1xe4
 204 344 l 2
 174 294 160 244 160 185 c 0
 160 82 196 27 262 27 c 0
 315 27 349 70 349 137 c 0
 349 183 329 227 290 267 c 2
 240 318 l 1
 209 353 l 1xe4
EndSplineSet
EndChar
StartChar: nine
Encoding: 57 57 211
Width: 500
Flags: MW
HStem: -18 45<166.5 230.5 166.5 279.5> 257 61<219.5 220.5> 696 45<216.5 267>
VStem: 24 145<444.5 551.5> 322 155<431.5 494 262 556>
LayerCount: 2
Fore
SplineSet
58 11 m 1
 58 142 l 1
 124 142 l 1
 124 132 l 2
 125 119 126 111 126 108 c 2
 126 96 l 2
 126 45 143 27 190 27 c 0
 271 27 326 143 326 316 c 2
 326 340 l 1
 286 281 247 257 194 257 c 0
 92 257 24 344 24 474 c 0
 24 629 117 741 245 741 c 0
 385 741 477 601 477 387 c 0
 477 137 367 -18 192 -18 c 0
 141 -18 98 -9 58 11 c 1
240 696 m 0
 193 696 169 634 169 508 c 0
 169 381 194 318 245 318 c 0
 296 318 322 375 322 488 c 0
 322 624 294 696 240 696 c 0
EndSplineSet
EndChar
StartChar: semicolon
Encoding: 59 59 227
Width: 333
Flags: MW
HStem: 0 20 391 145<94 239 94 239>
VStem: 94 145<-144 39 -99 39 8.5 39 39 145 8.5 145 391 536>
LayerCount: 2
Fore
SplineSet
94 -144 m 1
 94 -99 l 1
 132 -92 150 -67 150 -20 c 0
 150 -15 150 -10 148 0 c 1
 94 0 l 1
 94 145 l 1
 239 145 l 1
 239 39 l 2
 239 -22 225 -66 195 -98 c 0
 170 -124 145 -135 94 -144 c 1
94 391 m 1
 94 536 l 1
 239 536 l 1
 239 391 l 1
 94 391 l 1
EndSplineSet
EndChar
StartChar: less
Encoding: 60 60 300
Width: 570
Flags: W
LayerCount: 2
Fore
SplineSet
526 48 m 1
 44 289 l 1
 526 530 l 1
 526 449 l 1
 207 289 l 1
 207 288 l 1
 526 129 l 1
 526 48 l 1
EndSplineSet
EndChar
StartChar: equal
Encoding: 61 61 263
Width: 570
Flags: MW
HStem: 163 72<44 526 44 526> 344 72<44 526 44 526>
LayerCount: 2
Fore
SplineSet
44 163 m 1
 44 235 l 1
 526 235 l 1
 526 163 l 1
 44 163 l 1
44 344 m 1
 44 416 l 1
 526 416 l 1
 526 344 l 1
 44 344 l 1
EndSplineSet
EndChar
StartChar: greater
Encoding: 62 62 301
Width: 570
Flags: W
LayerCount: 2
Fore
SplineSet
44 530 m 1
 526 289 l 1
 44 48 l 1
 44 129 l 1
 363 288 l 1
 363 289 l 1
 44 449 l 1
 44 530 l 1
EndSplineSet
EndChar
StartChar: question
Encoding: 63 63 234
Width: 500
Flags: MW
HStem: 0 121<136 281 136 281> 697 45<190 232.5>
VStem: 136 145<0 121 0 121 205 213 213 215 0 240> 319 152<555.5 593>
LayerCount: 2
Fore
SplineSet
136 0 m 1
 136 121 l 1
 281 121 l 1
 281 0 l 1
 136 0 l 1
136 205 m 1
 136 213 l 2
 136 267 161 315 211 358 c 2
 241 385 l 2
 294 431 319 484 319 548 c 0
 319 638 270 697 195 697 c 0
 137 697 99 668 98 623 c 2
 98 585 l 1
 97 576 l 1
 31 576 l 1
 31 710 l 1
 96 732 156 742 224 742 c 0
 374 742 471 678 471 581 c 0
 471 530 447 492 386 447 c 0
 368 433 354 423 350 419 c 2
 327 400 l 2
 297 373 283 334 282 271 c 2
 281 215 l 1
 281 205 l 1
 136 205 l 1
EndSplineSet
EndChar
StartChar: at
Encoding: 64 64 256
Width: 930
Flags: W
HStem: -18 45<313 416 313 424.5> 144 56<633.5 674.5> 144 72<311.5 402.5> 529 43<446.5 496.5> 696 45<481 583.5 472.5 615>
VStem: 79 45<206.5 333.5 206.5 339> 255 86<262 336.5> 817 45<379.5 478.5 354 512>
LayerCount: 2
Fore
SplineSet
557 65 m 1xdf
 572 22 l 1
 504 -6 452 -18 397 -18 c 0
 213 -18 79 110 79 284 c 0
 79 394 122 499 206 590 c 0
 297 690 408 741 537 741 c 0
 630 741 706 712 769 653 c 0
 831 594 862 522 862 435 c 0
 862 273 747 144 602 144 c 0xcf
 549 144 522 162 522 198 c 0
 522 219 531 253 549 307 c 1
 531 307 l 1
 455 192 399 144 339 144 c 0x27
 284 144 255 182 255 257 c 0
 255 416 382 572 511 572 c 0
 532 572 562 566 588 557 c 0
 594 555 599 553 601 553 c 2
 663 553 l 1
 613 298 l 2
 609 278 606 256 606 243 c 0
 606 214 620 200 647 200 c 0
 731 200 817 320 817 439 c 0
 817 585 695 696 535 696 c 0
 427 696 330 653 248 569 c 0
 167 486 124 387 124 280 c 0
 124 133 236 27 390 27 c 0
 442 27 492 38 557 65 c 1xdf
543 386 m 1x37
 567 499 l 1
 540 519 512 529 481 529 c 0
 406 529 341 416 341 285 c 0
 341 239 355 216 383 216 c 0
 422 216 483 280 543 386 c 1x37
EndSplineSet
EndChar
StartChar: B
Encoding: 66 66 134
Width: 667
Flags: W
HStem: 0 20 703 20<21 387 387 455>
VStem: 99 145<142 346 395 582 582 582> 447 150<521 585> 473 154<144.5 231.5 119.5 236.5>
LayerCount: 2
Fore
SplineSet
21 0 m 1xc8
 21 45 l 1
 30 46 l 2
 93 50 96 53 97 93 c 2
 99 142 l 1
 99 582 l 1
 97 630 l 2
 95 671 94 672 30 678 c 1
 21 678 l 1
 21 723 l 1
 387 723 l 2
 523 723 597 667 597 564 c 0xf0
 597 478 546 421 425 375 c 1
 567 343 627 285 627 178 c 0
 627 61 546 0 388 0 c 2
 21 0 l 1xc8
244 346 m 1
 244 141 l 2
 244 66 255 54 327 54 c 0
 423 54 473 100 473 189 c 0xe8
 473 284 405 346 303 346 c 2
 244 346 l 1
244 395 m 1
 302 395 l 2
 393 395 447 449 447 540 c 0xf0
 447 630 398 675 303 675 c 2
 244 675 l 1
 244 395 l 1
EndSplineSet
EndChar
StartChar: C
Encoding: 67 67 135
Width: 722
Flags: MW
HStem: -18 61<374 478> 693 48<387 466.5 301 478.5>
VStem: 36 160<259 414.5 259 484.5> 667 13
LayerCount: 2
Fore
SplineSet
680 96 m 1
 680 28 l 1
 595 -5 523 -18 433 -18 c 0
 179 -18 36 119 36 362 c 0
 36 607 174 741 428 741 c 0
 505 741 578 731 667 709 c 1
 667 560 l 1
 583 560 l 1
 583 569 l 1
 581 598 l 2
 578 659 525 693 432 693 c 0
 342 693 281 661 244 595 c 0
 212 540 196 462 196 367 c 0
 196 151 285 43 463 43 c 0
 530 43 592 58 680 96 c 1
EndSplineSet
EndChar
StartChar: D
Encoding: 68 68 136
Width: 722
Flags: W
HStem: 0 20 703 20<21 233 233 269 269 269> 705 20<350 355 355 457.5>
VStem: 74 150<118 142 118 142 142 582 582 630 630 630> 526 160<270 478>
LayerCount: 2
Fore
SplineSet
21 0 m 1xb8
 21 45 l 1
 30 46 l 2
 68 49 73 54 74 93 c 2
 74 142 l 1
 74 582 l 1
 74 630 l 2
 73 669 68 674 30 678 c 1
 21 678 l 1
 21 723 l 1
 233 723 l 1
 269 723 l 1xd8
 314 724 l 1
 350 725 l 1
 355 725 l 2
 560 725 686 592 686 376 c 0
 686 146 553 0 344 0 c 2
 21 0 l 1xb8
224 675 m 1
 224 142 l 2
 224 94 232 70 250 62 c 0
 263 55 292 51 324 51 c 0
 452 51 526 169 526 371 c 0
 526 585 445 675 256 675 c 2
 224 675 l 1
EndSplineSet
EndChar
StartChar: F
Encoding: 70 70 138
Width: 611
Flags: W
HStem: 0 20 340 42<256 366 256 366> 588 135<491 575 491 491> 675 48<256 418 256 256>
VStem: 106 150<141 340 382 582 582 582>
LayerCount: 2
Fore
SplineSet
27 0 m 1xd8
 27 45 l 1
 37 46 l 2
 99 50 103 53 104 93 c 2
 106 141 l 1
 106 582 l 1
 104 630 l 2
 102 671 101 672 37 677 c 2
 27 678 l 1
 27 723 l 1
 575 723 l 1x98
 575 588 l 1
 491 588 l 1x28
 491 597 l 2
 490 613 489 621 489 626 c 2
 489 629 l 2
 489 668 478 675 418 675 c 2
 256 675 l 1
 256 382 l 1
 366 382 l 1
 413 383 l 2
 438 384 441 386 441 408 c 2
 442 431 l 1
 443 440 l 1
 506 440 l 1
 506 283 l 1
 443 283 l 1
 442 292 l 2
 441 308 441 308 441 310 c 2
 441 311 l 2
 441 329 432 337 412 338 c 2
 366 340 l 1
 256 340 l 1
 256 141 l 1
 259 93 l 2
 262 56 266 52 304 48 c 2
 338 46 l 1
 347 45 l 1
 347 0 l 1
 27 0 l 1xd8
EndSplineSet
EndChar
StartChar: G
Encoding: 71 71 139
Width: 778
Flags: MW
HStem: -18 48<368 464> 693 48<367.5 469>
VStem: 36 160<252.5 417.5> 536 150<43 177 15 177>
LayerCount: 2
Fore
SplineSet
765 318 m 1
 765 273 l 1
 755 272 l 2
 693 268 690 265 689 225 c 2
 686 177 l 1
 686 15 l 1
 578 -8 501 -18 427 -18 c 0
 179 -18 36 121 36 361 c 0
 36 474 68 566 129 634 c 0
 195 706 296 741 439 741 c 0
 522 741 595 732 685 709 c 1
 685 566 l 1
 601 566 l 1
 601 575 l 2
 601 616 596 639 585 650 c 0
 558 677 502 693 436 693 c 0
 275 693 196 584 196 363 c 0
 196 142 282 30 454 30 c 0
 484 30 507 34 536 43 c 1
 536 177 l 1
 534 225 l 2
 532 266 530 268 467 272 c 2
 458 273 l 1
 458 318 l 1
 765 318 l 1
EndSplineSet
EndChar
StartChar: H
Encoding: 72 72 140
Width: 778
Flags: MW
HStem: 0 20 355 51<250 529 250 529> 703 20<21 328 328 328 451 758 758 758>
VStem: 99 151<142 355 406 582> 529 150<142 355 355 355 406 582 142 582>
LayerCount: 2
Fore
SplineSet
21 0 m 1
 21 45 l 1
 30 46 l 2
 93 51 96 53 97 93 c 2
 99 142 l 1
 99 582 l 1
 97 630 l 2
 95 671 94 672 30 678 c 1
 21 678 l 1
 21 723 l 1
 328 723 l 1
 328 678 l 1
 319 678 l 1
 255 672 253 671 252 630 c 2
 250 582 l 1
 250 406 l 1
 529 406 l 1
 529 582 l 1
 527 630 l 2
 525 671 524 672 460 678 c 1
 451 678 l 1
 451 723 l 1
 758 723 l 1
 758 678 l 1
 748 678 l 1
 684 672 683 671 682 630 c 2
 679 582 l 1
 679 142 l 1
 682 93 l 2
 683 52 685 51 748 46 c 2
 758 45 l 1
 758 0 l 1
 451 0 l 1
 451 45 l 1
 460 46 l 2
 523 51 526 53 527 93 c 2
 529 142 l 1
 529 355 l 1
 250 355 l 1
 250 142 l 1
 252 93 l 2
 254 52 256 51 319 46 c 2
 328 45 l 1
 328 0 l 1
 21 0 l 1
EndSplineSet
EndChar
StartChar: J
Encoding: 74 74 142
Width: 500
Flags: MW
HStem: -145 48<143.5 193.5 139.5 247> 0 20 703 20<166 473 473 473>
VStem: 244 151<62 112 112 582>
LayerCount: 2
Fore
SplineSet
-3 -121 m 1
 -3 21 l 1
 87 21 l 1
 88 0 l 1
 89 -27 l 2
 92 -73 117 -97 162 -97 c 0
 225 -97 244 -61 244 62 c 2
 244 582 l 1
 242 630 l 2
 240 671 240 672 175 678 c 1
 166 678 l 1
 166 723 l 1
 473 723 l 1
 473 678 l 1
 464 678 l 1
 400 672 398 671 397 630 c 2
 395 582 l 1
 395 112 l 2
 395 -68 327 -145 167 -145 c 0
 120 -145 66 -137 -3 -121 c 1
EndSplineSet
EndChar
StartChar: K
Encoding: 75 75 143
Width: 778
Flags: MW
HStem: 0 20 703 20<21 310 310 310 507 726 726 726>
VStem: 99 145<142 348 389 582>
LayerCount: 2
Fore
SplineSet
21 0 m 1
 21 45 l 1
 30 46 l 2
 93 50 96 53 97 93 c 2
 99 142 l 1
 99 582 l 1
 97 630 l 2
 95 671 94 672 30 678 c 1
 21 678 l 1
 21 723 l 1
 310 723 l 1
 310 678 l 1
 302 678 l 1
 250 673 247 670 246 630 c 2
 244 582 l 1
 244 389 l 1
 484 582 l 2
 539 626 565 652 565 665 c 0
 565 673 558 676 537 677 c 2
 515 678 l 1
 507 678 l 1
 507 723 l 1
 726 723 l 1
 726 678 l 1
 718 678 l 1
 698 677 l 2
 673 675 652 663 616 631 c 0
 588 607 568 590 557 581 c 2
 360 424 l 1
 634 140 l 1
 693 82 l 2
 715 60 741 48 769 46 c 2
 779 45 l 1
 779 0 l 1
 429 0 l 1
 429 45 l 1
 438 45 l 1
 460 46 l 2
 487 46 500 52 500 64 c 0
 500 77 481 103 443 142 c 2
 244 348 l 1
 244 142 l 1
 247 93 l 2
 248 58 258 49 302 46 c 2
 310 45 l 1
 310 0 l 1
 21 0 l 1
EndSplineSet
EndChar
StartChar: L
Encoding: 76 76 144
Width: 667
Flags: MW
HStem: 0 51<353 461 353 653> 703 20<27 335 335 335>
VStem: 106 150<142 582 142 582>
LayerCount: 2
Fore
SplineSet
27 0 m 1
 27 45 l 1
 37 46 l 2
 100 50 103 52 104 93 c 2
 106 142 l 1
 106 582 l 1
 104 630 l 2
 102 671 101 672 37 678 c 1
 27 678 l 1
 27 723 l 1
 335 723 l 1
 335 678 l 1
 325 678 l 1
 261 672 259 671 258 630 c 2
 256 582 l 1
 256 142 l 1
 258 99 l 2
 261 57 266 53 309 52 c 2
 353 51 l 1
 461 51 l 1
 503 53 l 2
 552 54 554 56 555 101 c 2
 557 160 l 1
 557 181 l 1
 653 181 l 1
 653 0 l 1
 27 0 l 1
EndSplineSet
EndChar
StartChar: M
Encoding: 77 77 145
Width: 944
Flags: MW
HStem: 0 20 703 20<27 270 270 270 709 917 917 917>
VStem: 105 72<142 582 582 582> 700 138<142 571 571 571>
LayerCount: 2
Fore
SplineSet
27 0 m 1
 27 45 l 1
 36 46 l 2
 99 50 102 53 103 93 c 2
 105 142 l 1
 105 582 l 1
 103 630 l 2
 101 671 100 672 36 678 c 1
 27 678 l 1
 27 723 l 1
 270 723 l 1
 482 255 l 1
 709 723 l 1
 917 723 l 1
 917 678 l 1
 908 678 l 1
 843 672 841 671 840 630 c 2
 838 582 l 1
 838 142 l 1
 840 93 l 2
 842 52 844 51 907 46 c 2
 916 45 l 1
 916 0 l 1
 633 0 l 1
 633 45 l 1
 642 46 l 2
 693 50 697 53 698 93 c 2
 700 142 l 1
 700 571 l 1
 460 81 l 1
 412 81 l 1
 177 601 l 1
 177 142 l 1
 179 93 l 2
 180 53 184 50 234 46 c 2
 243 45 l 1
 243 0 l 1
 27 0 l 1
EndSplineSet
EndChar
StartChar: N
Encoding: 78 78 146
Width: 722
Flags: W
HStem: -10 20 0 20 703 20<21 209 209 209 457 685 685 685>
VStem: 99 72<142 528 142 582 142 582> 535 72<186 582 -10 582>
LayerCount: 2
Fore
SplineSet
21 0 m 1x58
 21 45 l 1
 30 46 l 2
 93 50 96 53 97 93 c 2
 99 142 l 1
 99 582 l 1
 97 630 l 2
 95 671 94 672 30 678 c 1
 21 678 l 1
 21 723 l 1
 209 723 l 1
 535 186 l 1
 535 582 l 1
 533 630 l 2
 531 671 531 672 466 678 c 1
 457 678 l 1
 457 723 l 1
 685 723 l 1
 685 678 l 1
 676 678 l 1
 612 672 610 671 609 630 c 2
 607 582 l 1
 607 -10 l 1
 500 -10 l 1xb8
 171 528 l 1
 171 142 l 1
 173 93 l 2
 175 52 177 51 240 46 c 2
 249 45 l 1
 249 0 l 1
 21 0 l 1x58
EndSplineSet
EndChar
StartChar: P
Encoding: 80 80 148
Width: 611
Flags: MW
HStem: 0 20 703 20<21 244 244 244>
VStem: 99 145<142 297 344 582 582 582> 439 153<463.5 563 455 573.5>
LayerCount: 2
Fore
SplineSet
21 0 m 1
 21 45 l 1
 30 46 l 2
 93 50 96 53 97 93 c 2
 99 142 l 1
 99 582 l 1
 97 630 l 2
 95 671 94 672 30 678 c 1
 21 678 l 1
 21 723 l 1
 244 723 l 1
 288 724 l 1
 337 725 l 1
 377 726 l 1
 385 727 l 2
 442 732 515 705 549 668 c 0
 578 636 592 592 592 534 c 0
 592 376 490 297 289 297 c 2
 244 297 l 1
 244 142 l 2
 244 110 248 75 253 66 c 0
 258 56 271 50 292 48 c 2
 326 46 l 1
 335 45 l 1
 335 0 l 1
 21 0 l 1
244 344 m 1
 273 344 l 2
 383 344 439 405 439 522 c 0
 439 625 392 675 297 675 c 2
 244 675 l 1
 244 344 l 1
EndSplineSet
EndChar
StartChar: Q
Encoding: 81 81 149
Width: 778
Flags: MW
HStem: -18 48<327.5 396.5> 693 48<327.5 451>
VStem: 36 160<255.5 467 255.5 477> 582 160<308.5 467>
LayerCount: 2
Fore
SplineSet
802 -55 m 1
 709 -148 l 1
 639 -123 572 -86 485 -24 c 2
 467 -11 l 1
 437 -16 408 -18 385 -18 c 0
 173 -18 36 131 36 361 c 0
 36 593 173 741 389 741 c 0
 605 741 742 594 742 361 c 0
 742 256 716 171 665 107 c 0
 631 64 600 40 535 8 c 1
 626 -26 713 -47 802 -55 c 1
389 693 m 0
 266 693 196 573 196 361 c 0
 196 150 266 30 389 30 c 0
 515 30 582 144 582 361 c 0
 582 573 513 693 389 693 c 0
EndSplineSet
EndChar
StartChar: R
Encoding: 82 82 150
Width: 722
Flags: MW
HStem: 0 20 703 20<21 232 232 232>
VStem: 99 145<142 317 365 582 582 582> 437 152<492.5 569.5 492.5 581>
LayerCount: 2
Fore
SplineSet
21 0 m 1
 21 45 l 1
 30 46 l 2
 93 50 96 53 97 93 c 2
 99 142 l 1
 99 582 l 1
 97 630 l 2
 95 671 94 672 30 678 c 1
 21 678 l 1
 21 723 l 1
 232 723 l 1
 277 724 l 1
 321 725 l 1
 365 726 l 1
 373 727 l 2
 435 732 513 705 548 667 c 0
 576 636 589 596 589 543 c 0
 589 442 547 380 450 337 c 1
 591 140 l 1
 630 90 l 2
 651 62 669 49 689 47 c 2
 712 46 l 1
 722 45 l 1
 722 0 l 1
 506 0 l 1
 306 317 l 1
 244 317 l 1
 244 142 l 1
 246 93 l 2
 247 53 251 50 302 46 c 2
 310 45 l 1
 310 0 l 1
 21 0 l 1
244 365 m 1
 271 365 l 2
 374 365 437 429 437 534 c 0
 437 628 391 675 299 675 c 2
 244 675 l 1
 244 365 l 1
EndSplineSet
EndChar
StartChar: T
Encoding: 84 84 152
Width: 667
Flags: W
HStem: 0 20 573 150<19 97 19 647 568 568 568 647> 675 48<140 170 170 258 408 408 408 496>
VStem: 258 150<142 675 142 675>
LayerCount: 2
Fore
SplineSet
168 0 m 1xb0
 168 45 l 1
 176 46 l 1
 210 48 l 2
 235 50 248 57 251 71 c 0
 255 87 258 116 258 142 c 2
 258 675 l 1
 170 675 l 2xb0
 110 675 100 669 100 633 c 2
 100 626 l 2
 100 614 99 601 98 582 c 2
 97 573 l 1
 19 573 l 1x50
 19 723 l 1
 647 723 l 1x30
 647 573 l 1
 568 573 l 1x50
 568 588 l 1
 566 632 l 2
 564 670 557 675 496 675 c 2
 408 675 l 1
 408 142 l 1
 411 93 l 2
 414 56 419 52 456 48 c 2
 490 46 l 1
 498 45 l 1
 498 0 l 1
 168 0 l 1xb0
EndSplineSet
EndChar
StartChar: V
Encoding: 86 86 154
Width: 722
Flags: MW
HStem: -9 20 703 20<0 301 301 301 529 722 722 722>
LayerCount: 2
Fore
SplineSet
0 678 m 1
 0 723 l 1
 301 723 l 1
 301 678 l 1
 292 678 l 2
 285 677 280 677 274 677 c 2
 271 677 l 2
 247 677 235 670 235 657 c 0
 235 647 243 623 260 583 c 2
 418 210 l 1
 571 583 l 2
 577 596 579 603 584 620 c 2
 594 651 l 2
 595 653 596 659 596 660 c 0
 596 671 586 677 566 677 c 2
 545 677 l 2
 543 677 541 677 538 678 c 2
 529 678 l 1
 529 723 l 1
 722 723 l 1
 722 678 l 1
 713 678 l 1
 673 674 672 673 659 642 c 2
 632 583 l 1
 390 -9 l 1
 341 -9 l 1
 89 583 l 1
 66 634 l 2
 49 673 48 674 9 678 c 1
 0 678 l 1
EndSplineSet
EndChar
StartChar: W
Encoding: 87 87 155
Width: 1000
Flags: MW
HStem: -9 20 703 20<6 296 296 296 795 994 994 994>
LayerCount: 2
Fore
SplineSet
6 678 m 1
 6 723 l 1
 296 723 l 1
 296 678 l 1
 286 678 l 1
 260 678 l 2
 237 677 227 671 227 657 c 0
 227 642 232 619 244 581 c 2
 345 251 l 1
 499 714 l 1
 560 714 l 1
 731 235 l 1
 838 579 l 2
 848 614 857 649 857 659 c 0
 857 672 839 678 804 678 c 2
 795 678 l 1
 795 723 l 1
 994 723 l 1
 994 678 l 1
 985 678 l 1
 977 677 l 2
 970 676 968 676 963 676 c 0
 934 675 930 672 920 640 c 2
 900 579 l 1
 714 -9 l 1
 667 -9 l 1
 487 492 l 1
 320 -9 l 1
 272 -9 l 1
 95 581 l 1
 78 636 l 2
 66 672 65 673 15 678 c 1
 6 678 l 1
EndSplineSet
EndChar
StartChar: X
Encoding: 88 88 156
Width: 722
Flags: MW
HStem: 0 20 703 20<31 342 342 342 510 712 712 712>
LayerCount: 2
Fore
SplineSet
10 0 m 1
 10 45 l 1
 19 46 l 2
 68 50 70 51 96 89 c 2
 132 143 l 1
 279 362 l 1
 147 579 l 1
 116 628 l 2
 89 671 86 673 40 678 c 1
 31 678 l 1
 31 723 l 1
 342 723 l 1
 342 678 l 1
 332 678 l 1
 307 678 l 2
 286 677 277 673 277 663 c 0
 277 660 278 654 280 652 c 2
 292 625 l 2
 302 606 307 595 317 579 c 2
 407 428 l 1
 517 580 l 2
 550 625 566 652 566 663 c 0
 566 673 558 677 539 678 c 2
 519 678 l 1
 510 678 l 1
 510 723 l 1
 712 723 l 1
 712 678 l 1
 710 678 l 1
 706 678 l 2
 705 678 705 678 703 677 c 2
 698 678 l 1
 694 677 l 2
 693 676 688 676 681 675 c 0
 656 672 652 670 634 646 c 2
 585 579 l 1
 447 385 l 1
 593 143 l 1
 634 81 l 2
 648 59 662 48 679 47 c 2
 700 46 l 1
 709 45 l 1
 709 0 l 1
 399 0 l 1
 399 45 l 1
 407 45 l 1
 434 46 l 2
 455 46 465 51 465 61 c 0
 465 70 449 101 425 143 c 2
 319 318 l 1
 200 143 l 2
 171 101 156 72 156 61 c 0
 156 51 165 46 184 46 c 2
 206 45 l 1
 215 45 l 1
 215 0 l 1
 10 0 l 1
EndSplineSet
EndChar
StartChar: Y
Encoding: 89 89 157
Width: 722
Flags: MW
HStem: 0 20 703 20<1 315 315 315 522 721 721 721>
VStem: 284 150<142 313 313 313>
LayerCount: 2
Fore
SplineSet
205 0 m 1
 205 45 l 1
 215 46 l 2
 278 50 281 53 282 93 c 2
 284 142 l 1
 284 313 l 1
 120 577 l 2
 98 612 87 631 85 634 c 0
 71 661 55 675 37 676 c 2
 11 678 l 1
 1 678 l 1
 1 723 l 1
 315 723 l 1
 315 678 l 1
 307 678 l 1
 283 678 l 2
 260 677 249 672 249 661 c 0
 249 650 261 626 291 577 c 2
 413 376 l 1
 538 577 l 2
 565 620 580 649 580 660 c 0
 580 672 564 678 533 678 c 2
 522 678 l 1
 522 723 l 1
 721 723 l 1
 721 678 l 1
 712 678 l 1
 691 676 l 2
 670 674 658 665 644 643 c 2
 602 577 l 1
 434 314 l 1
 434 142 l 1
 436 93 l 2
 438 52 440 51 503 46 c 2
 512 45 l 1
 512 0 l 1
 205 0 l 1
EndSplineSet
EndChar
StartChar: bracketleft
Encoding: 91 91 247
Width: 333
Flags: MW
HStem: -145 45<193 296 193 296> 726 45<193 296 193 193>
VStem: 69 124<-100 726 -100 771 -100 771>
LayerCount: 2
Fore
SplineSet
69 -145 m 1
 69 771 l 1
 296 771 l 1
 296 726 l 1
 193 726 l 1
 193 -100 l 1
 296 -100 l 1
 296 -145 l 1
 69 -145 l 1
EndSplineSet
EndChar
StartChar: bracketright
Encoding: 93 93 248
Width: 333
Flags: MW
HStem: -145 45<38 141 38 141 38 265> 726 45<38 141 38 265>
VStem: 141 124<-100 726 726 726>
LayerCount: 2
Fore
SplineSet
38 -145 m 1
 38 -100 l 1
 141 -100 l 1
 141 726 l 1
 38 726 l 1
 38 771 l 1
 265 771 l 1
 265 -145 l 1
 38 -145 l 1
EndSplineSet
EndChar
StartChar: asciicircum
Encoding: 94 94 303
Width: 581
Flags: MW
HStem: 703 20<291 291>
LayerCount: 2
Fore
SplineSet
291 561 m 1
 155 289 l 1
 74 289 l 1
 291 723 l 1
 508 289 l 1
 427 289 l 1
 291 561 l 1
EndSplineSet
EndChar
StartChar: underscore
Encoding: 95 95 306
Width: 500
Flags: MW
HStem: -72 72<0 500 0 500>
LayerCount: 2
Fore
SplineSet
0 -72 m 1
 0 0 l 1
 500 0 l 1
 500 -72 l 1
 0 -72 l 1
EndSplineSet
EndChar
StartChar: grave
Encoding: 96 96 285
Width: 333
Flags: W
LayerCount: 2
Fore
SplineSet
299 626 m 1
 234 626 l 1
 35 783 l 1
 181 783 l 1
 299 626 l 1
EndSplineSet
EndChar
StartChar: b
Encoding: 98 98 167
Width: 556
Flags: W
HStem: -12 69<278.5 310.5 265 367.5> 0 20 455 93<308 317.5>
VStem: 53 145<0 0 0 81 81 397 447 629 629 678 678 678> 383 153<192 323.5>
LayerCount: 2
Fore
SplineSet
53 -6 m 1x58
 53 629 l 1
 53 678 l 2
 52 717 47 723 9 725 c 2
 0 726 l 1
 0 771 l 1
 198 771 l 1
 198 447 l 1
 233 518 275 548 341 548 c 0
 459 548 536 442 536 280 c 0
 536 99 443 -12 292 -12 c 0xb8
 265 -12 237 -8 198 0 c 1
 53 -6 l 1x58
198 397 m 1
 198 81 l 1
 232 64 255 57 275 57 c 0
 346 57 383 126 383 258 c 0
 383 389 350 455 285 455 c 0
 251 455 225 437 198 397 c 1
EndSplineSet
EndChar
StartChar: d
Encoding: 100 100 169
Width: 556
Flags: W
HStem: -12 93<239.5 249> 0 20 479 69<247 278.5 189.5 292>
VStem: 21 154<212.5 344 212.5 346.5>
LayerCount: 2
Fore
SplineSet
358 0 m 1x70
 358 89 l 1
 324 18 282 -12 216 -12 c 0x90
 98 -12 21 94 21 256 c 0
 21 437 114 548 265 548 c 0
 292 548 318 545 358 536 c 1
 358 629 l 1
 356 678 l 2
 354 719 352 720 289 725 c 2
 280 726 l 1
 280 771 l 1
 503 771 l 1
 503 142 l 1
 504 93 l 2
 504 54 509 49 546 46 c 2
 556 45 l 1
 556 0 l 1
 358 0 l 1x70
358 139 m 1xb0
 358 455 l 1
 325 472 302 479 282 479 c 0
 212 479 175 410 175 278 c 0
 175 147 207 81 272 81 c 0
 306 81 332 99 358 139 c 1xb0
EndSplineSet
EndChar
StartChar: f
Encoding: 102 102 171
Width: 333
Flags: MW
HStem: 0 20 488 48<18 71 18 71 216 309> 737 47<240.5 268.5>
VStem: 71 145<142 488 142 488 536 558 558 606 142 633>
LayerCount: 2
Fore
SplineSet
18 0 m 1
 18 45 l 1
 27 46 l 2
 65 49 70 54 70 93 c 2
 71 142 l 1
 71 488 l 1
 18 488 l 1
 18 536 l 1
 71 536 l 1
 71 558 l 2
 71 708 130 784 248 784 c 0
 290 784 324 775 361 753 c 1
 361 639 l 1
 298 639 l 1
 297 648 l 1
 295 677 l 2
 293 717 280 737 257 737 c 0
 224 737 216 710 216 606 c 2
 216 536 l 1
 309 536 l 1
 309 488 l 1
 216 488 l 1
 216 142 l 1
 217 93 l 2
 218 52 224 46 271 46 c 2
 293 45 l 1
 293 0 l 1
 18 0 l 1
EndSplineSet
EndChar
StartChar: g
Encoding: 103 103 172
Width: 500
Flags: W
HStem: -205 45<211.5 277.5 211.5 299> 173 42<238 250.5 213 293> 501 47<212.5 244 163.5 250>
VStem: 9 140<-102 -68> 39 136<319.5 407> 288 135<311 382 306 406> 348 133<-80.5 -40.5>
LayerCount: 2
Fore
SplineSet
243 99 m 2
 300 99 l 2
 421 99 481 58 481 -27 c 0
 481 -134 377 -205 221 -205 c 0
 93 -205 9 -160 9 -92 c 0xf2
 9 -44 45 -10 128 19 c 1
 88 41 71 62 71 89 c 0
 71 126 100 156 166 185 c 1
 76 220 39 273 39 366 c 0
 39 486 102 548 225 548 c 0
 263 548 294 543 329 530 c 1
 498 545 l 1
 468 468 l 1
 377 483 l 1
 410 442 423 405 423 359 c 0
 423 253 345 173 241 173 c 0
 235 173 225 174 212 175 c 2
 207 176 l 1
 189 160 181 146 181 130 c 0xec
 181 109 201 99 243 99 c 2
231 501 m 0xec
 194 501 175 454 175 360 c 0
 175 264 194 215 232 215 c 0
 269 215 288 263 288 359 c 0
 288 453 269 501 231 501 c 0xec
222 6 m 2xf2
 175 6 l 1
 157 -21 149 -45 149 -73 c 0
 149 -131 180 -160 243 -160 c 0
 312 -160 348 -130 348 -70 c 0
 348 -11 321 6 222 6 c 2xf2
EndSplineSet
EndChar
StartChar: h
Encoding: 104 104 173
Width: 556
Flags: MW
HStem: 0 20 460 88<282.5 408.5>
VStem: 68 145<142 393 447 629 629 629> 355 145<142 363 363 379 142 401>
LayerCount: 2
Fore
SplineSet
15 0 m 1
 15 45 l 1
 24 46 l 2
 62 49 66 54 67 93 c 2
 68 142 l 1
 68 629 l 1
 67 678 l 2
 66 718 62 723 24 725 c 2
 15 726 l 1
 15 771 l 1
 213 771 l 1
 213 447 l 1
 251 518 296 548 363 548 c 0
 454 548 500 491 500 379 c 2
 500 142 l 1
 501 93 l 2
 501 54 506 49 544 46 c 2
 553 45 l 1
 553 0 l 1
 308 0 l 1
 308 45 l 1
 317 46 l 2
 342 48 354 63 354 93 c 2
 355 142 l 1
 355 363 l 2
 355 439 343 460 300 460 c 0
 265 460 240 440 213 393 c 1
 213 142 l 1
 214 93 l 2
 214 63 226 48 251 46 c 2
 260 45 l 1
 260 0 l 1
 15 0 l 1
EndSplineSet
EndChar
StartChar: i
Encoding: 105 105 174
Width: 278
Flags: MW
HStem: 0 20 516 20<19 217 217 217> 626 145<72 217 72 217>
VStem: 72 145<93 536 142 394 394 443 443 443 626 771>
LayerCount: 2
Fore
SplineSet
72 626 m 1
 72 771 l 1
 217 771 l 1
 217 626 l 1xf0
 72 626 l 1
19 0 m 1
 19 45 l 1
 28 46 l 2
 66 49 71 54 72 93 c 2
 72 142 l 1
 72 394 l 1
 72 443 l 2
 71 482 66 487 28 490 c 2
 19 491 l 1
 19 536 l 1
 217 536 l 1
 217 142 l 1
 218 93 l 2
 219 54 223 49 261 46 c 2
 270 45 l 1
 270 0 l 1
 19 0 l 1
EndSplineSet
EndChar
StartChar: j
Encoding: 106 106 175
Width: 333
Flags: MW
HStem: -205 45<65.5 96.5 65.5 136.5> 516 20<75 273 273 273> 626 145<128 273 128 273>
VStem: 128 145<-60.5 -26 -26 11 11 394 394 443 443 443 626 771>
LayerCount: 2
Fore
SplineSet
-51 -54 m 1
 28 -54 l 1
 28 -63 l 1
 30 -97 l 2
 32 -138 50 -160 81 -160 c 0
 112 -160 128 -132 128 -74 c 2
 128 -26 l 1
 128 394 l 1
 128 443 l 2
 127 482 122 487 84 490 c 2
 75 491 l 1
 75 536 l 1
 273 536 l 1
 273 11 l 2
 273 -132 204 -205 69 -205 c 0
 33 -205 -1 -199 -51 -185 c 1
 -51 -54 l 1
128 626 m 1
 128 771 l 1
 273 771 l 1
 273 626 l 1
 128 626 l 1
EndSplineSet
EndChar
StartChar: k
Encoding: 107 107 176
Width: 556
Flags: MW
HStem: 0 20 516 20<336 516 516 516>
VStem: 68 145<93 259 142 259 289 629 629 678 678 678>
LayerCount: 2
Fore
SplineSet
15 0 m 1
 15 45 l 1
 24 46 l 2
 62 49 67 54 68 93 c 2
 68 142 l 1
 68 629 l 1
 68 678 l 2
 67 717 62 722 24 725 c 2
 15 726 l 1
 15 771 l 1
 213 771 l 1
 213 289 l 1
 221 289 l 1
 326 400 l 2
 343 417 351 427 358 435 c 2
 380 463 l 2
 384 468 387 475 387 479 c 0
 387 486 380 490 365 490 c 2
 344 491 l 1
 336 491 l 1
 336 536 l 1
 516 536 l 1
 516 491 l 1
 507 490 l 2
 480 488 455 472 426 438 c 0
 400 410 397 406 385 394 c 2
 329 335 l 1
 450 140 l 2
 488 80 516 48 533 46 c 2
 543 46 l 1
 552 45 l 1
 552 0 l 1
 380 0 l 1
 219 259 l 1
 213 259 l 1
 213 142 l 1
 214 93 l 2
 215 54 219 49 257 46 c 2
 266 45 l 1
 266 0 l 1xe0
 15 0 l 1
EndSplineSet
EndChar
StartChar: l
Encoding: 108 108 177
Width: 278
Flags: MW
HStem: 0 20
VStem: 72 145<93 771 142 629 629 678 678 678>
LayerCount: 2
Fore
SplineSet
19 0 m 1
 19 45 l 1
 28 46 l 2
 66 49 71 54 72 93 c 2
 72 142 l 1
 72 629 l 1
 72 678 l 2
 71 717 66 722 28 725 c 2
 19 726 l 1
 19 771 l 1
 217 771 l 1
 217 142 l 1
 218 93 l 2
 219 54 223 49 261 46 c 2
 270 45 l 1
 270 0 l 1xc0
 19 0 l 1
EndSplineSet
EndChar
StartChar: m
Encoding: 109 109 178
Width: 833
Flags: W
HStem: 0 20 460 88<281 393.5> 516 20<15 213 213 213>
VStem: 68 145<142 393 142 394 142 394> 350 145<142 363 363 393 142 400.5> 632 145<142 363 363 379 142 400.5>
LayerCount: 2
Fore
SplineSet
15 0 m 1xdc
 15 45 l 1
 24 46 l 2
 62 49 66 54 67 93 c 2
 68 142 l 1
 68 394 l 1
 67 443 l 2
 66 482 62 487 24 490 c 2
 15 491 l 1
 15 536 l 1
 213 536 l 1xbc
 213 447 l 1
 250 518 293 548 357 548 c 0
 430 548 472 514 491 439 c 1
 532 522 567 548 638 548 c 0
 730 548 777 492 777 379 c 2
 777 142 l 1
 778 93 l 2
 779 54 783 49 821 46 c 2
 830 45 l 1
 830 0 l 1
 585 0 l 1
 585 45 l 1
 594 46 l 2
 619 48 631 63 631 93 c 2
 632 142 l 1
 632 363 l 2
 632 438 620 460 579 460 c 0
 547 460 521 440 495 393 c 1
 495 142 l 1
 496 93 l 2
 497 54 501 49 539 46 c 2
 548 45 l 1
 548 0 l 1
 303 0 l 1
 303 45 l 1
 312 46 l 2
 337 48 349 63 349 93 c 2
 350 142 l 1
 350 363 l 2
 350 438 338 460 297 460 c 0
 265 460 240 440 213 393 c 1
 213 142 l 1
 214 93 l 2
 214 63 226 48 251 46 c 2
 260 45 l 1
 260 0 l 1
 15 0 l 1xdc
EndSplineSet
EndChar
StartChar: o
Encoding: 111 111 180
Width: 500
Flags: MW
HStem: -12 51<225 275 225 320> 497 51<225 274.5>
VStem: 21 154<192.5 344.5 192.5 355.5> 325 154<196.5 347.5>
LayerCount: 2
Fore
SplineSet
250 548 m 0
 392 548 479 442 479 269 c 0
 479 92 393 -12 247 -12 c 0
 107 -12 21 95 21 268 c 0xf0
 21 443 107 548 250 548 c 0
250 497 m 0
 200 497 175 420 175 269 c 0
 175 116 200 39 250 39 c 0
 300 39 325 119 325 274 c 0
 325 421 299 497 250 497 c 0
EndSplineSet
EndChar
StartChar: p
Encoding: 112 112 181
Width: 556
Flags: W
HStem: -12 69<278.5 310.5 265 367.5> 0 20 455 93<308 317.5> 516 20<0 198 198 198>
VStem: 53 145<-100 0 -51 0 -51 81 81 394 394 397> 383 153<192 323.5>
LayerCount: 2
Fore
SplineSet
0 491 m 1x4c
 0 536 l 1
 198 536 l 1x1c
 198 447 l 1
 233 518 275 548 341 548 c 0
 459 548 536 442 536 280 c 0
 536 99 443 -12 292 -12 c 0xac
 265 -12 237 -8 198 0 c 1
 198 -51 l 1
 199 -100 l 2
 200 -138 205 -144 242 -147 c 2
 251 -148 l 1
 251 -193 l 1
 0 -193 l 1
 0 -148 l 1
 9 -147 l 2
 47 -144 52 -138 53 -100 c 2
 53 -51 l 1
 53 394 l 1
 53 443 l 2
 52 482 47 487 9 490 c 2
 0 491 l 1x4c
198 397 m 1xac
 198 81 l 1
 232 64 255 57 275 57 c 0
 346 57 383 126 383 258 c 0
 383 389 350 455 285 455 c 0
 251 455 225 437 198 397 c 1xac
EndSplineSet
EndChar
StartChar: q
Encoding: 113 113 182
Width: 556
Flags: W
HStem: -12 93<239.5 249> 479 69<247 278.5 189.5 292> 516 20<358 503 503 503>
VStem: 21 154<212.5 344 212.5 346.5> 358 145<-100 536 -51 89 89 89 139 455 455 455 -51 536>
LayerCount: 2
Fore
SplineSet
305 -193 m 1x38
 305 -148 l 1
 315 -147 l 2
 352 -144 357 -138 358 -100 c 2
 358 -51 l 1
 358 89 l 1
 324 18 282 -12 216 -12 c 0
 98 -12 21 94 21 256 c 0
 21 437 114 548 265 548 c 0xd8
 292 548 318 545 358 536 c 1
 503 536 l 1
 503 -51 l 1
 504 -100 l 2
 504 -138 509 -144 547 -147 c 2
 556 -148 l 1
 556 -193 l 1
 305 -193 l 1x38
358 139 m 1
 358 455 l 1
 325 472 302 479 282 479 c 0
 212 479 175 410 175 278 c 0
 175 147 207 81 272 81 c 0
 306 81 332 99 358 139 c 1
EndSplineSet
EndChar
StartChar: r
Encoding: 114 114 183
Width: 444
Flags: W
HStem: 0 20 516 20<15 213 213 213> 528 20<349 390>
VStem: 68 145<126.5 142 126.5 142 142 383 435 443 443 443>
LayerCount: 2
Fore
SplineSet
15 0 m 1
 15 45 l 1
 24 46 l 2
 62 49 67 54 68 93 c 2
 68 142 l 1
 68 394 l 1
 68 443 l 2
 67 482 62 487 24 490 c 2
 15 491 l 1
 15 536 l 1
 213 536 l 1xd0
 213 435 l 1
 261 513 314 548 384 548 c 0
 396 548 404 547 418 544 c 1
 418 373 l 1
 352 373 l 1
 351 382 l 1
 349 405 l 2
 346 449 346 450 319 450 c 0
 274 450 241 430 213 383 c 1
 213 142 l 2
 213 111 217 75 222 66 c 0
 227 56 239 50 261 48 c 2
 294 46 l 1
 303 45 l 1
 303 0 l 1xb0
 15 0 l 1
EndSplineSet
EndChar
StartChar: t
Encoding: 116 116 185
Width: 333
Flags: MW
HStem: -12 58<174.5 274> 488 48<18 72 18 72 217 309>
VStem: 72 145<167 488 536 626 626 626>
LayerCount: 2
Fore
SplineSet
18 488 m 1
 18 536 l 1
 72 536 l 1
 72 626 l 1
 217 652 l 1
 217 536 l 1
 309 536 l 1
 309 488 l 1
 217 488 l 1
 217 163 l 1
 217 122 l 2
 217 71 234 46 267 46 c 0
 281 46 293 49 315 57 c 1
 315 4 l 1
 282 -7 257 -12 227 -12 c 0
 122 -12 72 45 72 167 c 2
 72 488 l 1
 18 488 l 1
EndSplineSet
EndChar
StartChar: v
Encoding: 118 118 187
Width: 500
Flags: MW
HStem: -6 20 516 20<0 252 252 252 349 500 500 500>
LayerCount: 2
Fore
SplineSet
0 491 m 1
 0 536 l 1
 252 536 l 1
 252 491 l 1
 243 490 l 1
 236 490 l 1
 230 490 l 2
 210 489 201 482 201 468 c 0
 201 457 209 430 224 393 c 2
 304 190 l 1
 375 393 l 2
 392 444 397 460 397 471 c 0
 397 482 389 488 372 489 c 2
 358 490 l 1
 349 491 l 1
 349 536 l 1
 500 536 l 1
 500 491 l 1
 491 490 l 1
 477 490 l 2
 461 488 449 473 439 441 c 0
 435 426 433 421 423 394 c 2
 281 -6 l 1
 237 -6 l 1
 78 393 l 1
 57 443 l 2
 44 475 30 489 9 490 c 2
 0 491 l 1
EndSplineSet
EndChar
StartChar: w
Encoding: 119 119 188
Width: 722
Flags: MW
HStem: -6 20 516 20<6 262 262 262 541 716 716 716>
LayerCount: 2
Fore
SplineSet
6 491 m 1
 6 536 l 1
 262 536 l 1
 262 491 l 1
 253 491 l 2
 225 491 213 482 213 462 c 0
 213 447 217 421 223 396 c 2
 264 223 l 1
 373 533 l 1
 425 533 l 1
 526 223 l 1
 569 393 l 1
 577 423 l 1
 585 453 l 2
 587 463 588 467 588 471 c 0
 588 484 575 491 550 491 c 2
 541 491 l 1
 541 536 l 1
 716 536 l 1
 716 491 l 1
 707 490 l 2
 674 488 657 482 652 471 c 0
 646 458 638 436 628 395 c 2
 528 -6 l 1
 483 -6 l 1
 361 371 l 1
 228 -6 l 1
 181 -6 l 1
 86 394 l 1
 76 441 l 2
 69 471 48 488 15 490 c 2
 6 491 l 1
EndSplineSet
EndChar
StartChar: x
Encoding: 120 120 189
Width: 500
Flags: MW
HStem: 0 20 516 20<9 280 280 280 310 491 491 491>
LayerCount: 2
Fore
SplineSet
0 0 m 1
 0 45 l 1
 6 46 l 1
 19 47 l 2
 52 51 61 60 109 140 c 2
 184 263 l 1
 113 399 l 2
 90 443 75 469 67 476 c 0
 59 484 43 489 18 490 c 2
 9 491 l 1
 9 536 l 1
 280 536 l 1
 280 491 l 1
 271 491 l 1
 258 490 l 2
 236 489 227 483 227 468 c 0
 227 453 235 431 252 397 c 2
 284 336 l 1
 320 397 l 2
 342 433 354 460 354 472 c 0
 354 484 342 491 319 491 c 2
 310 491 l 1
 310 536 l 1
 491 536 l 1
 491 491 l 1
 482 490 l 1
 469 490 l 2
 448 490 431 477 414 450 c 2
 382 396 l 1
 313 280 l 1
 389 133 l 2
 417 77 451 48 491 46 c 2
 500 45 l 1
 500 0 l 1
 232 0 l 1
 232 45 l 1
 241 45 l 1
 248 46 l 1
 270 49 l 2
 276 52 279 57 279 64 c 0
 279 76 271 96 247 141 c 2
 213 205 l 1
 176 142 l 2
 171 134 167 125 162 116 c 2
 158 107 l 1
 145 83 l 2
 142 76 139 66 139 60 c 0
 139 52 147 47 162 46 c 2
 168 45 l 1
 178 45 l 1
 178 0 l 1
 0 0 l 1
EndSplineSet
EndChar
StartChar: y
Encoding: 121 121 190
Width: 500
Flags: MW
HStem: 516 20<0 255 255 255 352 500 500 500>
LayerCount: 2
Fore
SplineSet
0 491 m 1
 0 536 l 1
 255 536 l 1
 255 491 l 1
 246 490 l 1
 241 490 l 1
 237 490 l 2
 236 490 236 490 234 489 c 2
 230 490 l 1
 209 485 203 481 203 468 c 0
 203 467 203 465 204 462 c 2
 206 456 l 2
 209 441 214 425 228 392 c 2
 306 192 l 1
 377 392 l 2
 391 430 399 459 399 471 c 0
 399 482 391 488 375 489 c 2
 361 490 l 1
 352 491 l 1
 352 536 l 1
 500 536 l 1
 500 491 l 1
 491 490 l 1
 477 490 l 1
 457 486 450 476 434 425 c 0
 432 419 431 415 423 394 c 2
 213 -193 l 1
 73 -193 l 1
 232 3 l 1
 78 392 l 1
 57 443 l 2
 45 474 30 489 9 490 c 2x80
 0 491 l 1
EndSplineSet
EndChar
StartChar: braceleft
Encoding: 123 123 269
Width: 394
Flags: W
VStem: 120 135<-42.5 -24.5 -49.5 13> 121 135<643 665>
LayerCount: 2
Fore
SplineSet
48 336 m 1x80
 78 336 l 2
 132 336 160 359 160 405 c 0
 160 413 158 426 155 438 c 2
 147 475 l 1
 135 526 l 2
 125 569 121 598 121 620 c 0
 121 710 195 771 303 771 c 2
 352 771 l 1
 352 726 l 1
 274 720 256 705 256 648 c 0x40
 256 638 257 631 260 614 c 2
 264 594 l 1
 270 559 l 2
 277 524 280 494 280 471 c 0
 280 394 247 347 172 313 c 1
 247 278 279 231 279 154 c 0
 279 128 276 101 269 62 c 2
 262 27 l 1
 259 7 l 2
 257 -6 255 -21 255 -28 c 0
 255 -71 280 -94 332 -98 c 0
 339 -98 343 -99 352 -100 c 1
 352 -145 l 1
 301 -145 l 2
 191 -145 120 -87 120 2 c 0
 120 24 126 63 133 96 c 2
 146 147 l 1
 154 184 l 2
 156 194 158 212 158 224 c 0
 158 268 131 291 78 291 c 2
 48 291 l 1
 48 336 l 1x80
EndSplineSet
EndChar
StartChar: bar
Encoding: 124 124 304
Width: 220
Flags: MW
VStem: 74 72<-145 771 -145 771>
LayerCount: 2
Fore
SplineSet
74 -145 m 1
 74 771 l 1
 146 771 l 1
 146 -145 l 1
 74 -145 l 1
EndSplineSet
EndChar
StartChar: braceright
Encoding: 125 125 270
Width: 394
Flags: W
VStem: 137 136<-38.5 -16.5> 139 135<651.5 669 613.5 676.5>
LayerCount: 2
Fore
SplineSet
346 291 m 1x40
 316 291 l 2
 262 291 234 267 234 222 c 0
 234 213 235 204 239 188 c 2
 247 152 l 1
 259 100 l 2
 269 56 273 28 273 7 c 0
 273 -84 199 -145 91 -145 c 2
 42 -145 l 1
 42 -99 l 1
 119 -94 137 -79 137 -21 c 0x80
 137 -12 136 3 134 12 c 2
 130 33 l 1
 124 67 l 2
 117 101 114 133 114 156 c 0
 114 232 147 280 223 313 c 1
 148 348 116 396 116 472 c 0
 116 497 120 537 125 565 c 2
 131 599 l 1
 135 619 l 2
 137 627 139 648 139 655 c 0
 139 698 114 721 62 724 c 0
 57 725 52 725 42 726 c 1
 42 771 l 1
 93 771 l 2
 202 771 274 713 274 625 c 0
 274 602 269 570 260 530 c 2
 249 479 l 1
 240 442 l 2
 238 435 236 413 236 402 c 0
 236 358 263 336 316 336 c 2
 346 336 l 1
 346 291 l 1x40
EndSplineSet
EndChar
StartChar: asciitilde
Encoding: 126 126 307
Width: 520
Flags: MW
HStem: 205 69<366 383.5> 305 69<136.5 153.5>
LayerCount: 2
Fore
SplineSet
67 217 m 1
 19 217 l 1
 21 282 32 316 62 342 c 0
 85 363 117 374 156 374 c 0
 197 374 232 361 269 331 c 2
 293 312 l 2
 325 286 353 274 379 274 c 0
 427 274 453 303 453 357 c 2
 453 361 l 1
 501 361 l 1
 499 296 488 263 458 237 c 0
 435 216 403 205 364 205 c 0
 323 205 289 218 250 248 c 2
 226 267 l 2
 190 295 167 305 140 305 c 0
 92 305 67 276 67 221 c 2
 67 217 l 1
EndSplineSet
EndChar
StartChar: exclamdown
Encoding: 161 161 233
Width: 333
Flags: MW
HStem: 415 121<94 239 94 239>
VStem: 94 145<-187 -42 -187 -42 415 536>
LayerCount: 2
Fore
SplineSet
239 536 m 1
 239 415 l 1
 94 415 l 1
 94 536 l 1
 239 536 l 1
189 331 m 1
 239 -42 l 1
 239 -187 l 1
 94 -187 l 1
 94 -42 l 1
 144 331 l 1
 189 331 l 1
EndSplineSet
EndChar
StartChar: cent
Encoding: 162 162 215
Width: 500
Flags: MW
HStem: 0 20 703 20<282 330 330 330>
VStem: 49 132<329.5 399 329.5 446.5> 282 48<0 76 0 77 0 77 150 591 591 591 639 723>
LayerCount: 2
Fore
SplineSet
282 0 m 1
 282 77 l 1
 128 95 49 192 49 363 c 0
 49 530 127 623 282 639 c 1
 282 723 l 1
 330 723 l 1
 330 639 l 1
 349 636 l 2
 394 631 421 626 461 616 c 1
 461 473 l 1
 404 473 l 1
 404 478 l 1
 404 480 l 1
 404 481 l 1
 404 482 l 2
 403 498 402 502 402 512 c 0
 401 563 379 588 330 593 c 1
 330 141 l 1
 369 141 413 150 461 168 c 1
 461 102 l 1
 418 89 375 80 330 76 c 1
 330 0 l 1
 282 0 l 1
282 150 m 1
 282 591 l 1
 243 577 223 558 206 521 c 0
 190 483 181 431 181 367 c 0
 181 292 194 235 220 198 c 0
 237 174 251 163 282 150 c 1
EndSplineSet
EndChar
StartChar: sterling
Encoding: 163 163 213
Width: 500
Flags: W
HStem: 0 114<24 24 106 452> 353 51<30 108 30 108> 359 45<253 355> 692 49<294.5 324 243 341.5>
VStem: 108 145<264 301 301 353 353 353 404 483 483 554>
LayerCount: 2
Fore
SplineSet
24 0 m 1xa8
 24 114 l 1
 83 130 108 175 108 264 c 2
 108 353 l 1
 30 353 l 1xc8
 30 404 l 1
 108 404 l 1x28
 108 483 l 2
 108 647 180 741 306 741 c 0
 342 741 385 733 452 712 c 1
 452 585 l 1
 386 585 l 1
 384 660 364 692 319 692 c 0
 270 692 253 657 253 554 c 2
 253 404 l 1
 355 404 l 1x58
 355 359 l 1
 253 359 l 1
 253 301 l 2
 253 216 209 160 106 114 c 1
 452 114 l 1
 452 0 l 1
 24 0 l 1xa8
EndSplineSet
EndChar
StartChar: currency
Encoding: 164 164 266
Width: 500
Flags: MW
HStem: 162 72<228 272> 476 72<227 271 227 283.5>
VStem: 57 72<333.5 377> 370 72<334 377.5 334 389>
LayerCount: 2
Fore
SplineSet
28 168 m 1
 97 237 l 1
 69 276 57 312 57 355 c 0
 57 399 69 435 97 474 c 1
 28 543 l 1
 62 577 l 1
 131 508 l 1
 169 536 205 548 249 548 c 0
 293 548 329 536 368 508 c 1
 437 577 l 1
 471 543 l 1
 402 474 l 1
 430 435 442 399 442 356 c 0
 442 312 430 275 402 237 c 1
 471 168 l 1
 437 134 l 1
 367 203 l 1
 330 174 294 162 250 162 c 0
 206 162 171 174 132 203 c 1
 62 134 l 1
 28 168 l 1
250 476 m 0
 183 476 129 423 129 357 c 0
 129 288 182 234 250 234 c 0
 317 234 370 287 370 355 c 0
 370 423 317 476 250 476 c 0
EndSplineSet
EndChar
StartChar: yen
Encoding: 165 165 218
Width: 500
Flags: MW
HStem: 0 20 187 45<68 184 68 184 316 432> 316 45<68 184 68 184 316 432> 703 20<0 224 224 224 368 500 500 500>
VStem: 184 132<142 187 142 187 232 316 142 316>
LayerCount: 2
Fore
SplineSet
112 0 m 1
 112 46 l 1
 121 46 l 1
 178 51 181 53 182 94 c 2
 184 142 l 1
 184 187 l 1
 68 187 l 1
 68 232 l 1
 184 232 l 1
 184 316 l 1
 68 316 l 1
 68 361 l 1
 184 361 l 1
 73 583 l 2
 42 646 17 678 0 678 c 1
 0 723 l 1
 224 723 l 1
 224 678 l 1
 218 677 l 1
 215 677 l 1
 211 678 l 1
 189 674 185 672 185 664 c 0
 185 662 188 651 190 647 c 2
 205 616 l 2
 211 603 217 592 222 583 c 2
 296 432 l 1
 298 432 l 1
 373 583 l 2
 392 622 403 651 403 665 c 0
 403 674 396 678 382 678 c 2
 375 678 l 1
 368 678 l 1
 368 723 l 1
 500 723 l 1
 500 678 l 1
 482 677 458 645 427 583 c 2
 316 361 l 1
 432 361 l 1
 432 316 l 1
 316 316 l 1
 316 232 l 1
 432 232 l 1
 432 187 l 1
 316 187 l 1
 316 142 l 1
 318 94 l 2
 320 52 322 51 379 46 c 1
 388 46 l 1
 388 0 l 1
 112 0 l 1
EndSplineSet
EndChar
StartChar: brokenbar
Encoding: 166 166 305
Width: 220
Flags: MW
VStem: 74 72<-145 217 -145 217 410 771>
LayerCount: 2
Fore
SplineSet
74 -145 m 1
 74 217 l 1
 146 217 l 1
 146 -145 l 1
 74 -145 l 1
74 410 m 1
 74 771 l 1
 146 771 l 1
 146 410 l 1
 74 410 l 1
EndSplineSet
EndChar
StartChar: section
Encoding: 167 167 250
Width: 500
Flags: W
HStem: -156 45<204 274.5 200 306.5> 0 20 696 45<232.5 290.5 191.5 296.5>
VStem: 40 116<577.5 621> 347 114<-42.5 6.5> 360 88<232 339.5>
LayerCount: 2
Fore
SplineSet
43 -127 m 1xe8
 43 10 l 1
 109 10 l 1
 110 0 l 1
 111 -10 l 1
 111 -28 l 1
 111 -29 l 2
 111 -79 161 -111 239 -111 c 0
 310 -111 347 -78 347 -13 c 0xe8
 347 26 331 42 256 77 c 2
 198 104 l 2
 89 156 43 209 43 283 c 0
 43 335 66 379 122 431 c 1
 64 465 40 505 40 565 c 0
 40 677 121 741 262 741 c 0
 319 741 372 733 432 715 c 1
 432 573 l 1
 366 573 l 1
 366 582 l 2
 365 600 364 609 364 614 c 2
 364 618 l 2
 364 669 329 696 264 696 c 0
 201 696 156 654 156 594 c 0
 156 561 179 535 233 510 c 2
 286 485 l 2
 402 431 448 378 448 301 c 0xf4
 448 253 428 208 380 150 c 1
 437 113 461 71 461 10 c 0
 461 -95 378 -156 235 -156 c 0
 173 -156 115 -147 43 -127 c 1xe8
260 217 m 2xe4
 345 175 l 1
 355 198 360 220 360 244 c 0
 360 281 340 312 305 330 c 2
 232 367 l 1
 158 407 l 1
 146 386 140 365 140 342 c 0
 140 289 164 264 260 217 c 2xe4
EndSplineSet
EndChar
StartChar: dieresis
Encoding: 168 168 281
Width: 333
Flags: MW
HStem: 626 103<16 119 16 119 214 317 16 214>
VStem: 16 103<626 729 626 729> 214 103<626 729 626 729>
LayerCount: 2
Fore
SplineSet
16 626 m 1
 16 729 l 1
 119 729 l 1
 119 626 l 1xe0
 16 626 l 1
214 626 m 1
 214 729 l 1
 317 729 l 1
 317 626 l 1
 214 626 l 1
EndSplineSet
EndChar
StartChar: copyright
Encoding: 169 169 295
Width: 747
Flags: MW
HStem: 0 48<327.5 420> 155 47<375 421> 525 40<361.5 412.5> 675 48<330 416>
VStem: 12 48<318.5 404.5 318.5 411.5> 187 87<316.5 414 316.5 425> 687 48<311.5 405>
LayerCount: 2
Fore
SplineSet
374 723 m 0
 473 723 558 688 629 617 c 0
 700 547 735 462 735 362 c 0
 735 261 699 175 629 105 c 0
 558 35 471 0 369 0 c 0
 282 0 205 29 140 86 c 0
 55 159 12 253 12 362 c 0
 12 461 48 547 118 617 c 0
 189 688 274 723 374 723 c 0
373 675 m 0
 287 675 213 644 152 583 c 0
 91 522 60 448 60 361 c 0
 60 276 91 202 151 141 c 0
 213 79 285 48 370 48 c 0
 548 48 687 186 687 362 c 0
 687 448 656 522 595 583 c 0
 533 644 459 675 373 675 c 0
529 548 m 1
 529 459 l 1
 481 459 l 1
 481 506 l 1
 447 520 425 525 400 525 c 0
 323 525 274 463 274 365 c 0
 274 268 332 202 418 202 c 0
 454 202 490 210 530 227 c 1
 530 174 l 1
 480 161 441 155 401 155 c 0
 272 155 187 238 187 363 c 0
 187 487 268 565 396 565 c 0
 435 565 476 560 529 548 c 1
EndSplineSet
EndChar
StartChar: ordfeminine
Encoding: 170 170 271
Width: 300
Flags: MW
HStem: 402 47<84 157> 714 28<137.5 156>
VStem: 19 92<487 529.5 487 531> 181 90<501 576 576 576 603 642 642 643 501 666.5>
LayerCount: 2
Fore
SplineSet
300 437 m 1
 300 409 l 1
 283 404 274 402 262 402 c 0
 232 402 211 416 193 447 c 1
 174 416 148 402 111 402 c 0
 57 402 19 440 19 495 c 0
 19 567 69 603 169 603 c 2
 181 603 l 1
 181 642 l 2
 181 691 169 714 143 714 c 0
 120 714 107 700 106 675 c 2
 105 656 l 1
 104 650 l 1
 47 650 l 1
 47 716 l 1
 86 734 119 742 156 742 c 0
 232 742 271 709 271 643 c 2
 271 501 l 1
 272 475 l 1
 272 457 l 2
 273 444 280 436 292 436 c 0
 293 436 297 436 299 437 c 2
 300 437 l 1
181 469 m 1
 181 576 l 1
 173 576 l 2
 131 576 111 553 111 506 c 0
 111 468 123 449 148 449 c 0
 166 449 176 455 181 469 c 1
EndSplineSet
EndChar
StartChar: guillemotleft
Encoding: 171 171 237
Width: 500
Flags: W
LayerCount: 2
Fore
SplineSet
259 452 m 1
 152 268 l 1
 259 84 l 1
 222 54 l 1
 5 268 l 1
 222 482 l 1
 259 452 l 1
488 452 m 1
 380 268 l 1
 487 86 l 1
 450 59 l 1
 234 268 l 1
 451 480 l 1
 488 452 l 1
EndSplineSet
EndChar
StartChar: logicalnot
Encoding: 172 172 302
Width: 570
Flags: MW
HStem: 362 72<44 526 44 454>
VStem: 454 72<145 362 362 362>
LayerCount: 2
Fore
SplineSet
44 362 m 1
 44 434 l 1
 526 434 l 1
 526 145 l 1
 454 145 l 1
 454 362 l 1
 44 362 l 1
EndSplineSet
EndChar
StartChar: sfthyphen
Encoding: 173 173 242
Width: 333
Flags: MW
HStem: 253 72<24 309 24 309>
LayerCount: 2
Fore
SplineSet
24 253 m 1
 24 325 l 1
 309 325 l 1
 309 253 l 1
 24 253 l 1
EndSplineSet
EndChar
StartChar: registered
Encoding: 174 174 296
Width: 747
Flags: MW
HStem: 0 48<327.5 420> 675 48<330 416>
VStem: 12 48<318.5 404.5 318.5 411.5> 253 82<248 340 367 480 480 480> 438 84<435 476.5 435 481> 687 48<311.5 405>
LayerCount: 2
Fore
SplineSet
374 723 m 0
 473 723 558 688 629 617 c 0
 700 547 735 462 735 362 c 0
 735 261 699 175 629 105 c 0
 558 35 471 0 369 0 c 0
 282 0 205 29 140 86 c 0
 55 159 12 253 12 362 c 0
 12 461 48 547 118 617 c 0
 189 688 274 723 374 723 c 0
373 675 m 0
 287 675 213 644 152 583 c 0
 91 522 60 448 60 361 c 0
 60 276 91 202 151 141 c 0
 213 79 285 48 370 48 c 0
 548 48 687 186 687 362 c 0
 687 448 656 522 595 583 c 0
 533 644 459 675 373 675 c 0
211 168 m 1
 211 195 l 1
 216 196 l 2
 251 199 251 199 252 221 c 2
 253 248 l 1
 253 480 l 1
 252 507 l 2
 251 529 251 529 216 532 c 2
 211 533 l 1
 211 560 l 1
 329 560 l 1
 353 560 l 1
 377 561 l 1
 400 561 l 1
 405 562 l 2
 434 566 481 550 500 529 c 0
 515 513 522 491 522 462 c 0
 522 408 499 374 446 351 c 1
 523 246 l 1
 544 218 l 2
 553 205 564 198 575 195 c 1
 575 168 l 1
 471 168 l 1
 368 340 l 1
 335 340 l 1
 335 248 l 1
 336 221 l 2
 337 199 338 198 366 196 c 2
 371 195 l 1
 371 168 l 1
 211 168 l 1
335 367 m 1
 350 367 l 2
 408 367 438 397 438 456 c 0
 438 506 414 531 364 531 c 2
 335 531 l 1
 335 367 l 1
EndSplineSet
EndChar
StartChar: macron
Encoding: 349 175 293
Width: 333
Flags: MW
HStem: 627 75<-2 335 -2 335>
LayerCount: 2
Fore
SplineSet
-2 627 m 1
 -2 702 l 1
 335 702 l 1
 335 627 l 1x80
 -2 627 l 1
EndSplineSet
EndChar
StartChar: degree
Encoding: 176 176 258
Width: 400
Flags: MW
HStem: 452 54<174.5 225 174.5 240> 687 54<175 225.5>
VStem: 56 54<572 622.5 572 637.5> 291 54<571.5 622>
LayerCount: 2
Fore
SplineSet
201 741 m 0
 282 741 345 678 345 597 c 0
 345 515 281 452 199 452 c 0
 119 452 56 516 56 597 c 0
 56 678 119 741 201 741 c 0
200 687 m 0
 150 687 110 648 110 597 c 0
 110 547 150 506 199 506 c 0
 251 506 291 546 291 597 c 0
 291 647 251 687 200 687 c 0
EndSplineSet
EndChar
StartChar: plusminus
Encoding: 177 177 273
Width: 570
Flags: MW
HStem: 0 72<44 526 44 526> 325 72<44 249 44 249 322 526>
VStem: 249 73<145 325 145 325 397 578>
LayerCount: 2
Fore
SplineSet
44 0 m 1
 44 72 l 1
 526 72 l 1
 526 0 l 1
 44 0 l 1
249 145 m 1
 249 325 l 1
 44 325 l 1
 44 397 l 1
 249 397 l 1
 249 578 l 1
 322 578 l 1
 322 397 l 1
 526 397 l 1
 526 325 l 1
 322 325 l 1
 322 145 l 1
 249 145 l 1
EndSplineSet
EndChar
StartChar: twosuperior
Encoding: 178 178 220
Width: 300
Flags: MW
HStem: 289 78<14 285 91 285 91 285> 699 35<124 148>
VStem: 190 96<593.5 644.5>
LayerCount: 2
Fore
SplineSet
14 289 m 1
 14 347 l 1
 27 383 57 422 102 463 c 2
 124 484 l 2
 170 526 190 568 190 618 c 0
 190 671 168 699 128 699 c 0
 109 699 90 692 63 677 c 1
 63 632 l 1
 21 632 l 1
 21 712 l 1
 63 727 103 734 145 734 c 0
 232 734 286 689 286 617 c 0
 286 570 262 533 204 493 c 0
 201 491 198 488 194 486 c 2
 187 481 l 2
 182 478 179 475 178 474 c 2
 176 473 l 1
 154 458 l 2
 115 429 93 397 91 367 c 1
 285 367 l 1
 285 289 l 1
 14 289 l 1
EndSplineSet
EndChar
StartChar: threesuperior
Encoding: 179 179 221
Width: 300
Flags: W
HStem: 279 34<107.5 140 107.5 176> 700 34<116 133>
VStem: 173 97<603.5 647> 186 98<372 434.5>
LayerCount: 2
Fore
SplineSet
17 295 m 1xd0
 17 371 l 1
 57 371 l 1
 57 366 l 2
 60 341 62 336 72 326 c 0
 82 318 98 313 117 313 c 0
 163 313 186 343 186 401 c 0xd0
 186 468 150 501 77 501 c 2
 52 501 l 1
 52 535 l 1
 78 535 l 2
 142 535 173 563 173 621 c 0
 173 673 153 700 113 700 c 0
 78 700 64 685 61 645 c 1
 60 640 l 1
 20 640 l 1
 20 713 l 1
 57 727 94 734 138 734 c 0
 225 734 270 699 270 632 c 0xe0
 270 575 239 543 164 522 c 1
 248 507 284 471 284 404 c 0
 284 325 226 279 126 279 c 0
 82 279 47 284 17 295 c 1xd0
EndSplineSet
EndChar
StartChar: acute
Encoding: 180 180 284
Width: 333
Flags: W
LayerCount: 2
Fore
SplineSet
35 626 m 1
 152 783 l 1
 299 783 l 1
 99 626 l 1
 35 626 l 1
EndSplineSet
EndChar
StartChar: mu
Encoding: 181 181 308
Width: 556
Flags: W
HStem: -9 85<237.5 262.5> 0 20 516 20<6 204 204 204 346 491 491 491>
VStem: 59 145<-168 0 135 173 173 394 394 394> 346 145<0 536 89 536 143 536 142 536>
LayerCount: 2
Fore
SplineSet
59 -168 m 1x58
 59 394 l 1
 58 443 l 2
 57 482 53 487 15 490 c 2
 6 491 l 1
 6 536 l 1
 204 536 l 1
 204 173 l 2
 204 97 216 76 259 76 c 0xb8
 294 76 319 96 346 143 c 1
 346 536 l 1
 491 536 l 1
 491 142 l 1
 492 93 l 2
 492 54 497 49 535 46 c 2
 544 45 l 1
 544 0 l 1
 346 0 l 1x78
 346 89 l 1
 301 6 285 -9 240 -9 c 0x98
 228 -9 218 -7 204 0 c 1
 204 -168 l 1
 59 -168 l 1x58
EndSplineSet
EndChar
StartChar: paragraph
Encoding: 182 182 265
Width: 540
Flags: W
HStem: 663 60<334 399 281 444> 707 20<194 199 199 199>
VStem: 239 42<-144 362 362 362> 399 45<-144 663 663 663>
LayerCount: 2
Fore
SplineSet
239 -144 m 1xb0
 239 362 l 1
 110 375 39 447 39 565 c 0
 39 670 94 727 194 727 c 2
 199 727 l 1x70
 239 726 l 1
 284 724 l 1
 334 723 l 1
 444 723 l 1
 444 -144 l 1
 399 -144 l 1
 399 663 l 1
 281 663 l 1
 281 -144 l 1
 239 -144 l 1xb0
EndSplineSet
EndChar
StartChar: periodcentered
Encoding: 340 183 224
Width: 250
Flags: MW
HStem: 229 145<53 198 53 198>
VStem: 53 145<229 374 229 374>
LayerCount: 2
Fore
SplineSet
53 229 m 1
 53 374 l 1
 198 374 l 1
 198 229 l 1
 53 229 l 1
EndSplineSet
EndChar
StartChar: cedilla
Encoding: 184 184 291
Width: 333
Flags: MW
HStem: -211 43<137 139 117.5 188> 0 20
VStem: 169 97<-145 -119.5>
LayerCount: 2
Fore
SplineSet
68 -199 m 1
 68 -157 l 1
 93 -165 110 -168 125 -168 c 0
 153 -168 169 -156 169 -134 c 0
 169 -105 142 -92 81 -91 c 1
 127 0 l 1
 180 0 l 1
 152 -56 l 1
 232 -61 266 -84 266 -135 c 0
 266 -185 226 -211 150 -211 c 0xe0
 124 -211 100 -207 68 -199 c 1
EndSplineSet
EndChar
StartChar: onesuperior
Encoding: 185 185 219
Width: 300
Flags: MW
HStem: 714 20<204 204>
VStem: 114 90<381 603 603 626.5>
LayerCount: 2
Fore
SplineSet
60 289 m 1
 60 325 l 1
 65 325 l 1
 71 326 l 1
 76 326 l 1
 79 326 l 2
 81 326 81 326 82 327 c 2
 85 326 l 1
 111 330 114 336 114 381 c 2
 114 603 l 2
 114 650 110 658 88 658 c 0
 82 658 68 657 60 656 c 1
 60 691 l 1
 204 734 l 1
 204 381 l 2
 204 334 209 326 235 326 c 2
 236 326 l 2
 238 326 246 326 254 325 c 2
 258 325 l 1
 258 289 l 1
 60 289 l 1
EndSplineSet
EndChar
StartChar: ordmasculine
Encoding: 186 186 272
Width: 330
Flags: MW
HStem: 402 40<148.5 184 148.5 213.5> 702 39<147.5 182.5>
VStem: 16 96<529.5 615.5 529.5 628.5> 218 96<529.5 615.5>
LayerCount: 2
Fore
SplineSet
165 741 m 0
 264 741 314 685 314 572 c 0
 314 459 263 402 164 402 c 0
 70 402 16 465 16 573 c 0
 16 684 66 741 165 741 c 0
165 702 m 0
 130 702 112 658 112 573 c 0
 112 486 130 442 167 442 c 0
 201 442 218 486 218 573 c 0
 218 658 200 702 165 702 c 0
EndSplineSet
EndChar
StartChar: guillemotright
Encoding: 187 187 236
Width: 500
Flags: W
LayerCount: 2
Fore
SplineSet
241 452 m 1
 277 482 l 1
 495 268 l 1
 278 54 l 1
 241 84 l 1
 348 268 l 1
 241 452 l 1
12 452 m 1
 49 480 l 1
 266 268 l 1
 50 59 l 1
 12 86 l 1
 119 268 l 1
 12 452 l 1
EndSplineSet
EndChar
StartChar: onequarter
Encoding: 188 188 275
Width: 750
Flags: W
HStem: -18 20 0 20 116 72<456 563 456 563 406 563 653 701> 721 20<625 685 685 685>
VStem: 102 90<381 603 603 626.5> 563 90<89 116 65 116 188 360 360 360>
LayerCount: 2
Fore
SplineSet
48 289 m 1xbc
 48 325 l 1
 53 325 53 325 59 326 c 2
 65 326 l 1
 68 326 l 2
 69 327 70 327 70 327 c 1
 73 326 l 1
 99 330 102 336 102 381 c 2
 102 603 l 2
 102 650 98 658 76 658 c 0
 70 658 56 657 48 656 c 1
 48 691 l 1
 192 734 l 1
 192 381 l 2
 192 334 197 326 223 326 c 2
 224 326 l 2
 226 326 234 326 242 325 c 2
 246 325 l 1
 246 289 l 1
 48 289 l 1xbc
84 -18 m 1
 625 741 l 1
 685 741 l 1
 144 -18 l 1
 84 -18 l 1
563 116 m 1
 406 116 l 1
 406 177 l 1
 569 439 l 1
 653 439 l 1
 653 188 l 1
 701 188 l 1
 701 116 l 1
 653 116 l 1
 653 89 l 2
 653 41 656 36 689 34 c 2
 695 34 l 1
 695 0 l 1
 521 0 l 1x6c
 521 34 l 1
 526 34 l 2
 560 36 563 41 563 89 c 2
 563 116 l 1
456 188 m 1
 563 188 l 1
 563 360 l 1
 456 188 l 1
EndSplineSet
EndChar
StartChar: onehalf
Encoding: 189 189 274
Width: 750
Flags: W
HStem: -18 20 0 34<540 576 533 612> 422 34<552.5 570> 721 20<586 646 646 646>
VStem: 78 90<381 603 603 626.5> 610 96<325 368.5> 622 98<93 155.5>
LayerCount: 2
Fore
SplineSet
24 289 m 1x9a
 24 325 l 1
 29 325 l 1
 35 326 l 1
 40 326 l 1
 43 326 l 2
 45 326 45 326 46 327 c 2
 49 326 l 1
 75 330 78 336 78 381 c 2
 78 603 l 2
 78 650 74 658 52 658 c 0
 46 658 32 657 24 656 c 1
 24 691 l 1
 168 734 l 1
 168 381 l 2
 168 334 173 326 199 326 c 2
 200 326 l 2
 202 326 210 326 218 325 c 2
 222 325 l 1
 222 289 l 1
 24 289 l 1x9a
45 -18 m 1
 586 741 l 1
 646 741 l 1
 106 -18 l 1
 45 -18 l 1
453 17 m 1x6a
 453 92 l 1
 493 92 l 1
 493 87 l 2
 493 52 513 34 553 34 c 0
 599 34 622 64 622 122 c 0x62
 622 189 586 222 512 222 c 2
 488 222 l 1
 488 256 l 1
 514 256 l 2
 579 256 610 284 610 342 c 0
 610 395 590 422 550 422 c 0
 515 422 496 403 496 367 c 2
 496 361 l 1
 456 361 l 1
 456 435 l 1
 494 450 530 456 575 456 c 0
 661 456 706 421 706 353 c 0x64
 706 297 675 264 600 244 c 1
 684 228 720 192 720 125 c 0
 720 46 662 0 562 0 c 0
 518 0 483 5 453 17 c 1x6a
EndSplineSet
EndChar
StartChar: threequarters
Encoding: 190 190 276
Width: 750
Flags: W
HStem: -18 20 0 20 116 72<463 570 463 570 413 570 660 708> 279 34<128.5 165 122 201> 700 34<141 159> 721 20<643 704 704 704>
VStem: 199 96<603.5 647> 211 98<372 434.5> 570 90<89 116 65 116 188 360 360 360>
LayerCount: 2
Fore
SplineSet
42 295 m 1x99
 42 371 l 1
 82 371 l 1
 82 366 l 2
 82 331 102 313 142 313 c 0
 188 313 211 343 211 401 c 0x9980
 211 468 175 501 101 501 c 2
 77 501 l 1
 77 535 l 1
 103 535 l 2
 168 535 199 563 199 621 c 0
 199 673 179 700 139 700 c 0
 104 700 85 681 85 645 c 2
 85 640 l 1
 45 640 l 1
 45 713 l 1
 81 727 119 734 163 734 c 0
 250 734 295 699 295 632 c 0x9a
 295 575 264 543 189 522 c 1
 273 507 309 471 309 404 c 0
 309 325 251 279 151 279 c 0
 106 279 70 284 42 295 c 1x99
103 -18 m 1
 643 741 l 1
 704 741 l 1xa580
 163 -18 l 1
 103 -18 l 1
570 116 m 1
 413 116 l 1
 413 177 l 1
 577 439 l 1
 660 439 l 1
 660 188 l 1
 708 188 l 1
 708 116 l 1
 660 116 l 1
 660 89 l 2
 660 41 663 36 696 34 c 2
 701 34 l 1
 701 0 l 1
 529 0 l 1x6180
 529 34 l 1
 534 34 l 2
 567 36 570 41 570 89 c 2
 570 116 l 1
463 188 m 1
 570 188 l 1
 570 360 l 1
 463 188 l 1
EndSplineSet
EndChar
StartChar: questiondown
Encoding: 191 191 235
Width: 500
Flags: MW
HStem: -205 45<267 309> 415 121<219 364 219 364>
VStem: 28 152<-56 -18.5> 219 145<415 536 415 536>
LayerCount: 2
Fore
SplineSet
364 536 m 1
 364 415 l 1
 219 415 l 1
 219 536 l 1
 364 536 l 1
363 332 m 1
 363 324 l 2
 363 270 339 223 288 179 c 2
 258 152 l 2
 205 106 180 53 180 -11 c 0
 180 -101 229 -160 305 -160 c 0
 362 -160 400 -131 401 -86 c 2
 401 -48 l 1
 402 -39 l 1
 468 -39 l 1
 468 -173 l 1
 404 -195 343 -205 275 -205 c 0
 125 -205 28 -141 28 -44 c 0
 28 7 52 45 113 90 c 2
 132 105 l 2
 136 107 139 110 142 112 c 0
 146 115 149 118 150 118 c 2
 172 137 l 2
 202 165 215 202 217 266 c 2
 218 322 l 1
 218 332 l 1
 363 332 l 1
EndSplineSet
EndChar
StartChar: Agrave
Encoding: 192 192 2
Width: 722
Flags: MW
HStem: 0 20 220 48<203 430 203 450 182 430>
LayerCount: 2
Fore
SplineSet
0 0 m 1
 0 45 l 1
 9 46 l 2
 35 48 55 63 68 93 c 2
 90 143 l 1
 338 729 l 1
 388 729 l 1
 637 142 l 2
 663 82 685 49 703 47 c 2
 716 46 l 1
 722 45 l 1
 722 0 l 1
 463 0 l 1
 463 45 l 1
 473 46 l 1
 489 47 l 2
 503 48 511 54 511 63 c 0
 511 71 507 82 497 109 c 2
 483 143 l 1
 450 220 l 1
 182 220 l 1
 149 142 l 2
 131 100 122 75 122 65 c 0
 122 54 130 48 147 47 c 2
 160 46 l 1
 168 45 l 1
 168 0 l 1
 0 0 l 1
203 268 m 1
 430 268 l 1
 316 536 l 1
 203 268 l 1
453 783 m 1
 388 783 l 1
 189 940 l 1
 335 940 l 1
 453 783 l 1
EndSplineSet
EndChar
StartChar: Aacute
Encoding: 193 193 1
Width: 722
Flags: MW
HStem: 0 20 220 48<203 430 203 450 182 430>
LayerCount: 2
Fore
SplineSet
0 0 m 1
 0 45 l 1
 9 46 l 2
 35 48 55 63 68 93 c 2
 90 143 l 1
 338 729 l 1
 388 729 l 1
 637 142 l 2
 663 82 685 49 703 47 c 2
 716 46 l 1
 722 45 l 1
 722 0 l 1
 463 0 l 1
 463 45 l 1
 473 46 l 1
 489 47 l 2
 503 48 511 54 511 63 c 0
 511 71 507 82 497 109 c 2
 483 143 l 1
 450 220 l 1
 182 220 l 1
 149 142 l 2
 131 100 122 75 122 65 c 0
 122 54 130 48 147 47 c 2
 160 46 l 1
 168 45 l 1
 168 0 l 1
 0 0 l 1
203 268 m 1
 430 268 l 1
 316 536 l 1
 203 268 l 1
273 783 m 1
 390 940 l 1
 537 940 l 1
 337 783 l 1
 273 783 l 1
EndSplineSet
EndChar
StartChar: Atilde
Encoding: 195 195 5
Width: 722
Flags: W
HStem: 0 20 220 48<203 430 203 450 182 430> 783 79<440 460 440 466.5> 834 79<266 286.5>
LayerCount: 2
Fore
SplineSet
0 0 m 1xd0
 0 45 l 1
 9 46 l 2
 35 48 55 63 68 93 c 2
 90 143 l 1
 338 729 l 1
 388 729 l 1
 637 142 l 2
 663 82 685 49 703 47 c 2
 716 46 l 1
 722 45 l 1
 722 0 l 1
 463 0 l 1
 463 45 l 1
 473 46 l 1
 489 47 l 2
 503 48 511 54 511 63 c 0
 511 71 507 82 497 109 c 2
 483 143 l 1
 450 220 l 1
 182 220 l 1
 149 142 l 2
 131 100 122 75 122 65 c 0
 122 54 130 48 147 47 c 2
 160 46 l 1
 168 45 l 1
 168 0 l 1
 0 0 l 1xd0
203 268 m 1
 430 268 l 1
 316 536 l 1
 203 268 l 1
238 783 m 1
 193 783 l 1
 194 864 230 913 289 913 c 0x10
 310 913 333 907 355 896 c 2
 392 879 l 2
 414 868 434 862 446 862 c 0
 474 862 487 878 488 913 c 1
 533 913 l 1
 532 831 496 783 437 783 c 0x20
 416 783 395 788 371 800 c 2
 334 817 l 2
 309 829 293 834 280 834 c 0
 252 834 239 818 238 783 c 1
EndSplineSet
EndChar
StartChar: Aring
Encoding: 197 197 6
Width: 722
Flags: MW
HStem: 0 20 220 48<203 430 203 450 182 430> 730 45<343 382 343 394.5> 914 45<343.5 382.5>
VStem: 248 45<825.5 864.5 825.5 876> 433 45<825.5 864>
LayerCount: 2
Fore
SplineSet
0 0 m 1
 0 45 l 1
 9 46 l 2
 35 48 55 63 68 93 c 2
 90 143 l 1
 338 729 l 1
 388 729 l 1
 637 142 l 2
 663 82 685 49 703 47 c 2
 716 46 l 1
 722 45 l 1
 722 0 l 1
 463 0 l 1
 463 45 l 1
 473 46 l 1
 489 47 l 2
 503 48 511 54 511 63 c 0
 511 71 507 82 497 109 c 2
 483 143 l 1
 450 220 l 1
 182 220 l 1
 149 142 l 2
 131 100 122 75 122 65 c 0
 122 54 130 48 147 47 c 2
 160 46 l 1
 168 45 l 1
 168 0 l 1
 0 0 l 1
203 268 m 1
 430 268 l 1
 316 536 l 1
 203 268 l 1
363 959 m 0
 427 959 478 909 478 845 c 0
 478 780 427 730 362 730 c 0
 299 730 248 781 248 844 c 0
 248 908 299 959 363 959 c 0
363 914 m 0
 324 914 293 884 293 845 c 0
 293 806 324 775 362 775 c 0
 402 775 433 806 433 845 c 0
 433 883 402 914 363 914 c 0
EndSplineSet
EndChar
StartChar: AE
Encoding: 198 198 159
Width: 1000
Flags: W
HStem: 0 51<694 792 694 971> 0 136<887 971 887 971> 214 45<231 455 231 455 199 455> 358 42<600 738 600 739 600 738> 594 129<866 950 866 866> 675 48<600 793 600 600>
VStem: 455 145<142 214 214 214 259 358 400 623 623 623>
LayerCount: 2
Fore
SplineSet
0 0 m 1xa2
 0 45 l 1
 9 46 l 2
 31 47 49 61 66 90 c 2
 96 139 l 1
 455 723 l 1
 950 723 l 1xa6
 950 594 l 1
 866 594 l 1x0a
 865 603 l 1
 865 616 l 1
 864 625 l 1
 864 629 l 1
 864 632 l 1
 864 633 l 2
 863 666 859 671 826 673 c 2
 793 675 l 1
 600 675 l 1
 600 400 l 1
 738 400 l 1
 786 401 l 2
 807 401 811 403 812 416 c 2
 813 422 l 1
 813 425 l 1
 812 427 l 2
 813 428 813 428 813 430 c 2
 813 439 l 1
 814 449 l 1
 815 458 l 1
 878 458 l 1
 878 301 l 1
 815 301 l 1
 814 310 l 1
 813 328 l 1
 813 329 l 2
 813 347 805 355 784 356 c 2
 739 358 l 1
 600 358 l 1
 600 142 l 1
 603 99 l 2
 606 56 610 53 654 52 c 2
 694 51 l 1
 792 51 l 1x96
 847 52 l 2
 870 53 882 61 884 80 c 2
 886 127 l 1
 887 136 l 1
 971 136 l 1x42
 971 0 l 1
 377 0 l 1
 377 45 l 1
 386 46 l 2
 449 50 452 52 453 93 c 2
 455 142 l 1
 455 214 l 1
 199 214 l 1
 153 139 l 2
 128 99 113 71 113 62 c 0
 113 52 121 48 144 47 c 2
 165 46 l 1
 175 46 l 1
 175 0 l 1
 0 0 l 1xa2
231 259 m 1
 455 259 l 1
 455 623 l 1
 231 259 l 1
EndSplineSet
EndChar
StartChar: Ccedilla
Encoding: 199 199 8
Width: 722
Flags: W
HStem: -211 43<389 391 369.5 440.5> -18 61<374 478> 0 20 693 48<387 466.5 301 478.5>
VStem: 36 160<259 414.5 259 484.5> 421 97<-145 -119.5> 667 13
LayerCount: 2
Fore
SplineSet
680 96 m 1xde
 680 28 l 1
 595 -5 523 -18 433 -18 c 0
 179 -18 36 119 36 362 c 0
 36 607 174 741 428 741 c 0
 505 741 578 731 667 709 c 1
 667 560 l 1
 583 560 l 1
 583 569 l 1
 581 598 l 2
 578 659 525 693 432 693 c 0
 342 693 281 661 244 595 c 0
 212 540 196 462 196 367 c 0
 196 151 285 43 463 43 c 0
 530 43 592 58 680 96 c 1xde
321 -199 m 1
 321 -157 l 1
 345 -165 362 -168 377 -168 c 0
 405 -168 421 -156 421 -134 c 0
 421 -105 395 -92 334 -91 c 1
 379 0 l 1
 432 0 l 1xae
 405 -56 l 1
 484 -61 518 -84 518 -135 c 0
 518 -185 479 -211 402 -211 c 0
 376 -211 353 -208 321 -199 c 1
EndSplineSet
EndChar
StartChar: Iacute
Encoding: 205 205 21
Width: 389
Flags: MW
HStem: 0 20 703 20<41 348 348 348>
VStem: 119 151<142 582 142 582>
LayerCount: 2
Fore
SplineSet
41 0 m 1
 41 45 l 1
 50 46 l 2
 113 50 116 53 117 93 c 2
 119 142 l 1
 119 582 l 1
 117 630 l 2
 115 671 114 672 50 678 c 1
 41 678 l 1
 41 723 l 1
 348 723 l 1
 348 678 l 1
 339 678 l 1
 275 672 273 671 272 630 c 2
 270 582 l 1
 270 142 l 1
 272 93 l 2
 274 52 276 51 339 46 c 2
 348 45 l 1
 348 0 l 1
 41 0 l 1
84 783 m 1
 202 940 l 1
 348 940 l 1
 149 783 l 1
 84 783 l 1
EndSplineSet
EndChar
StartChar: Idieresis
Encoding: 207 207 20
Width: 389
Flags: W
HStem: 0 20 703 20<41 348 348 348> 783 103<44 147 44 147 242 345 44 242>
VStem: 44 103<783 886 783 886> 119 151<142 582 142 582> 242 103<783 886 783 886>
LayerCount: 2
Fore
SplineSet
41 0 m 1xe8
 41 45 l 1
 50 46 l 2
 113 50 116 53 117 93 c 2
 119 142 l 1
 119 582 l 1
 117 630 l 2
 115 671 114 672 50 678 c 1
 41 678 l 1
 41 723 l 1
 348 723 l 1
 348 678 l 1
 339 678 l 1
 275 672 273 671 272 630 c 2
 270 582 l 1
 270 142 l 1
 272 93 l 2
 274 52 276 51 339 46 c 2
 348 45 l 1
 348 0 l 1
 41 0 l 1xe8
44 783 m 1xf4
 44 886 l 1
 147 886 l 1
 147 783 l 1
 44 783 l 1xf4
242 783 m 1
 242 886 l 1
 345 886 l 1
 345 783 l 1
 242 783 l 1
EndSplineSet
EndChar
StartChar: Eth
Encoding: 208 208 162
Width: 722
Flags: W
HStem: 0 20 344 48<224 369> 703 20<21 233 233 269 269 269> 705 20<350 355 355 457.5>
LayerCount: 2
Fore
SplineSet
224 344 m 1xd0
 224 142 l 2
 224 101 234 68 248 61 c 0
 261 56 289 52 323 52 c 0
 452 52 526 169 526 372 c 0
 526 585 445 675 255 675 c 2
 224 675 l 1
 224 392 l 1
 369 392 l 1
 369 344 l 1
 224 344 l 1xd0
21 0 m 1
 21 45 l 1
 30 46 l 2
 68 49 73 54 73 93 c 2
 74 142 l 1
 74 343 l 1
 21 343 l 1
 21 392 l 1
 74 392 l 1
 74 582 l 1
 73 630 l 2
 73 669 68 674 30 678 c 1
 21 678 l 1
 21 723 l 1
 233 723 l 1
 269 723 l 1xe0
 313 724 l 1
 350 725 l 1
 355 725 l 2
 560 725 686 592 686 376 c 0
 686 146 553 0 344 0 c 2
 21 0 l 1
EndSplineSet
EndChar
StartChar: Ntilde
Encoding: 209 209 29
Width: 722
Flags: W
HStem: -10 20 0 20 703 20<21 209 209 209 457 685 685 685> 783 79<435 455 435 461.5> 834 79<261.5 281.5>
VStem: 99 72<142 528 142 582 142 582> 535 72<186 582 -10 582>
LayerCount: 2
Fore
SplineSet
21 0 m 1x46
 21 45 l 1
 30 46 l 2
 93 50 96 53 97 93 c 2
 99 142 l 1
 99 582 l 1
 97 630 l 2
 95 671 94 672 30 678 c 1
 21 678 l 1
 21 723 l 1
 209 723 l 1
 535 186 l 1
 535 582 l 1
 533 630 l 2
 531 671 531 672 466 678 c 1
 457 678 l 1
 457 723 l 1
 685 723 l 1
 685 678 l 1
 676 678 l 1
 612 672 610 671 609 630 c 2
 607 582 l 1
 607 -10 l 1
 500 -10 l 1xa6
 171 528 l 1
 171 142 l 1
 173 93 l 2
 175 52 177 51 240 46 c 2
 249 45 l 1
 249 0 l 1
 21 0 l 1x46
233 783 m 1x4e
 188 783 l 1
 189 864 226 913 284 913 c 0x0e
 305 913 329 907 351 896 c 2
 387 879 l 2
 408 868 429 862 441 862 c 0
 469 862 482 878 483 913 c 1
 528 913 l 1
 527 831 491 783 432 783 c 0x16
 411 783 390 788 366 800 c 2
 330 817 l 2
 304 829 288 834 275 834 c 0
 248 834 234 818 233 783 c 1x4e
EndSplineSet
EndChar
StartChar: Ograve
Encoding: 210 210 32
Width: 778
Flags: MW
HStem: -18 48<327 452 327 495> 693 48<327.5 451>
VStem: 36 160<255 467 255 478> 582 160<252.5 467>
LayerCount: 2
Fore
SplineSet
389 741 m 0
 605 741 742 594 742 363 c 0
 742 127 606 -18 384 -18 c 0
 173 -18 36 132 36 362 c 0
 36 594 173 741 389 741 c 0
389 693 m 0
 266 693 196 573 196 361 c 0
 196 149 265 30 389 30 c 0
 515 30 582 144 582 361 c 0
 582 573 513 693 389 693 c 0
453 783 m 1
 389 783 l 1
 190 940 l 1
 336 940 l 1
 453 783 l 1
EndSplineSet
EndChar
StartChar: Otilde
Encoding: 213 213 34
Width: 778
Flags: W
HStem: -18 48<327 452 327 495> 693 48<327.5 451> 783 79<465.5 486 465.5 492.5> 834 79<292 312>
VStem: 36 160<255 467 255 478> 582 160<252.5 467>
LayerCount: 2
Fore
SplineSet
389 741 m 0xdc
 605 741 742 594 742 363 c 0
 742 127 606 -18 384 -18 c 0
 173 -18 36 132 36 362 c 0
 36 594 173 741 389 741 c 0xdc
389 693 m 0
 266 693 196 573 196 361 c 0
 196 149 265 30 389 30 c 0
 515 30 582 144 582 361 c 0
 582 573 513 693 389 693 c 0
264 783 m 1
 219 783 l 1
 220 864 256 913 315 913 c 0x1c
 336 913 359 907 381 896 c 2
 417 879 l 2
 440 868 459 862 472 862 c 0
 500 862 513 878 514 913 c 1
 559 913 l 1
 557 831 522 783 463 783 c 0x2c
 442 783 421 788 396 800 c 2
 360 817 l 2
 335 829 318 834 306 834 c 0
 278 834 265 818 264 783 c 1
EndSplineSet
EndChar
StartChar: Odieresis
Encoding: 214 214 30
Width: 778
Flags: MW
HStem: -18 48<327 452 327 495> 693 48<327.5 451> 783 103<238 341 238 341 436 539 238 436>
VStem: 36 160<255 467 255 478> 238 103<783 886 783 886> 436 103<783 886 783 886> 582 160<252.5 467>
LayerCount: 2
Fore
SplineSet
389 741 m 0
 605 741 742 594 742 363 c 0
 742 127 606 -18 384 -18 c 0
 173 -18 36 132 36 362 c 0
 36 594 173 741 389 741 c 0
389 693 m 0
 266 693 196 573 196 361 c 0
 196 149 265 30 389 30 c 0
 515 30 582 144 582 361 c 0
 582 573 513 693 389 693 c 0
238 783 m 1
 238 886 l 1
 341 886 l 1
 341 783 l 1
 238 783 l 1
436 783 m 1
 436 886 l 1
 539 886 l 1
 539 783 l 1
 436 783 l 1
EndSplineSet
EndChar
StartChar: multiply
Encoding: 215 215 261
Width: 570
Flags: MW
HStem: 516 20<102 102 468 468>
LayerCount: 2
Fore
SplineSet
51 119 m 1
 234 302 l 1
 51 485 l 1
 102 536 l 1
 285 353 l 1
 468 536 l 1
 520 485 l 1
 337 302 l 1
 520 119 l 1
 468 67 l 1
 285 250 l 1
 102 67 l 1
 51 119 l 1
EndSplineSet
EndChar
StartChar: Oslash
Encoding: 216 216 161
Width: 778
Flags: MW
HStem: -18 48<354 451 354 497.5> 693 48<327 424>
VStem: 36 160<331.5 467.5 331.5 478.5> 582 160<255 390.5>
LayerCount: 2
Fore
SplineSet
36 -18 m 1
 128 91 l 1
 63 174 36 255 36 364 c 0
 36 593 174 741 387 741 c 0
 477 741 545 719 615 666 c 1
 679 741 l 1
 742 741 l 1
 650 633 l 1
 715 550 742 469 742 360 c 0
 742 130 604 -18 391 -18 c 0
 303 -18 235 4 162 57 c 1
 99 -18 l 1
 36 -18 l 1
562 529 m 1
 234 142 l 1
 272 64 319 30 389 30 c 0
 513 30 582 149 582 361 c 0
 582 420 576 469 562 529 c 1
216 194 m 1
 543 582 l 1
 506 659 459 693 389 693 c 0
 265 693 196 574 196 361 c 0
 196 302 202 255 216 194 c 1
EndSplineSet
EndChar
StartChar: Uacute
Encoding: 218 218 43
Width: 722
Flags: MW
HStem: -18 47<335 450.5 335 461.5> 703 20<9 316 316 316 485 712 712 712>
VStem: 87 151<275 578 578 578> 563 72<273 285 285 582>
LayerCount: 2
Fore
SplineSet
9 675 m 1
 9 723 l 1
 316 723 l 1
 316 678 l 1
 307 678 l 1
 243 672 241 671 240 630 c 2
 238 582 l 1
 238 269 l 2
 238 93 279 29 391 29 c 0
 510 29 563 104 563 273 c 2
 563 582 l 1
 561 630 l 2
 559 671 559 672 494 678 c 1
 485 678 l 1
 485 723 l 1
 712 723 l 1
 712 678 l 1
 703 678 l 1
 641 672 639 671 638 630 c 2
 635 582 l 1
 635 285 l 2
 635 78 552 -18 371 -18 c 0
 182 -18 87 80 87 275 c 2
 87 578 l 1
 85 627 l 2
 83 667 79 670 18 675 c 1
 9 675 l 1
323 783 m 1
 441 940 l 1
 587 940 l 1
 388 783 l 1
 323 783 l 1
EndSplineSet
EndChar
StartChar: Yacute
Encoding: 221 221 48
Width: 722
Flags: MW
HStem: 0 20 703 20<1 315 315 315 522 721 721 721>
VStem: 284 150<142 313 313 313>
LayerCount: 2
Fore
SplineSet
205 0 m 1
 205 45 l 1
 215 46 l 2
 278 50 281 53 282 93 c 2
 284 142 l 1
 284 313 l 1
 120 577 l 2
 98 612 87 631 85 634 c 0
 71 661 55 675 37 676 c 2
 11 678 l 1
 1 678 l 1
 1 723 l 1
 315 723 l 1
 315 678 l 1
 307 678 l 1
 283 678 l 2
 260 677 249 672 249 661 c 0
 249 650 261 626 291 577 c 2
 413 376 l 1
 538 577 l 2
 565 620 580 649 580 660 c 0
 580 672 564 678 533 678 c 2
 522 678 l 1
 522 723 l 1
 721 723 l 1
 721 678 l 1
 712 678 l 1
 691 676 l 2
 670 674 658 665 644 643 c 2
 602 577 l 1
 434 314 l 1
 434 142 l 1
 436 93 l 2
 438 52 440 51 503 46 c 2
 512 45 l 1
 512 0 l 1
 205 0 l 1
296 783 m 1
 414 940 l 1
 560 940 l 1
 361 783 l 1
 296 783 l 1
EndSplineSet
EndChar
StartChar: Thorn
Encoding: 222 222 165
Width: 614
Flags: MW
HStem: 0 20 703 20<21 323 323 323>
VStem: 99 145<150 150 199 531> 441 153<318 426 308.5 428.5>
LayerCount: 2
Fore
SplineSet
21 0 m 1
 21 45 l 1
 30 46 l 2
 93 50 96 53 97 93 c 2
 99 142 l 1
 99 582 l 1
 97 630 l 2
 95 671 94 672 30 678 c 1
 21 678 l 1
 21 723 l 1
 323 723 l 1
 323 678 l 1
 313 678 l 1
 254 672 249 665 244 578 c 1
 291 578 l 2
 401 578 467 570 502 553 c 0
 562 524 594 465 594 387 c 0
 594 230 492 150 291 150 c 2
 244 150 l 1
 245 93 l 2
 247 53 249 51 313 46 c 2
 323 45 l 1
 323 0 l 1
 21 0 l 1
244 199 m 1
 275 199 l 2
 385 199 441 259 441 377 c 0
 441 480 394 531 299 531 c 2
 244 531 l 1
 244 199 l 1
EndSplineSet
EndChar
StartChar: germandbls
Encoding: 223 223 195
Width: 556
Flags: W
HStem: -12 45<364 391 364 428> 0 20 738 46<240 287>
VStem: 62 139<142 544 544 583 142 625.5> 333 126<638 668> 436 114<106.5 121>
LayerCount: 2
Fore
SplineSet
15 0 m 1x78
 15 45 l 1
 24 46 l 2
 49 48 61 63 61 93 c 2
 62 142 l 1
 62 544 l 2
 62 707 130 784 273 784 c 0
 380 784 459 730 459 656 c 0xb8
 459 620 438 587 392 552 c 2
 371 535 l 2
 333 507 317 486 317 467 c 0
 317 452 327 434 347 415 c 0
 349 414 360 404 381 386 c 0
 384 384 395 374 396 373 c 2
 451 319 l 1
 494 279 l 2
 530 245 550 200 550 154 c 0
 550 59 477 -12 379 -12 c 0
 342 -12 309 -5 275 9 c 1
 275 127 l 1
 323 127 l 1
 324 118 l 2
 324 113 324 109 325 106 c 2
 325 97 l 2
 325 94 325 91 326 90 c 2
 326 89 l 1
 325 82 l 1
 329 65 333 55 335 51 c 0
 342 40 356 33 372 33 c 0
 410 33 436 62 436 105 c 0xa4
 436 137 418 169 378 211 c 2
 326 264 l 1
 274 309 l 2
 249 331 233 368 233 403 c 0
 233 436 249 469 287 509 c 2
 301 524 l 2
 322 547 333 583 333 633 c 0
 333 703 310 738 264 738 c 0
 216 738 201 700 201 583 c 2
 201 142 l 1
 202 93 l 2
 202 62 212 48 232 46 c 2
 242 45 l 1
 242 0 l 1
 15 0 l 1x78
EndSplineSet
EndChar
StartChar: atilde
Encoding: 227 227 71
Width: 500
Flags: W
HStem: -12 77<132.5 244.5> 503 45<221.5 258.5> 627 79<326 346 326 352.5> 678 79<152.5 172.5>
VStem: 26 145<129.5 198.5 129.5 200> 298 145<150 275 275 275 319 384 384 385 150 430.5>
LayerCount: 2
Fore
SplineSet
491 45 m 1
 491 -2 l 1
 468 -9 448 -12 431 -12 c 0
 381 -12 346 11 318 62 c 1
 273 10 232 -12 177 -12 c 0
 88 -12 26 51 26 141 c 0
 26 259 109 319 274 319 c 2
 298 319 l 1
 298 384 l 2
 298 477 284 503 233 503 c 0
 190 503 167 481 165 437 c 2
 163 406 l 1
 163 397 l 1
 73 397 l 1
 73 506 l 1
 138 536 190 548 253 548 c 0
 379 548 443 493 443 385 c 2
 443 150 l 1
 444 108 l 1
 445 79 l 2
 446 56 458 43 477 43 c 0
 480 43 484 44 489 45 c 2xcc
 491 45 l 1
298 98 m 1
 298 275 l 1
 279 275 l 2
 207 275 171 237 171 160 c 0
 171 99 194 65 235 65 c 0
 254 65 272 74 298 98 c 1
124 627 m 1
 79 627 l 1
 80 708 117 757 176 757 c 0x10
 196 757 218 751 242 740 c 2
 278 723 l 2
 299 712 320 706 332 706 c 0
 360 706 373 722 374 757 c 1
 419 757 l 1
 418 675 382 627 323 627 c 0x20
 302 627 280 633 257 643 c 2
 221 660 l 2
 193 674 179 678 166 678 c 0x10
 139 678 125 662 124 627 c 1
EndSplineSet
EndChar
StartChar: adieresis
Encoding: 228 228 66
Width: 500
Flags: MW
HStem: -12 77<132.5 244.5> 503 45<221.5 258.5> 626 103<100 203 100 203 298 401 100 298>
VStem: 26 103 26 145<129.5 198.5 129.5 200> 224 103 298 145<150 275 275 275 319 384 384 385 150 430.5>
LayerCount: 2
Fore
SplineSet
491 45 m 1
 491 -2 l 1
 468 -9 448 -12 431 -12 c 0
 381 -12 346 11 318 62 c 1
 273 10 232 -12 177 -12 c 0
 88 -12 26 51 26 141 c 0
 26 259 109 319 274 319 c 2
 298 319 l 1
 298 384 l 2
 298 477 284 503 233 503 c 0
 190 503 167 481 165 437 c 2
 163 406 l 1
 163 397 l 1
 73 397 l 1
 73 506 l 1
 138 536 190 548 253 548 c 0
 379 548 443 493 443 385 c 2
 443 150 l 1
 444 108 l 1
 445 79 l 2
 446 56 458 43 477 43 c 0
 480 43 484 44 489 45 c 2xca
 491 45 l 1
298 98 m 1
 298 275 l 1
 279 275 l 2
 207 275 171 237 171 160 c 0
 171 99 194 65 235 65 c 0
 254 65 272 74 298 98 c 1
100 626 m 1
 100 729 l 1
 203 729 l 1
 203 626 l 1x34
 100 626 l 1
298 626 m 1
 298 729 l 1
 401 729 l 1
 401 626 l 1
 298 626 l 1
EndSplineSet
EndChar
StartChar: aring
Encoding: 229 229 72
Width: 500
Flags: MW
HStem: -12 77<132.5 244.5> 503 45<221.5 258.5> 626 45<224 262.5 224 275> 811 45<223.5 262.5>
VStem: 26 45 26 145<129.5 198.5 129.5 200> 210 45 298 145<150 275 275 275 319 384 384 385 150 430.5>
LayerCount: 2
Fore
SplineSet
491 45 m 1
 491 -2 l 1
 468 -9 448 -12 431 -12 c 0
 381 -12 346 11 318 62 c 1
 273 10 232 -12 177 -12 c 0
 88 -12 26 51 26 141 c 0
 26 259 109 319 274 319 c 2
 298 319 l 1
 298 384 l 2
 298 477 284 503 233 503 c 0
 190 503 167 481 165 437 c 2
 163 406 l 1
 163 397 l 1
 73 397 l 1
 73 506 l 1
 138 536 190 548 253 548 c 0
 379 548 443 493 443 385 c 2
 443 150 l 1
 444 108 l 1
 445 79 l 2
 446 56 458 43 477 43 c 0
 480 43 484 44 489 45 c 2xc5
 491 45 l 1
298 98 m 1
 298 275 l 1
 279 275 l 2
 207 275 171 237 171 160 c 0
 171 99 194 65 235 65 c 0
 254 65 272 74 298 98 c 1
243 856 m 0
 307 856 358 805 358 741 c 0
 358 676 308 626 242 626 c 0
 180 626 129 677 129 741 c 0x3a
 129 805 179 856 243 856 c 0
243 811 m 0
 204 811 174 780 174 741 c 0
 174 702 205 671 243 671 c 0
 282 671 313 702 313 741 c 0
 313 780 282 811 243 811 c 0
EndSplineSet
EndChar
StartChar: ae
Encoding: 230 230 192
Width: 722
Flags: W
HStem: -12 73<526 559.5> -12 77<132.5 244.5> 264 45<447 549 447 691 443 549> 503 45<221.5 259.5 491 519.5>
VStem: 26 145<129.5 199 129.5 201>
LayerCount: 2
Fore
SplineSet
73 397 m 1x58
 73 506 l 1
 137 535 191 548 252 548 c 0
 311 548 353 536 392 509 c 1
 430 536 467 548 515 548 c 0
 639 548 691 467 691 275 c 2
 691 264 l 1
 443 264 l 1
 446 122 484 61 568 61 c 0
 606 61 644 71 691 95 c 1
 691 21 l 1
 633 -3 587 -12 532 -12 c 0xb8
 442 -12 396 11 337 88 c 1
 287 18 240 -12 177 -12 c 0
 88 -12 26 51 26 142 c 0
 26 260 109 320 275 320 c 2
 299 320 l 1
 299 384 l 2
 299 477 285 503 234 503 c 0
 190 503 167 481 165 437 c 2
 164 406 l 1
 163 397 l 1
 73 397 l 1x58
299 276 m 1x78
 280 276 l 2
 207 276 171 238 171 160 c 0
 171 99 194 65 235 65 c 0
 254 65 272 74 299 98 c 1
 299 276 l 1x78
447 309 m 1
 549 309 l 1
 549 328 l 1
 549 338 l 2
 549 448 534 503 505 503 c 0
 466 503 448 443 447 309 c 1
EndSplineSet
EndChar
StartChar: ccedilla
Encoding: 231 231 76
Width: 444
Flags: MW
HStem: -211 43<240 242 220.5 291> -12 71<258.5 292.5> 0 20 503 45<237 283.5>
VStem: 21 153<202.5 350 202.5 353> 122 97
LayerCount: 2
Fore
SplineSet
409 86 m 1
 409 13 l 1
 355 -4 313 -12 272 -12 c 0
 114 -12 21 91 21 265 c 0
 21 441 116 548 272 548 c 0
 317 548 359 541 408 524 c 1
 408 386 l 1
 326 386 l 1
 326 395 l 1
 324 431 l 2
 322 476 300 503 267 503 c 0
 207 503 174 423 174 277 c 0
 174 128 215 59 302 59 c 0x58
 334 59 370 68 409 86 c 1
171 -199 m 1
 171 -157 l 1
 196 -165 213 -168 228 -168 c 0
 256 -168 272 -156 272 -134 c 0
 272 -105 245 -92 184 -91 c 1
 230 0 l 1
 283 0 l 1
 255 -56 l 1
 335 -61 369 -84 369 -135 c 0
 369 -185 329 -211 253 -211 c 0xa4
 227 -211 203 -207 171 -199 c 1
EndSplineSet
EndChar
StartChar: eacute
Encoding: 233 233 79
Width: 444
Flags: MW
HStem: -12 73<252 286> 264 45<173 275 173 417 169 275> 503 45<211.5 245.5>
LayerCount: 2
Fore
SplineSet
417 95 m 1
 417 21 l 1
 360 -2 313 -12 259 -12 c 0
 101 -12 21 84 21 270 c 0
 21 441 105 548 240 548 c 0
 365 548 417 468 417 275 c 2
 417 264 l 1
 169 264 l 1
 172 122 210 61 294 61 c 0xe0
 332 61 369 71 417 95 c 1
173 309 m 1
 275 309 l 1
 275 328 l 1
 275 338 l 2
 275 449 260 503 231 503 c 0
 192 503 174 443 173 309 c 1
158 626 m 1
 275 783 l 1
 422 783 l 1
 222 626 l 1
 158 626 l 1
EndSplineSet
EndChar
StartChar: edieresis
Encoding: 235 235 78
Width: 444
Flags: MW
HStem: -12 73<252 286> 264 45<173 275 173 417 169 275> 503 45<211.5 245.5> 626 103<90 193 90 193 288 391 90 288>
VStem: 21 103 219 103
LayerCount: 2
Fore
SplineSet
417 95 m 1
 417 21 l 1
 360 -2 313 -12 259 -12 c 0
 101 -12 21 84 21 270 c 0
 21 441 105 548 240 548 c 0
 365 548 417 468 417 275 c 2
 417 264 l 1
 169 264 l 1
 172 122 210 61 294 61 c 0xe0
 332 61 369 71 417 95 c 1
173 309 m 1
 275 309 l 1
 275 328 l 1
 275 338 l 2
 275 449 260 503 231 503 c 0
 192 503 174 443 173 309 c 1
90 626 m 1
 90 729 l 1
 193 729 l 1
 193 626 l 1x1c
 90 626 l 1
288 626 m 1
 288 729 l 1
 391 729 l 1
 391 626 l 1
 288 626 l 1
EndSplineSet
EndChar
StartChar: igrave
Encoding: 236 236 88
Width: 278
Flags: MW
HStem: 0 20 516 20<20 218 218 218>
VStem: 73 145<93 536 142 394 394 443 443 443>
LayerCount: 2
Fore
SplineSet
20 0 m 1
 20 45 l 1
 29 46 l 2
 67 49 72 54 73 93 c 2
 73 142 l 1
 73 394 l 1
 73 443 l 2
 72 482 67 487 29 490 c 2
 20 491 l 1
 20 536 l 1
 218 536 l 1
 218 142 l 1
 219 93 l 2
 220 54 224 49 262 46 c 2
 271 45 l 1
 271 0 l 1
 20 0 l 1
264 626 m 1
 199 626 l 1
 0 783 l 1
 146 783 l 1
 264 626 l 1
EndSplineSet
EndChar
StartChar: iacute
Encoding: 237 237 87
Width: 278
Flags: MW
HStem: 0 20 516 20<19 217 217 217>
VStem: 72 145<142 394 394 394>
LayerCount: 2
Fore
SplineSet
19 0 m 1
 19 45 l 1
 28 46 l 2
 66 49 71 54 71 93 c 2
 72 142 l 1
 72 394 l 1
 71 443 l 2
 71 482 66 487 28 490 c 2
 19 491 l 1
 19 536 l 1
 217 536 l 1
 217 142 l 1
 218 93 l 2
 219 54 223 49 261 46 c 2
 270 45 l 1
 270 0 l 1
 19 0 l 1
14 626 m 1
 131 783 l 1
 278 783 l 1
 78 626 l 1
 14 626 l 1
EndSplineSet
EndChar
StartChar: icircumflex
Encoding: 238 238 89
Width: 278
Flags: MW
HStem: 0 20 516 20<19 217 217 217>
VStem: 72 145<93 536 142 394 394 443 443 443>
LayerCount: 2
Fore
SplineSet
19 0 m 1
 19 45 l 1
 28 46 l 2
 66 49 71 54 72 93 c 2
 72 142 l 1
 72 394 l 1
 72 443 l 2
 71 482 66 487 28 490 c 2
 19 491 l 1
 19 536 l 1
 217 536 l 1
 217 142 l 1
 218 93 l 2
 219 54 223 49 261 46 c 2
 270 45 l 1
 270 0 l 1
 19 0 l 1
-39 626 m 1
 79 783 l 1
 199 783 l 1
 316 626 l 1
 259 626 l 1
 139 721 l 1
 18 626 l 1
 -39 626 l 1
EndSplineSet
EndChar
StartChar: idieresis
Encoding: 239 239 86
Width: 278
Flags: W
HStem: 0 20 516 20<19 217 217 217> 626 103<-12 91 -12 91 186 289 -12 186>
VStem: -12 103<626 729 626 729> 72 145<142 394 394 394> 186 103<626 729 626 729>
LayerCount: 2
Fore
SplineSet
19 0 m 1xe8
 19 45 l 1
 28 46 l 2
 66 49 71 54 71 93 c 2
 72 142 l 1
 72 394 l 1
 71 443 l 2
 71 482 66 487 28 490 c 2
 19 491 l 1
 19 536 l 1
 217 536 l 1
 217 142 l 1
 218 93 l 2
 219 54 223 49 261 46 c 2
 270 45 l 1
 270 0 l 1
 19 0 l 1xe8
-12 626 m 1xf4
 -12 729 l 1
 91 729 l 1
 91 626 l 1
 -12 626 l 1xf4
186 626 m 1
 186 729 l 1
 289 729 l 1
 289 626 l 1
 186 626 l 1
EndSplineSet
EndChar
StartChar: eth
Encoding: 240 240 201
Width: 500
Flags: MW
HStem: -12 45<225.5 282.5 225.5 316> 479 45<226 241 168.5 276>
VStem: 21 154<177.5 332 173 336> 325 154<199.5 339 199.5 342>
LayerCount: 2
Fore
SplineSet
84 530 m 1
 60 563 l 1
 168 670 l 1
 124 701 76 719 21 726 c 1
 21 771 l 1
 36 771 l 2
 101 771 157 757 223 724 c 1
 320 819 l 1
 345 786 l 1
 262 703 l 1
 335 648 371 611 408 552 c 0
 455 476 479 388 479 290 c 0
 479 109 386 -12 246 -12 c 0
 112 -12 21 97 21 258 c 0
 21 414 107 524 230 524 c 0
 252 524 273 520 297 510 c 1
 274 560 243 605 201 645 c 1
 84 530 l 1
252 479 m 0
 200 479 175 406 175 258 c 0
 175 88 195 33 256 33 c 0
 309 33 325 88 325 274 c 0
 325 410 300 479 252 479 c 0
EndSplineSet
EndChar
StartChar: ntilde
Encoding: 241 241 94
Width: 556
Flags: W
HStem: 0 20 460 88<282.5 408.5> 516 20<15 213 213 213> 627 79<351 371 351 377.5> 678 79<177.5 197.5>
VStem: 68 145<142 393 142 394 142 394> 355 145<142 363 363 379 142 401>
LayerCount: 2
Fore
SplineSet
15 0 m 1
 15 45 l 1
 24 46 l 2
 62 49 66 54 67 93 c 2
 68 142 l 1
 68 394 l 1
 67 443 l 2
 66 482 62 487 24 490 c 2
 15 491 l 1
 15 536 l 1
 213 536 l 1xa6
 213 447 l 1
 251 518 296 548 363 548 c 0
 454 548 500 491 500 379 c 2
 500 142 l 1
 501 93 l 2
 501 54 506 49 544 46 c 2
 553 45 l 1
 553 0 l 1
 308 0 l 1
 308 45 l 1
 317 46 l 2
 342 48 354 63 354 93 c 2
 355 142 l 1
 355 363 l 2
 355 439 343 460 300 460 c 0
 265 460 240 440 213 393 c 1
 213 142 l 1
 214 93 l 2
 214 63 226 48 251 46 c 2
 260 45 l 1
 260 0 l 1xc6
 15 0 l 1
149 627 m 1
 104 627 l 1
 105 708 142 757 201 757 c 0x08
 221 757 243 751 267 740 c 2
 303 723 l 2
 324 712 345 706 357 706 c 0
 385 706 398 722 399 757 c 1
 444 757 l 1
 443 675 407 627 348 627 c 0x10
 327 627 305 633 282 643 c 2
 246 660 l 2
 218 674 204 678 191 678 c 0x08
 164 678 150 662 149 627 c 1
EndSplineSet
EndChar
StartChar: otilde
Encoding: 245 245 99
Width: 500
Flags: W
HStem: -12 51<225 275 225 320> 497 51<225 274.5> 627 79<327 347 327 353.5> 678 79<153.5 173.5>
VStem: 21 154<192.5 344.5 192.5 355.5> 325 154<196.5 347.5>
LayerCount: 2
Fore
SplineSet
250 548 m 0
 392 548 479 442 479 269 c 0
 479 92 393 -12 247 -12 c 0
 107 -12 21 95 21 268 c 0xcc
 21 443 107 548 250 548 c 0
250 497 m 0
 200 497 175 420 175 269 c 0
 175 116 200 39 250 39 c 0
 300 39 325 119 325 274 c 0
 325 421 299 497 250 497 c 0
125 627 m 1
 80 627 l 1
 81 708 118 757 177 757 c 0x10
 197 757 219 751 243 740 c 2
 279 723 l 2
 300 712 321 706 333 706 c 0
 361 706 374 722 375 757 c 1
 420 757 l 1
 419 675 383 627 324 627 c 0x20
 303 627 281 633 258 643 c 2
 222 660 l 2
 194 674 180 678 167 678 c 0x10
 140 678 126 662 125 627 c 1
EndSplineSet
EndChar
StartChar: odieresis
Encoding: 246 246 95
Width: 500
Flags: MW
HStem: -12 51<225 275 225 320> 497 51<225 274.5> 626 103<99 202 99 202 297 400 99 297>
VStem: 21 103 21 154<192.5 344.5 192.5 355.5> 219 103 325 154<196.5 347.5>
LayerCount: 2
Fore
SplineSet
250 548 m 0
 392 548 479 442 479 269 c 0
 479 92 393 -12 247 -12 c 0
 107 -12 21 95 21 268 c 0xca
 21 443 107 548 250 548 c 0
250 497 m 0
 200 497 175 420 175 269 c 0
 175 116 200 39 250 39 c 0
 300 39 325 119 325 274 c 0
 325 421 299 497 250 497 c 0
99 626 m 1
 99 729 l 1
 202 729 l 1
 202 626 l 1x34
 99 626 l 1
297 626 m 1
 297 729 l 1
 400 729 l 1
 400 626 l 1
 297 626 l 1
EndSplineSet
EndChar
StartChar: divide
Encoding: 247 247 262
Width: 570
Flags: MW
HStem: 12 120<225 346 225 346> 253 72<44 526 44 526> 445 121<225 346 225 346>
VStem: 225 121<12 132 12 132 445 566>
LayerCount: 2
Fore
SplineSet
44 253 m 1
 44 325 l 1
 526 325 l 1
 526 253 l 1
 44 253 l 1
225 445 m 1
 225 566 l 1
 346 566 l 1
 346 445 l 1
 225 445 l 1
225 12 m 1
 225 132 l 1
 346 132 l 1
 346 12 l 1
 225 12 l 1
EndSplineSet
EndChar
StartChar: oslash
Encoding: 248 248 194
Width: 500
Flags: MW
HStem: -12 51<234.5 274.5 234.5 320.5> 497 51<225 265.5>
VStem: 21 154<259.5 344.5 259.5 356.5> 325 154<191.5 276.5>
LayerCount: 2
Fore
SplineSet
107 37 m 1
 72 -12 l 1
 21 -12 l 1
 79 68 l 1
 38 127 21 187 21 270 c 0
 21 443 108 548 250 548 c 0
 308 548 351 533 393 499 c 1
 428 548 l 1
 479 548 l 1
 420 468 l 1
 462 409 479 349 479 267 c 0
 479 93 392 -12 249 -12 c 0
 192 -12 150 3 107 37 c 1
323 334 m 1
 183 142 l 1
 199 70 219 39 250 39 c 0
 299 39 325 117 325 266 c 0
 325 287 325 296 323 334 c 1
176 202 m 1
 316 394 l 1
 301 467 281 497 250 497 c 0
 200 497 175 421 175 268 c 0
 175 251 175 232 176 202 c 1
EndSplineSet
EndChar
StartChar: udieresis
Encoding: 252 252 106
Width: 556
Flags: W
HStem: -12 88<147.5 273.5> 0 20 516 20<3 201 201 201 296 488 488 488> 626 103<116 219 116 219 314 417 116 314>
VStem: 3 103 56 145<157 173 173 394 394 394> 201 103 343 145<0 536 89 536 143 394 394 394>
LayerCount: 2
Fore
SplineSet
3 491 m 1
 3 536 l 1
 201 536 l 1
 201 173 l 2
 201 97 213 76 256 76 c 0xa5
 291 76 316 96 343 143 c 1
 343 394 l 1
 342 443 l 2
 342 473 330 488 305 490 c 2
 296 491 l 1
 296 536 l 1
 488 536 l 1
 488 142 l 1
 489 93 l 2
 489 54 494 49 532 46 c 2
 541 45 l 1
 541 0 l 1
 343 0 l 1x65
 343 89 l 1
 305 18 260 -12 193 -12 c 0
 102 -12 56 45 56 157 c 2
 56 394 l 1
 55 443 l 2
 54 482 50 487 12 490 c 2x85
 3 491 l 1
116 626 m 1
 116 729 l 1
 219 729 l 1
 219 626 l 1x1a
 116 626 l 1
314 626 m 1
 314 729 l 1
 417 729 l 1
 417 626 l 1
 314 626 l 1
EndSplineSet
EndChar
StartChar: thorn
Encoding: 254 254 202
Width: 556
Flags: W
HStem: -12 20 0 20 528 20<308 400>
VStem: 53 145<-100 0 -51 0 447 629 629 678 678 678>
LayerCount: 2
Fore
SplineSet
197 397 m 1x50
 197 81 l 1
 230 64 254 57 274 57 c 0
 344 57 381 126 381 258 c 0
 381 389 348 455 283 455 c 0
 250 455 223 437 197 397 c 1x50
0 -193 m 1
 0 -148 l 1
 9 -147 l 2
 47 -144 52 -138 53 -100 c 2
 53 -51 l 1
 53 629 l 1
 53 678 l 2
 52 717 47 723 9 725 c 2
 0 726 l 1
 0 771 l 1
 198 771 l 1
 198 447 l 1
 233 518 275 548 341 548 c 0
 459 548 536 442 536 280 c 0
 536 99 443 -12 292 -12 c 0xb0
 265 -12 237 -8 198 0 c 1
 198 -51 l 1
 199 -100 l 2
 200 -138 205 -144 242 -147 c 2
 251 -148 l 1
 251 -193 l 1
 0 -193 l 1
EndSplineSet
EndChar
StartChar: Amacron
Encoding: 281 256 52
Width: 722
Flags: MW
HStem: 0 20 220 48<203 430 203 450 182 430> 783 75<192 530 192 530>
LayerCount: 2
Fore
SplineSet
0 0 m 1
 0 45 l 1
 9 46 l 2
 35 48 55 63 68 93 c 2
 90 143 l 1
 338 729 l 1
 388 729 l 1
 637 142 l 2
 663 82 685 49 703 47 c 2
 716 46 l 1
 722 45 l 1
 722 0 l 1
 463 0 l 1
 463 45 l 1
 473 46 l 1
 489 47 l 2
 503 48 511 54 511 63 c 0
 511 71 507 82 497 109 c 2
 483 143 l 1
 450 220 l 1
 182 220 l 1
 149 142 l 2
 131 100 122 75 122 65 c 0
 122 54 130 48 147 47 c 2
 160 46 l 1
 168 45 l 1
 168 0 l 1
 0 0 l 1
203 268 m 1
 430 268 l 1
 316 536 l 1
 203 268 l 1
192 783 m 1
 192 858 l 1
 530 858 l 1
 530 783 l 1
 192 783 l 1
EndSplineSet
EndChar
StartChar: abreve
Encoding: 294 259 70
Width: 500
Flags: MW
HStem: -12 77<132.5 244.5> 503 45<221.5 258.5> 627 84<212.5 275 212.5 289.5>
VStem: 26 145<129.5 198.5 129.5 200> 298 145<150 275 275 275 319 384 384 385 150 430.5>
LayerCount: 2
Fore
SplineSet
491 45 m 1
 491 -2 l 1
 468 -9 448 -12 431 -12 c 0
 381 -12 346 11 318 62 c 1
 273 10 232 -12 177 -12 c 0
 88 -12 26 51 26 141 c 0
 26 259 109 319 274 319 c 2
 298 319 l 1
 298 384 l 2
 298 477 284 503 233 503 c 0
 190 503 167 481 165 437 c 2
 163 406 l 1
 163 397 l 1
 73 397 l 1
 73 506 l 1
 138 536 190 548 253 548 c 0
 379 548 443 493 443 385 c 2
 443 150 l 1
 444 108 l 1
 445 79 l 2
 446 56 458 43 477 43 c 0
 480 43 484 44 489 45 c 2xd8
 491 45 l 1
298 98 m 1
 298 275 l 1
 279 275 l 2
 207 275 171 237 171 160 c 0
 171 99 194 65 235 65 c 0
 254 65 272 74 298 98 c 1
72 784 m 1
 117 784 l 1
 142 733 181 711 244 711 c 0
 306 711 344 733 370 784 c 1
 415 784 l 1
 399 685 335 627 244 627 c 0x20
 152 627 88 685 72 784 c 1
EndSplineSet
EndChar
StartChar: Aogonek
Encoding: 257 260 7
Width: 722
Flags: MW
HStem: -181 48<622 625.5> 0 20 220 48<203 430 203 450 182 430> 709 20<338 388 388 388>
VStem: 490 94<-99 -87>
LayerCount: 2
Fore
SplineSet
0 0 m 1
 0 45 l 1
 9 46 l 2
 35 48 55 63 68 93 c 2
 90 143 l 1
 338 729 l 1
 388 729 l 1
 637 142 l 2
 663 82 685 49 703 47 c 2
 716 46 l 1
 722 45 l 1
 722 0 l 1
 463 0 l 1
 463 45 l 1
 473 46 l 1
 489 47 l 2
 503 48 511 54 511 63 c 0
 511 71 507 83 497 109 c 2
 483 143 l 1
 450 220 l 1
 182 220 l 1
 149 142 l 2
 131 100 122 75 122 65 c 0
 122 54 130 48 147 47 c 2
 160 46 l 1
 168 45 l 1
 168 0 l 1
 0 0 l 1
203 268 m 1
 430 268 l 1
 316 536 l 1
 203 268 l 1
698 -122 m 1
 698 -165 l 1
 669 -176 641 -181 610 -181 c 0
 538 -181 490 -151 490 -106 c 0
 490 -68 517 -36 578 0 c 1
 627 0 l 1
 597 -27 584 -52 584 -82 c 0
 584 -116 603 -133 641 -133 c 0
 658 -133 676 -130 698 -122 c 1
EndSplineSet
EndChar
StartChar: Cacute
Encoding: 258 262 9
Width: 722
Flags: MW
HStem: -18 61<374 478> 693 48<387 466.5 301 478.5>
VStem: 36 160<259 414.5 259 484.5> 667 13
LayerCount: 2
Fore
SplineSet
680 96 m 1
 680 28 l 1
 595 -5 523 -18 433 -18 c 0
 179 -18 36 119 36 362 c 0
 36 607 174 741 428 741 c 0
 505 741 578 731 667 709 c 1
 667 560 l 1
 583 560 l 1
 583 569 l 1
 581 598 l 2
 578 659 525 693 432 693 c 0
 342 693 281 661 244 595 c 0
 212 540 196 462 196 367 c 0
 196 151 285 43 463 43 c 0
 530 43 592 58 680 96 c 1
335 783 m 1
 453 940 l 1
 599 940 l 1
 400 783 l 1
 335 783 l 1
EndSplineSet
EndChar
StartChar: cacute
Encoding: 296 263 74
Width: 444
Flags: MW
HStem: -12 71<258.5 292.5> 503 45<237 283.5>
VStem: 21 153<202.5 350 202.5 353>
LayerCount: 2
Fore
SplineSet
409 86 m 1
 409 13 l 1
 355 -4 313 -12 272 -12 c 0
 114 -12 21 91 21 265 c 0
 21 441 116 548 272 548 c 0
 317 548 359 541 408 524 c 1
 408 386 l 1
 326 386 l 1
 326 395 l 1
 324 431 l 2
 322 476 300 503 267 503 c 0
 207 503 174 423 174 277 c 0
 174 128 215 59 302 59 c 0xe0
 334 59 370 68 409 86 c 1
169 626 m 1
 286 783 l 1
 433 783 l 1
 233 626 l 1
 169 626 l 1
EndSplineSet
EndChar
StartChar: ccaron
Encoding: 297 269 75
Width: 444
Flags: MW
HStem: -12 71<258.5 292.5> 503 45<237 283.5>
VStem: 21 153<202.5 350 202.5 353>
LayerCount: 2
Fore
SplineSet
409 86 m 1
 409 13 l 1
 355 -4 313 -12 272 -12 c 0
 114 -12 21 91 21 265 c 0
 21 441 116 548 272 548 c 0
 317 548 359 541 408 524 c 1
 408 386 l 1
 326 386 l 1
 326 395 l 1
 324 431 l 2
 322 476 300 503 267 503 c 0
 207 503 174 423 174 277 c 0
 174 128 215 59 302 59 c 0xe0
 334 59 370 68 409 86 c 1
436 783 m 1
 319 626 l 1
 199 626 l 1
 81 783 l 1
 138 783 l 1
 259 688 l 1
 379 783 l 1
 436 783 l 1
EndSplineSet
EndChar
StartChar: Dcaron
Encoding: 260 270 11
Width: 722
Flags: MW
HStem: 0 20 703 20<21 233 233 269 269 269>
VStem: 74 150<118 142 118 142 142 582 582 630 630 630> 526 160<270 478>
LayerCount: 2
Fore
SplineSet
21 0 m 1
 21 45 l 1
 30 46 l 2
 68 49 73 54 74 93 c 2
 74 142 l 1
 74 582 l 1
 74 630 l 2
 73 669 68 674 30 678 c 1
 21 678 l 1
 21 723 l 1
 233 723 l 1
 269 723 l 1
 314 724 l 1
 350 725 l 1
 355 725 l 2
 560 725 686 592 686 376 c 0
 686 146 553 0 344 0 c 2
 21 0 l 1
224 675 m 1
 224 142 l 2
 224 94 232 70 250 62 c 0
 263 55 292 51 324 51 c 0
 452 51 526 169 526 371 c 0
 526 585 445 675 256 675 c 2
 224 675 l 1
504 940 m 1
 386 783 l 1
 266 783 l 1
 148 940 l 1
 206 940 l 1
 326 845 l 1
 447 940 l 1
 504 940 l 1
EndSplineSet
EndChar
StartChar: dcaron
Encoding: 298 271 77
Width: 733
Flags: W
HStem: -12 93<239.5 249> 0 20 479 69<247 278.5 189.5 292>
VStem: 21 154<212.5 344 212.5 346.5> 588 126<482 662 527 662 629 662 662 771 629 771>
LayerCount: 2
Fore
SplineSet
358 0 m 1x78
 358 89 l 1
 324 18 282 -12 216 -12 c 0x98
 98 -12 21 94 21 256 c 0
 21 437 114 548 265 548 c 0
 292 548 318 545 358 536 c 1
 358 629 l 1
 356 678 l 2
 354 719 352 720 289 725 c 2
 280 726 l 1
 280 771 l 1
 503 771 l 1
 503 142 l 1
 504 93 l 2
 504 54 509 49 546 46 c 2
 556 45 l 1
 556 0 l 1
 358 0 l 1x78
358 139 m 1xb8
 358 455 l 1
 325 472 302 479 282 479 c 0
 212 479 175 410 175 278 c 0
 175 147 207 81 272 81 c 0
 306 81 332 99 358 139 c 1xb8
588 482 m 1
 588 527 l 1
 622 529 637 554 637 610 c 2
 637 626 l 1
 588 626 l 1
 588 771 l 1
 714 771 l 1
 714 662 l 2
 714 596 700 549 670 519 c 0
 649 497 629 488 588 482 c 1
EndSplineSet
EndChar
StartChar: dcroat
Encoding: 338 273 199
Width: 556
Flags: W
HStem: -12 93<239.5 249> 0 20 479 69<247 278.5 189.5 292> 609 48<226 357 226 358 226 357 503 556>
VStem: 21 154<212.5 344 212.5 346.5>
LayerCount: 2
Fore
SplineSet
358 0 m 1x78
 358 89 l 1
 324 18 282 -12 216 -12 c 0x88
 98 -12 21 94 21 256 c 0
 21 437 114 548 265 548 c 0
 292 548 318 545 358 536 c 1
 358 609 l 1
 226 609 l 1
 226 657 l 1
 357 657 l 1
 357 658 l 1
 357 659 l 1
 357 661 l 1
 357 663 l 1
 356 678 l 2
 352 721 352 721 289 725 c 2
 280 726 l 1
 280 771 l 1
 503 771 l 1
 503 657 l 1
 556 657 l 1
 556 609 l 1
 503 609 l 1
 503 142 l 1
 504 93 l 2
 504 54 509 49 546 46 c 2
 556 45 l 1
 556 0 l 1
 358 0 l 1x78
358 139 m 1xa8
 358 455 l 1
 325 472 302 479 282 479 c 0
 212 479 175 410 175 278 c 0
 175 147 207 81 272 81 c 0
 306 81 332 99 358 139 c 1xa8
EndSplineSet
EndChar
StartChar: Emacron
Encoding: 283 274 55
Width: 667
Flags: W
HStem: 0 51<350 459 350 638> 0 136<554 638 554 638> 358 42<256 405 256 405> 594 129<533 617 533 533> 675 48<256 460 256 256> 783 75<172 509 172 509>
VStem: 106 150<142 358 400 582 582 582>
LayerCount: 2
Fore
SplineSet
27 0 m 1x82
 27 45 l 1
 37 46 l 2
 100 50 103 52 104 93 c 2
 106 142 l 1
 106 582 l 1
 104 630 l 2
 102 671 101 672 37 677 c 2
 27 678 l 1
 27 723 l 1
 617 723 l 1x8e
 617 594 l 1
 533 594 l 1x12
 532 603 l 1
 532 616 l 1
 531 625 l 1
 531 629 l 1
 531 632 l 1
 531 633 l 2
 530 666 526 671 493 673 c 2
 460 675 l 1
 256 675 l 1
 256 400 l 1
 405 400 l 1
 453 401 l 2
 474 401 478 403 479 416 c 2
 480 422 l 1
 480 425 l 1
 479 427 l 1
 480 427 l 1
 480 430 l 1
 480 439 l 1
 481 449 l 1
 482 458 l 1
 545 458 l 1
 545 301 l 1
 482 301 l 1
 481 310 l 1
 481 317 l 1
 480 322 l 1
 480 326 l 1
 480 328 l 1
 480 329 l 2
 480 347 472 355 451 356 c 2
 405 358 l 1
 256 358 l 1
 256 142 l 1
 258 99 l 2
 262 56 266 53 310 52 c 2
 350 51 l 1
 459 51 l 1xaa
 514 52 l 2
 537 53 549 62 551 80 c 2
 553 127 l 1
 554 136 l 1
 638 136 l 1x42
 638 0 l 1
 27 0 l 1x82
172 783 m 1
 172 858 l 1
 509 858 l 1
 509 783 l 1
 172 783 l 1
EndSplineSet
EndChar
StartChar: Eogonek
Encoding: 263 280 18
Width: 667
Flags: W
HStem: -181 48<526 530> 0 51<350 459 350 638 350 532> 0 136<554 638 554 638 483 638 532 638> 358 42<256 405 256 405> 594 129<533 617 533 533> 675 48<256 460 256 256>
VStem: 106 150<142 358 400 582 582 582> 394 94<-99 -87>
LayerCount: 2
Fore
SplineSet
27 0 m 1x43
 27 45 l 1
 37 46 l 2
 100 50 103 52 104 93 c 2
 106 142 l 1
 106 582 l 1
 104 630 l 2
 102 671 101 672 37 677 c 2
 27 678 l 1
 27 723 l 1
 617 723 l 1xc7
 617 594 l 1
 533 594 l 1x0b
 532 603 l 1
 532 616 l 1
 531 625 l 1
 531 629 l 1
 531 632 l 1
 531 633 l 2
 530 666 526 671 493 673 c 2
 460 675 l 1
 256 675 l 1
 256 400 l 1
 405 400 l 1
 453 401 l 2
 474 401 478 403 479 416 c 2
 480 422 l 1
 480 425 l 1
 479 427 l 1
 480 427 l 1
 480 430 l 1
 480 439 l 1
 481 449 l 1
 482 458 l 1
 545 458 l 1
 545 301 l 1
 482 301 l 1
 481 310 l 1
 481 317 l 1
 480 322 l 1
 480 326 l 1
 480 328 l 1
 480 329 l 2
 480 347 472 355 451 356 c 2
 405 358 l 1
 256 358 l 1
 256 142 l 1
 258 99 l 2
 262 56 266 53 310 52 c 2
 350 51 l 1
 459 51 l 1x57
 514 52 l 2
 537 53 549 62 551 80 c 2
 553 127 l 1
 554 136 l 1
 638 136 l 1x23
 638 0 l 1
 27 0 l 1x43
602 -122 m 1
 602 -165 l 1
 574 -176 546 -181 514 -181 c 0
 442 -181 394 -151 394 -106 c 0
 394 -68 421 -36 483 0 c 1
 532 0 l 1
 501 -28 488 -52 488 -82 c 0
 488 -116 507 -133 545 -133 c 0
 562 -133 580 -130 602 -122 c 1
EndSplineSet
EndChar
StartChar: Gbreve
Encoding: 264 286 19
Width: 778
Flags: MW
HStem: -18 48<368 464> 693 48<367.5 469> 783 84<398.5 460.5 398.5 475>
VStem: 36 160<252.5 417.5> 536 150<43 177 15 177>
LayerCount: 2
Fore
SplineSet
765 318 m 1
 765 273 l 1
 755 272 l 2
 693 268 690 265 689 225 c 2
 686 177 l 1
 686 15 l 1
 578 -8 501 -18 427 -18 c 0
 179 -18 36 121 36 361 c 0
 36 474 68 566 129 634 c 0
 195 706 296 741 439 741 c 0
 522 741 595 732 685 709 c 1
 685 566 l 1
 601 566 l 1
 601 575 l 2
 601 616 596 639 585 650 c 0
 558 677 502 693 436 693 c 0
 275 693 196 584 196 363 c 0
 196 142 282 30 454 30 c 0
 484 30 507 34 536 43 c 1
 536 177 l 1
 534 225 l 2
 532 266 530 268 467 272 c 2
 458 273 l 1
 458 318 l 1
 765 318 l 1
258 940 m 1
 303 940 l 1
 328 889 367 867 430 867 c 0
 491 867 529 889 556 940 c 1
 601 940 l 1
 584 841 521 783 429 783 c 0
 338 783 275 841 258 940 c 1
EndSplineSet
EndChar
StartChar: gbreve
Encoding: 302 287 85
Width: 500
Flags: W
HStem: -205 45<211.5 277.5 211.5 299> 173 42<238 250.5 213 293> 501 47<212.5 244 163.5 250> 627 84<202.5 265 202.5 279.5>
VStem: 9 140<-102 -68> 39 136<319.5 407> 288 135<311 382 306 406> 348 133<-80.5 -40.5>
LayerCount: 2
Fore
SplineSet
243 99 m 2
 300 99 l 2
 421 99 481 58 481 -27 c 0
 481 -134 377 -205 221 -205 c 0
 93 -205 9 -160 9 -92 c 0xe9
 9 -44 45 -10 128 19 c 1
 88 41 71 62 71 89 c 0
 71 126 100 156 166 185 c 1
 76 220 39 273 39 366 c 0
 39 486 102 548 225 548 c 0
 263 548 294 543 329 530 c 1
 498 545 l 1
 468 468 l 1
 377 483 l 1
 410 442 423 405 423 359 c 0
 423 253 345 173 241 173 c 0
 235 173 225 174 212 175 c 2
 207 176 l 1
 189 160 181 146 181 130 c 0xe6
 181 109 201 99 243 99 c 2
231 501 m 0xe6
 194 501 175 454 175 360 c 0
 175 264 194 215 232 215 c 0
 269 215 288 263 288 359 c 0
 288 453 269 501 231 501 c 0xe6
222 6 m 2xe9
 175 6 l 1
 157 -21 149 -45 149 -73 c 0
 149 -131 180 -160 243 -160 c 0
 312 -160 348 -130 348 -70 c 0
 348 -11 321 6 222 6 c 2xe9
62 784 m 1
 107 784 l 1
 132 733 171 711 234 711 c 0
 296 711 334 733 360 784 c 1
 405 784 l 1
 389 685 325 627 234 627 c 0x10
 142 627 78 685 62 784 c 1
EndSplineSet
EndChar
StartChar: Gcommaaccent
Encoding: 291 290 63
Width: 778
Flags: MW
HStem: -211 47<390 394.5 372.5 442> -18 48<368 464> 693 48<367.5 469>
VStem: 36 160<252.5 417.5> 427 97<-143 -120.5> 536 150<43 177 15 177>
LayerCount: 2
Fore
SplineSet
765 318 m 1
 765 273 l 1
 755 272 l 2
 693 268 690 265 689 225 c 2
 686 177 l 1
 686 15 l 1
 578 -8 501 -18 427 -18 c 0
 179 -18 36 121 36 361 c 0
 36 474 68 566 129 634 c 0
 195 706 296 741 439 741 c 0
 522 741 595 732 685 709 c 1
 685 566 l 1
 601 566 l 1
 601 575 l 2
 601 616 596 639 585 650 c 0
 558 677 502 693 436 693 c 0
 275 693 196 584 196 363 c 0
 196 142 282 30 454 30 c 0
 484 30 507 34 536 43 c 1
 536 177 l 1
 534 225 l 2
 532 266 530 268 467 272 c 2
 458 273 l 1
 458 318 l 1
 765 318 l 1
328 -202 m 1
 328 -158 l 1
 349 -162 366 -164 379 -164 c 0
 410 -164 427 -153 427 -133 c 0
 427 -108 405 -98 352 -97 c 1
 352 -53 l 1
 473 -55 524 -80 524 -136 c 0
 524 -185 482 -211 402 -211 c 0
 378 -211 356 -208 328 -202 c 1
EndSplineSet
EndChar
StartChar: gcommaaccent
Encoding: 330 291 130
Width: 500
Flags: W
HStem: -205 45<211.5 277.5 211.5 299> 173 42<238 250.5 213 293> 501 47<212.5 244 163.5 250>
VStem: 9 140<-102 -68> 39 136<319.5 407> 161 145<626 735 735 766> 288 135<311 382 306 406> 348 133<-80.5 -40.5>
LayerCount: 2
Fore
SplineSet
243 99 m 2xea
 300 99 l 2
 421 99 481 58 481 -27 c 0
 481 -134 377 -205 221 -205 c 0
 93 -205 9 -160 9 -92 c 0xf1
 9 -44 45 -10 128 19 c 1
 88 41 71 62 71 89 c 0
 71 126 100 156 166 185 c 1
 76 220 39 273 39 366 c 0
 39 486 102 548 225 548 c 0
 263 548 294 543 329 530 c 1
 498 545 l 1
 468 468 l 1
 377 483 l 1
 410 442 423 405 423 359 c 0
 423 253 345 173 241 173 c 0
 235 173 225 174 212 175 c 2
 207 176 l 1
 189 160 181 146 181 130 c 0
 181 109 201 99 243 99 c 2xea
231 501 m 0xea
 194 501 175 454 175 360 c 0
 175 264 194 215 232 215 c 0
 269 215 288 263 288 359 c 0
 288 453 269 501 231 501 c 0xea
222 6 m 2xf5
 175 6 l 1
 157 -21 149 -45 149 -73 c 0
 149 -131 180 -160 243 -160 c 0
 312 -160 348 -130 348 -70 c 0
 348 -11 321 6 222 6 c 2xf5
306 915 m 1
 306 870 l 1
 268 869 252 846 250 788 c 2
 250 771 l 1
 306 771 l 1
 306 626 l 1
 161 626 l 1
 161 735 l 2
 161 797 176 842 206 873 c 0
 231 898 255 908 306 915 c 1
EndSplineSet
EndChar
StartChar: Iogonek
Encoding: 285 302 57
Width: 389
Flags: W
HStem: -181 48<254 258> 0 20 703 20<41 348 348 348>
VStem: 119 151<142 582 142 582> 122 94<-99 -87>
LayerCount: 2
Fore
SplineSet
41 0 m 1xf0
 41 45 l 1
 50 46 l 2
 113 50 116 53 117 93 c 2
 119 142 l 1
 119 582 l 1
 117 630 l 2
 115 671 114 672 50 678 c 1
 41 678 l 1
 41 723 l 1
 348 723 l 1
 348 678 l 1
 339 678 l 1
 275 672 273 671 272 630 c 2
 270 582 l 1
 270 142 l 1
 272 93 l 2
 274 52 276 51 339 46 c 2
 348 45 l 1
 348 0 l 1
 41 0 l 1xf0
330 -122 m 1xe8
 330 -165 l 1
 302 -176 274 -181 242 -181 c 0
 170 -181 122 -151 122 -106 c 0
 122 -68 149 -36 210 0 c 1
 260 0 l 1
 229 -27 216 -52 216 -82 c 0
 216 -116 235 -133 273 -133 c 0
 290 -133 308 -130 330 -122 c 1xe8
EndSplineSet
EndChar
StartChar: iogonek
Encoding: 331 303 131
Width: 278
Flags: MW
HStem: -181 48<193 196.5> 0 20 0 20 516 20<19 217 217 217> 626 145<72 217 72 217>
VStem: 19 94 72 145<93 536 142 394 394 443 443 443 626 771>
LayerCount: 2
Fore
SplineSet
72 626 m 1
 72 771 l 1
 217 771 l 1
 217 626 l 1x5a
 72 626 l 1
19 0 m 1
 19 45 l 1
 28 46 l 2
 66 49 71 54 72 93 c 2
 72 142 l 1
 72 394 l 1
 72 443 l 2
 71 482 66 487 28 490 c 2
 19 491 l 1
 19 536 l 1
 217 536 l 1
 217 142 l 1
 218 93 l 2
 219 54 223 49 261 46 c 2
 270 45 l 1
 270 0 l 1
 19 0 l 1
269 -122 m 1
 269 -165 l 1
 241 -176 212 -181 181 -181 c 0
 109 -181 61 -151 61 -106 c 0
 61 -68 88 -36 149 0 c 1
 199 0 l 1
 168 -27 155 -52 155 -82 c 0
 155 -116 174 -133 212 -133 c 0xa4
 229 -133 247 -130 269 -122 c 1
EndSplineSet
EndChar
StartChar: Idotaccent
Encoding: 265 304 24
Width: 389
Flags: W
HStem: 0 20 703 20<41 348 348 348> 783 145<123 268 123 268>
VStem: 119 151<142 582 142 582> 123 145<783 928 783 928>
LayerCount: 2
Fore
SplineSet
41 0 m 1xf0
 41 45 l 1
 50 46 l 2
 113 50 116 53 117 93 c 2
 119 142 l 1
 119 582 l 1
 117 630 l 2
 115 671 114 672 50 678 c 1
 41 678 l 1
 41 723 l 1
 348 723 l 1
 348 678 l 1
 339 678 l 1
 275 672 273 671 272 630 c 2
 270 582 l 1
 270 142 l 1
 272 93 l 2
 274 52 276 51 339 46 c 2
 348 45 l 1
 348 0 l 1
 41 0 l 1xf0
123 783 m 1xe8
 123 928 l 1
 268 928 l 1
 268 783 l 1
 123 783 l 1xe8
EndSplineSet
EndChar
StartChar: Kcommaaccent
Encoding: 286 310 58
Width: 778
Flags: MW
HStem: -211 47<348 352.5 330.5 400> 0 20 703 20<21 310 310 310 507 726 726 726>
VStem: 99 145<142 348 389 582> 385 97<-143 -120.5>
LayerCount: 2
Fore
SplineSet
21 0 m 1
 21 45 l 1
 30 46 l 2
 92 50 96 53 97 93 c 2
 99 142 l 1
 99 582 l 1
 97 630 l 2
 95 671 94 672 30 678 c 1
 21 678 l 1
 21 723 l 1
 310 723 l 1
 310 678 l 1
 302 678 l 1
 250 673 247 670 246 630 c 2
 244 582 l 1
 244 389 l 1
 484 582 l 2
 539 626 565 652 565 665 c 0
 565 673 558 676 537 677 c 2
 515 678 l 1
 507 678 l 1
 507 723 l 1
 726 723 l 1
 726 678 l 1
 718 678 l 1
 698 677 l 2
 673 675 652 663 616 631 c 0
 595 612 566 588 557 581 c 2
 360 424 l 1
 634 140 l 1
 693 82 l 2
 715 60 741 48 769 46 c 2
 779 45 l 1
 779 0 l 1
 429 0 l 1
 429 45 l 1
 438 45 l 1
 460 46 l 2
 488 47 500 52 500 64 c 0
 500 77 481 103 443 142 c 2
 244 348 l 1
 244 142 l 1
 247 93 l 2
 248 58 258 49 302 46 c 2
 310 45 l 1
 310 0 l 1
 21 0 l 1
286 -202 m 1
 286 -158 l 1
 307 -162 324 -164 337 -164 c 0
 368 -164 385 -153 385 -133 c 0
 385 -108 363 -98 311 -97 c 1
 311 -53 l 1
 431 -55 482 -80 482 -136 c 0
 482 -185 440 -211 360 -211 c 0
 336 -211 314 -208 286 -202 c 1
EndSplineSet
EndChar
StartChar: kcommaaccent
Encoding: 321 311 121
Width: 556
Flags: MW
HStem: -211 47<304 308.5 286.5 356> 0 20 516 20<336 516 516 516>
VStem: 68 145<93 259 142 259 289 629 629 678 678 678> 114 97
LayerCount: 2
Fore
SplineSet
15 0 m 1
 15 45 l 1
 24 46 l 2
 62 49 67 54 68 93 c 2
 68 142 l 1
 68 629 l 1
 68 678 l 2
 67 717 62 722 24 725 c 2
 15 726 l 1
 15 771 l 1
 213 771 l 1
 213 289 l 1
 221 289 l 1
 326 400 l 2
 343 417 351 427 358 435 c 2
 380 463 l 2
 384 468 387 475 387 479 c 0
 387 486 380 490 365 490 c 2
 344 491 l 1
 336 491 l 1
 336 536 l 1
 516 536 l 1
 516 491 l 1
 507 490 l 2
 480 488 455 472 426 438 c 0
 400 410 397 406 385 394 c 2
 329 335 l 1
 450 140 l 2
 488 80 516 48 533 46 c 2
 543 46 l 1
 552 45 l 1
 552 0 l 1
 380 0 l 1
 219 259 l 1
 213 259 l 1
 213 142 l 1
 214 93 l 2
 215 54 219 49 257 46 c 2
 266 45 l 1
 266 0 l 1x70
 15 0 l 1
242 -202 m 1
 242 -158 l 1
 263 -162 280 -164 293 -164 c 0
 324 -164 341 -153 341 -133 c 0
 341 -108 319 -98 266 -97 c 1
 266 -53 l 1
 387 -55 438 -80 438 -136 c 0
 438 -185 396 -211 316 -211 c 0x88
 292 -211 270 -208 242 -202 c 1
EndSplineSet
EndChar
StartChar: Lacute
Encoding: 266 313 25
Width: 667
Flags: MW
HStem: 0 51<353 461 353 653> 703 20<27 335 335 335>
VStem: 106 150<142 582 142 582>
LayerCount: 2
Fore
SplineSet
27 0 m 1
 27 45 l 1
 37 46 l 2
 100 50 103 52 104 93 c 2
 106 142 l 1
 106 582 l 1
 104 630 l 2
 102 671 101 672 37 678 c 1
 27 678 l 1
 27 723 l 1
 335 723 l 1
 335 678 l 1
 325 678 l 1
 261 672 259 671 258 630 c 2
 256 582 l 1
 256 142 l 1
 258 99 l 2
 261 57 266 53 309 52 c 2
 353 51 l 1
 461 51 l 1
 503 53 l 2
 552 54 554 56 555 101 c 2
 557 160 l 1
 557 181 l 1
 653 181 l 1
 653 0 l 1
 27 0 l 1
192 783 m 1
 309 940 l 1
 455 940 l 1
 256 783 l 1
 192 783 l 1
EndSplineSet
EndChar
StartChar: lacute
Encoding: 303 314 90
Width: 278
Flags: MW
HStem: 0 20
VStem: 72 145<93 771 142 629 629 678 678 678>
LayerCount: 2
Fore
SplineSet
19 0 m 1
 19 45 l 1
 28 46 l 2
 66 49 71 54 72 93 c 2
 72 142 l 1
 72 629 l 1
 72 678 l 2
 71 717 66 722 28 725 c 2
 19 726 l 1
 19 771 l 1
 217 771 l 1
 217 142 l 1
 218 93 l 2
 219 54 223 49 261 46 c 2
 270 45 l 1
 270 0 l 1xc0
 19 0 l 1
80 819 m 1
 197 976 l 1
 344 976 l 1
 144 819 l 1
 80 819 l 1
EndSplineSet
EndChar
StartChar: Lcommaaccent
Encoding: 287 315 59
Width: 667
Flags: MW
HStem: -211 47<324 328.5 306.5 376> 0 51<353 461 353 653> 703 20<27 335 335 335>
VStem: 106 150<142 582 142 582> 361 97<-143 -120.5>
LayerCount: 2
Fore
SplineSet
27 0 m 1
 27 45 l 1
 37 46 l 2
 99 50 103 52 104 93 c 2
 106 142 l 1
 106 582 l 1
 104 630 l 2
 102 671 101 672 37 678 c 1
 27 678 l 1
 27 723 l 1
 335 723 l 1
 335 678 l 1
 325 678 l 1
 261 672 259 671 258 630 c 2
 256 582 l 1
 256 142 l 1
 258 99 l 2
 261 57 266 53 309 52 c 2
 353 51 l 1
 461 51 l 1
 503 53 l 2
 552 54 554 56 555 101 c 2
 557 160 l 1
 557 181 l 1
 653 181 l 1
 653 0 l 1
 27 0 l 1
262 -202 m 1
 262 -158 l 1
 283 -162 300 -164 313 -164 c 0
 344 -164 361 -153 361 -133 c 0
 361 -108 339 -98 286 -97 c 1
 286 -53 l 1
 407 -55 458 -80 458 -136 c 0
 458 -185 416 -211 336 -211 c 0
 312 -211 289 -208 262 -202 c 1
EndSplineSet
EndChar
StartChar: lcommaaccent
Encoding: 322 316 122
Width: 278
Flags: MW
HStem: -211 47<116 120.5 98.5 168> 0 20
VStem: 72 145<93 771 142 629 629 678 678 678> 118 97
LayerCount: 2
Fore
SplineSet
19 0 m 1
 19 45 l 1
 28 46 l 2
 66 49 71 54 72 93 c 2
 72 142 l 1
 72 629 l 1
 72 678 l 2
 71 717 66 722 28 725 c 2
 19 726 l 1
 19 771 l 1
 217 771 l 1
 217 142 l 1
 218 93 l 2
 219 54 223 49 261 46 c 2
 270 45 l 1
 270 0 l 1x60
 19 0 l 1
54 -202 m 1
 54 -158 l 1
 75 -162 92 -164 105 -164 c 0
 136 -164 153 -153 153 -133 c 0
 153 -108 131 -98 78 -97 c 1
 78 -53 l 1
 199 -55 250 -80 250 -136 c 0
 250 -185 208 -211 128 -211 c 0x90
 104 -211 82 -208 54 -202 c 1
EndSplineSet
EndChar
StartChar: lcaron
Encoding: 304 318 91
Width: 469
Flags: MW
HStem: 0 20
VStem: 72 145<93 771 142 629 629 678 678 678> 313 126<482 662 527 662 629 662 662 771 629 771>
LayerCount: 2
Fore
SplineSet
19 0 m 1
 19 45 l 1
 28 46 l 2
 66 49 71 54 72 93 c 2
 72 142 l 1
 72 629 l 1
 72 678 l 2
 71 717 66 722 28 725 c 2
 19 726 l 1
 19 771 l 1
 217 771 l 1
 217 142 l 1
 218 93 l 2
 219 54 223 49 261 46 c 2
 270 45 l 1
 270 0 l 1
 19 0 l 1
313 482 m 1
 313 527 l 1
 347 529 362 554 362 610 c 2
 362 626 l 1
 313 626 l 1
 313 771 l 1
 439 771 l 1
 439 662 l 2
 439 596 425 549 395 519 c 0
 374 497 354 488 313 482 c 1
EndSplineSet
EndChar
StartChar: Lslash
Encoding: 334 321 164
Width: 667
Flags: MW
HStem: 0 51<353 461 353 653> 703 20<27 335 335 335>
VStem: 106 150<142 324 324 324 379 410 466 582>
LayerCount: 2
Fore
SplineSet
27 0 m 1
 27 45 l 1
 37 46 l 2
 100 50 103 52 104 93 c 2
 106 142 l 1
 106 324 l 1
 27 278 l 1
 27 334 l 1
 106 379 l 1
 106 582 l 1
 104 630 l 2
 102 671 101 672 37 678 c 1
 27 678 l 1
 27 723 l 1
 335 723 l 1
 335 678 l 1
 325 678 l 1
 261 672 259 671 258 630 c 2
 256 582 l 1
 256 466 l 1
 389 542 l 1
 389 487 l 1
 256 410 l 1
 256 142 l 1
 258 99 l 2
 261 57 266 53 309 52 c 2
 353 51 l 1
 461 51 l 1
 503 53 l 2
 552 54 554 56 555 101 c 2
 557 160 l 1
 557 181 l 1
 653 181 l 1
 653 0 l 1
 27 0 l 1
EndSplineSet
EndChar
StartChar: lslash
Encoding: 339 322 200
Width: 278
Flags: MW
HStem: 0 20
VStem: 72 145<93 424 142 340 340 340 396 424 479 629 629 678 678 678>
LayerCount: 2
Fore
SplineSet
19 0 m 1
 19 45 l 1
 28 46 l 2
 66 49 71 54 72 93 c 2
 72 142 l 1
 72 340 l 1
 0 299 l 1
 0 354 l 1
 72 396 l 1
 72 629 l 1
 72 678 l 2
 71 717 66 722 28 725 c 2
 19 726 l 1
 19 771 l 1
 217 771 l 1
 217 479 l 1
 289 521 l 1
 289 466 l 1
 217 424 l 1
 217 142 l 1
 218 93 l 2
 219 54 223 49 261 46 c 2
 270 45 l 1
 270 0 l 1
 19 0 l 1
EndSplineSet
EndChar
StartChar: nacute
Encoding: 305 324 92
Width: 556
Flags: W
HStem: 0 20 460 88<282.5 408.5> 516 20<15 213 213 213>
VStem: 68 145<142 393 142 394 142 394> 355 145<142 363 363 379 142 401>
LayerCount: 2
Fore
SplineSet
15 0 m 1
 15 45 l 1
 24 46 l 2
 62 49 66 54 67 93 c 2
 68 142 l 1
 68 394 l 1
 67 443 l 2
 66 482 62 487 24 490 c 2
 15 491 l 1
 15 536 l 1
 213 536 l 1xb8
 213 447 l 1
 251 518 296 548 363 548 c 0
 454 548 500 491 500 379 c 2
 500 142 l 1
 501 93 l 2
 501 54 506 49 544 46 c 2
 553 45 l 1
 553 0 l 1
 308 0 l 1
 308 45 l 1
 317 46 l 2
 342 48 354 63 354 93 c 2
 355 142 l 1
 355 363 l 2
 355 439 343 460 300 460 c 0
 265 460 240 440 213 393 c 1
 213 142 l 1
 214 93 l 2
 214 63 226 48 251 46 c 2
 260 45 l 1
 260 0 l 1xd8
 15 0 l 1
184 626 m 1
 301 783 l 1
 448 783 l 1
 248 626 l 1
 184 626 l 1
EndSplineSet
EndChar
StartChar: Ncommaaccent
Encoding: 288 325 60
Width: 722
Flags: MW
HStem: -211 47<324 328.5 306.5 376> 0 20 703 20<21 209 209 209 457 685 685 685>
VStem: 99 72<142 528 142 582 142 582> 361 97<-143 -120.5> 535 72<186 582 -10 582>
LayerCount: 2
Fore
SplineSet
21 0 m 1
 21 45 l 1
 30 46 l 2
 92 50 96 53 97 93 c 2
 99 142 l 1
 99 582 l 1
 97 630 l 2
 95 671 94 672 30 678 c 1
 21 678 l 1
 21 723 l 1
 209 723 l 1
 535 186 l 1
 535 582 l 1
 533 630 l 2
 531 671 531 672 466 678 c 1
 457 678 l 1
 457 723 l 1
 685 723 l 1
 685 678 l 1
 676 678 l 1
 612 672 610 671 609 630 c 2
 607 582 l 1
 607 -10 l 1
 500 -10 l 1
 171 528 l 1
 171 142 l 1
 173 93 l 2
 175 52 177 50 240 46 c 2
 249 45 l 1
 249 0 l 1
 21 0 l 1
261 -202 m 1
 261 -158 l 1
 282 -162 300 -164 313 -164 c 0
 344 -164 361 -153 361 -133 c 0
 361 -108 338 -98 286 -97 c 1
 286 -53 l 1
 407 -55 458 -80 458 -136 c 0
 458 -185 416 -211 336 -211 c 0
 312 -211 289 -208 261 -202 c 1
EndSplineSet
EndChar
StartChar: ncommaaccent
Encoding: 323 326 123
Width: 556
Flags: W
HStem: -211 47<280 284.5 262.5 332> 0 20 460 88<282.5 408.5> 516 20<15 213 213 213>
VStem: 68 145<142 393 142 394 142 394> 114 97 355 145<142 363 363 379 142 401>
LayerCount: 2
Fore
SplineSet
15 0 m 1
 15 45 l 1
 24 46 l 2
 62 49 66 54 67 93 c 2
 68 142 l 1
 68 394 l 1
 67 443 l 2
 66 482 62 487 24 490 c 2
 15 491 l 1
 15 536 l 1
 213 536 l 1x5a
 213 447 l 1
 251 518 296 548 363 548 c 0
 454 548 500 491 500 379 c 2
 500 142 l 1
 501 93 l 2
 501 54 506 49 544 46 c 2
 553 45 l 1
 553 0 l 1
 308 0 l 1
 308 45 l 1
 317 46 l 2
 342 48 354 63 354 93 c 2
 355 142 l 1
 355 363 l 2
 355 439 343 460 300 460 c 0
 265 460 240 440 213 393 c 1
 213 142 l 1
 214 93 l 2
 214 63 226 48 251 46 c 2
 260 45 l 1
 260 0 l 1x6a
 15 0 l 1
218 -202 m 1
 218 -158 l 1
 239 -162 256 -164 269 -164 c 0
 300 -164 317 -153 317 -133 c 0
 317 -108 295 -98 242 -97 c 1
 242 -53 l 1
 363 -55 414 -80 414 -136 c 0
 414 -185 372 -211 292 -211 c 0x84
 268 -211 246 -208 218 -202 c 1
EndSplineSet
EndChar
StartChar: Ncaron
Encoding: 269 327 28
Width: 722
Flags: W
HStem: -10 20 0 20 703 20<21 209 209 209 457 685 685 685>
VStem: 99 72<142 528 142 582 142 582> 535 72<186 582 -10 582>
LayerCount: 2
Fore
SplineSet
21 0 m 1x58
 21 45 l 1
 30 46 l 2
 93 50 96 53 97 93 c 2
 99 142 l 1
 99 582 l 1
 97 630 l 2
 95 671 94 672 30 678 c 1
 21 678 l 1
 21 723 l 1
 209 723 l 1
 535 186 l 1
 535 582 l 1
 533 630 l 2
 531 671 531 672 466 678 c 1
 457 678 l 1
 457 723 l 1
 685 723 l 1
 685 678 l 1
 676 678 l 1
 612 672 610 671 609 630 c 2
 607 582 l 1
 607 -10 l 1
 500 -10 l 1xb8
 171 528 l 1
 171 142 l 1
 173 93 l 2
 175 52 177 51 240 46 c 2
 249 45 l 1
 249 0 l 1
 21 0 l 1x58
531 940 m 1
 413 783 l 1
 293 783 l 1
 175 940 l 1
 232 940 l 1
 353 845 l 1
 474 940 l 1
 531 940 l 1
EndSplineSet
EndChar
StartChar: Omacron
Encoding: 289 332 61
Width: 778
Flags: MW
HStem: -18 48<327 452 327 495> 693 48<327.5 451> 783 75<220 557 220 557>
VStem: 36 160<255 467 255 478> 582 160<252.5 467>
LayerCount: 2
Fore
SplineSet
389 741 m 0
 605 741 742 594 742 363 c 0
 742 127 606 -18 384 -18 c 0
 173 -18 36 132 36 362 c 0
 36 594 173 741 389 741 c 0
389 693 m 0
 266 693 196 573 196 361 c 0
 196 149 265 30 389 30 c 0
 515 30 582 144 582 361 c 0
 582 573 513 693 389 693 c 0
220 783 m 1
 220 858 l 1
 557 858 l 1
 557 783 l 1
 220 783 l 1
EndSplineSet
EndChar
StartChar: omacron
Encoding: 324 333 124
Width: 500
Flags: MW
HStem: -12 51<225 275 225 320> 497 51<225 274.5> 627 75<81 418 81 418>
VStem: 21 154<192.5 344.5 192.5 355.5> 325 154<196.5 347.5>
LayerCount: 2
Fore
SplineSet
250 548 m 0
 392 548 479 442 479 269 c 0
 479 92 393 -12 247 -12 c 0
 107 -12 21 95 21 268 c 0xd8
 21 443 107 548 250 548 c 0
250 497 m 0
 200 497 175 420 175 269 c 0
 175 116 200 39 250 39 c 0
 300 39 325 119 325 274 c 0
 325 421 299 497 250 497 c 0
81 627 m 1
 81 702 l 1
 418 702 l 1
 418 627 l 1x20
 81 627 l 1
EndSplineSet
EndChar
StartChar: OE
Encoding: 140 338 160
Width: 1000
Flags: W
HStem: -18 48<306.5 382.5> 0 126<899 971 899 971> 358 42<658 756 658 757 655 756> 594 129<878 950 878 878> 675 48<658 805 658 658> 693 48<307 383>
VStem: 36 160<252.5 469 252.5 476> 507 148<0 358 21 358 281 358 141 438 141 490>
LayerCount: 2
Fore
SplineSet
507 702 m 1x87
 507 723 l 1
 950 723 l 1x8b
 950 594 l 1
 878 594 l 1x13
 878 603 l 2
 877 607 877 611 876 616 c 2
 876 625 l 2
 876 627 876 629 875 629 c 1
 875 632 l 2
 876 633 876 633 876 634 c 0
 876 665 870 671 838 673 c 2
 805 675 l 1
 658 675 l 1
 658 400 l 1
 756 400 l 1
 804 401 l 2
 825 401 828 403 830 415 c 0
 831 420 831 421 831 427 c 2
 831 430 l 1
 832 449 l 1
 833 458 l 1
 899 458 l 1
 899 301 l 1
 833 301 l 1
 832 310 l 1
 831 328 l 1
 831 329 l 2
 831 347 823 355 802 356 c 2
 757 358 l 1
 655 358 l 1
 655 141 l 1
 657 99 l 2
 660 57 665 53 708 52 c 2
 743 51 l 1
 803 51 l 1
 859 53 l 2
 882 53 894 61 896 80 c 2
 899 117 l 1
 899 126 l 1
 971 126 l 1
 971 0 l 1
 507 0 l 1x6b
 507 21 l 1
 451 -7 408 -18 357 -18 c 0
 163 -18 36 132 36 361 c 0
 36 591 163 741 357 741 c 0
 409 741 451 730 507 702 c 1x87
507 281 m 2
 507 438 l 2
 507 542 497 605 476 636 c 0
 451 671 407 693 359 693 c 0x07
 255 693 196 574 196 364 c 0
 196 141 251 30 362 30 c 0
 416 30 466 61 486 105 c 0
 500 137 507 197 507 281 c 2
EndSplineSet
EndChar
StartChar: oe
Encoding: 156 339 193
Width: 722
Flags: W
HStem: -12 51<217.5 265.5 217.5 271> -12 73<535.5 569> 264 45<460 558 460 695 457 558> 497 51<216 264> 503 45<497.5 530>
VStem: 21 147<192.5 344.5 192.5 356>
LayerCount: 2
Fore
SplineSet
695 95 m 1x6c
 695 21 l 1
 641 -2 595 -12 543 -12 c 0x54
 477 -12 431 5 387 47 c 1
 345 5 301 -12 241 -12 c 0
 104 -12 21 94 21 269 c 0
 21 443 104 548 241 548 c 0x94
 302 548 346 531 387 490 c 1
 429 531 470 548 525 548 c 0
 645 548 695 467 695 275 c 2
 695 264 l 1
 457 264 l 1
 460 122 495 61 576 61 c 0
 613 61 649 71 695 95 c 1x6c
240 497 m 0
 192 497 168 420 168 269 c 0
 168 116 193 39 242 39 c 0xb4
 289 39 313 117 313 274 c 0
 313 421 288 497 240 497 c 0
460 309 m 1
 558 309 l 1
 558 338 l 2
 558 448 544 503 516 503 c 0x2c
 479 503 461 443 460 309 c 1
EndSplineSet
EndChar
StartChar: racute
Encoding: 308 341 101
Width: 444
Flags: W
HStem: 0 20 516 20<15 213 213 213> 528 20<349 390>
VStem: 68 145<126.5 142 126.5 142 142 383 435 443 443 443>
LayerCount: 2
Fore
SplineSet
15 0 m 1
 15 45 l 1
 24 46 l 2
 62 49 67 54 68 93 c 2
 68 142 l 1
 68 394 l 1
 68 443 l 2
 67 482 62 487 24 490 c 2
 15 491 l 1
 15 536 l 1
 213 536 l 1xd0
 213 435 l 1
 261 513 314 548 384 548 c 0
 396 548 404 547 418 544 c 1
 418 373 l 1
 352 373 l 1
 351 382 l 1
 349 405 l 2
 346 449 346 450 319 450 c 0
 274 450 241 430 213 383 c 1
 213 142 l 2
 213 111 217 75 222 66 c 0
 227 56 239 50 261 48 c 2
 294 46 l 1
 303 45 l 1
 303 0 l 1xb0
 15 0 l 1
123 626 m 1
 240 783 l 1
 387 783 l 1
 187 626 l 1
 123 626 l 1
EndSplineSet
EndChar
StartChar: Rcommaaccent
Encoding: 290 342 62
Width: 722
Flags: W
HStem: -211 47<348 352.5 330.5 400> 0 20 703 20<21 232 232 232>
VStem: 99 145<142 317 365 582 582 582> 385 97<-143 -120.5> 437 152<492.5 569.5 492.5 581>
LayerCount: 2
Fore
SplineSet
21 0 m 1xf4
 21 45 l 1
 30 46 l 2
 92 50 96 53 97 93 c 2
 99 142 l 1
 99 582 l 1
 97 630 l 2
 95 671 94 672 30 678 c 1
 21 678 l 1
 21 723 l 1
 232 723 l 1
 277 724 l 1
 321 725 l 1
 365 726 l 1
 373 727 l 2
 434 732 513 705 548 667 c 0
 576 636 589 596 589 543 c 0
 589 442 547 380 450 337 c 1
 591 140 l 1
 630 90 l 2
 651 62 669 49 689 47 c 2
 712 46 l 1
 722 45 l 1
 722 0 l 1
 506 0 l 1
 306 317 l 1
 244 317 l 1
 244 142 l 1
 246 93 l 2
 247 53 251 50 302 46 c 2
 310 45 l 1
 310 0 l 1
 21 0 l 1xf4
244 365 m 1
 271 365 l 2
 374 365 437 430 437 534 c 0
 437 628 391 675 299 675 c 2
 244 675 l 1
 244 365 l 1
286 -202 m 1xe8
 286 -158 l 1
 307 -162 324 -164 337 -164 c 0
 368 -164 385 -153 385 -133 c 0
 385 -108 363 -98 311 -97 c 1
 311 -53 l 1
 431 -55 482 -80 482 -136 c 0
 482 -185 440 -211 360 -211 c 0
 336 -211 314 -208 286 -202 c 1xe8
EndSplineSet
EndChar
StartChar: rcommaaccent
Encoding: 325 343 125
Width: 444
Flags: W
HStem: -211 47<142 146.5 124.5 194> 0 20 516 20<15 213 213 213> 528 20<349 390>
VStem: 68 145<126.5 142 126.5 142 142 383 435 443 443 443> 114 97
LayerCount: 2
Fore
SplineSet
15 0 m 1
 15 45 l 1
 24 46 l 2
 62 49 67 54 68 93 c 2
 68 142 l 1
 68 394 l 1
 68 443 l 2
 67 482 62 487 24 490 c 2
 15 491 l 1
 15 536 l 1
 213 536 l 1x68
 213 435 l 1
 261 513 314 548 384 548 c 0
 396 548 404 547 418 544 c 1
 418 373 l 1
 352 373 l 1
 351 382 l 1
 349 405 l 2
 346 449 346 450 319 450 c 0
 274 450 241 430 213 383 c 1
 213 142 l 2
 213 111 217 75 222 66 c 0
 227 56 239 50 261 48 c 2
 294 46 l 1
 303 45 l 1
 303 0 l 1x58
 15 0 l 1
80 -202 m 1
 80 -158 l 1
 101 -162 118 -164 131 -164 c 0
 162 -164 179 -153 179 -133 c 0
 179 -108 157 -98 104 -97 c 1
 104 -53 l 1
 225 -55 276 -80 276 -136 c 0
 276 -185 234 -211 154 -211 c 0x84
 130 -211 108 -208 80 -202 c 1
EndSplineSet
EndChar
StartChar: rcaron
Encoding: 328 345 128
Width: 444
Flags: W
HStem: 0 20 516 20<15 213 213 213> 528 20<349.5 391>
VStem: 68 145<126 142 126 142 142 383 435 443 443 443>
LayerCount: 2
Fore
SplineSet
15 0 m 1xb0
 15 45 l 1
 24 46 l 2
 62 49 67 54 68 93 c 2
 68 142 l 1
 68 394 l 1
 68 443 l 2
 67 482 62 487 24 490 c 2
 15 491 l 1
 15 536 l 1
 213 536 l 1xd0
 213 435 l 1
 261 513 314 548 385 548 c 0
 397 548 405 547 419 544 c 1
 419 373 l 1
 353 373 l 1
 352 382 l 1
 350 405 l 2
 346 449 346 450 319 450 c 0
 274 450 242 430 213 383 c 1
 213 142 l 2
 213 110 217 75 222 66 c 0
 227 56 240 50 261 48 c 2
 295 46 l 1
 304 45 l 1
 304 0 l 1
 15 0 l 1xb0
360 783 m 1
 243 626 l 1
 123 626 l 1
 5 783 l 1
 62 783 l 1
 183 688 l 1
 303 783 l 1
 360 783 l 1
EndSplineSet
EndChar
StartChar: Sacute
Encoding: 273 346 38
Width: 556
Flags: MW
HStem: -18 48<223.5 291 216.5 336.5> 693 48<271.5 318 218 336.5>
VStem: 50 139<552.5 601> 383 143<133 189.5>
LayerCount: 2
Fore
SplineSet
49 9 m 1
 49 160 l 1
 127 160 l 1
 128 148 l 1
 130 116 l 2
 132 65 181 30 252 30 c 0
 330 30 383 82 383 160 c 0
 383 219 358 250 280 293 c 2
 231 319 l 2
 110 385 50 458 50 541 c 0
 50 661 146 741 290 741 c 0
 346 741 405 731 484 709 c 1
 484 563 l 1
 405 563 l 1
 405 572 l 1
 403 605 l 2
 401 662 367 693 306 693 c 0
 237 693 189 645 189 577 c 0
 189 528 212 500 291 454 c 2
 340 426 l 2
 483 343 526 291 526 199 c 0
 526 67 420 -18 253 -18 c 0
 194 -18 132 -10 49 9 c 1
216 783 m 1
 334 940 l 1
 480 940 l 1
 281 783 l 1
 216 783 l 1
EndSplineSet
EndChar
StartChar: sacute
Encoding: 309 347 102
Width: 389
Flags: MW
HStem: -12 45<152 186.5 142 230> 503 45<193.5 216 142 225>
VStem: 21 137<410 440> 229 139<104 123.5>
LayerCount: 2
Fore
SplineSet
21 24 m 1
 21 150 l 1
 93 150 l 1
 94 141 l 2
 95 136 95 128 95 120 c 0
 95 61 118 33 166 33 c 0
 207 33 229 57 229 103 c 0
 229 144 209 178 168 204 c 2
 131 228 l 2
 45 284 21 320 21 391 c 0
 21 489 87 548 197 548 c 0
 235 548 275 542 328 527 c 1
 328 407 l 1
 256 407 l 1
 255 416 l 1
 254 439 l 2
 254 482 240 503 210 503 c 0
 177 503 158 477 158 430 c 0
 158 390 176 359 217 332 c 2
 244 313 l 2
 351 240 368 218 368 152 c 0
 368 56 287 -12 173 -12 c 0xf0
 131 -12 87 -2 21 24 c 1
136 626 m 1
 253 783 l 1
 400 783 l 1
 200 626 l 1
 136 626 l 1
EndSplineSet
EndChar
StartChar: scedilla
Encoding: 329 351 129
Width: 389
Flags: MW
HStem: -211 43<162 164 142.5 213> -12 45<152 186.5 142 230> 0 20 503 45<193.5 216 142 225>
VStem: 21 137<410 440> 122 97 229 139<104 123.5>
LayerCount: 2
Fore
SplineSet
21 24 m 1
 21 150 l 1
 93 150 l 1
 94 141 l 2
 95 136 95 128 95 120 c 0
 95 61 118 33 166 33 c 0
 207 33 229 57 229 103 c 0
 229 144 209 178 168 204 c 2
 131 228 l 2
 45 284 21 320 21 391 c 0
 21 489 87 548 197 548 c 0
 235 548 275 542 328 527 c 1
 328 407 l 1
 256 407 l 1
 255 416 l 1
 254 439 l 2
 254 482 240 503 210 503 c 0
 177 503 158 477 158 430 c 0
 158 390 176 359 217 332 c 2
 244 313 l 2
 351 240 368 218 368 152 c 0
 368 56 287 -12 173 -12 c 0x5a
 131 -12 87 -2 21 24 c 1
93 -199 m 1
 93 -157 l 1
 118 -165 135 -168 150 -168 c 0
 178 -168 194 -156 194 -134 c 0
 194 -105 167 -92 106 -91 c 1
 152 0 l 1
 205 0 l 1
 177 -56 l 1
 257 -61 291 -84 291 -135 c 0
 291 -185 251 -211 175 -211 c 0xa4
 149 -211 125 -207 93 -199 c 1
EndSplineSet
EndChar
StartChar: Tcommaaccent
Encoding: 282 354 53
Width: 667
Flags: W
HStem: -211 43<317 319 297.5 368.5> 0 20 573 150<19 97 19 647 568 568 568 647> 675 48<140 170 170 258 408 408 408 496>
VStem: 258 150<142 675 142 675> 349 97<-145 -119.5>
LayerCount: 2
Fore
SplineSet
168 0 m 1x58
 168 45 l 1
 176 46 l 1
 210 48 l 2
 235 50 248 57 251 71 c 0
 255 87 258 116 258 142 c 2
 258 675 l 1
 170 675 l 2xd8
 110 675 100 669 100 633 c 2
 100 626 l 2
 100 614 99 601 98 582 c 2
 97 573 l 1
 19 573 l 1x28
 19 723 l 1
 647 723 l 1x18
 647 573 l 1
 568 573 l 1x28
 568 588 l 1
 566 632 l 2
 564 670 557 675 496 675 c 2
 408 675 l 1
 408 142 l 1
 411 93 l 2
 414 56 419 52 456 48 c 2
 490 46 l 1
 498 45 l 1
 498 0 l 1
 168 0 l 1x58
248 -199 m 1
 248 -157 l 1
 273 -165 290 -168 305 -168 c 0
 333 -168 349 -156 349 -134 c 0
 349 -105 323 -92 262 -91 c 1
 307 0 l 1
 360 0 l 1
 333 -56 l 1
 412 -61 446 -85 446 -135 c 0xd4
 446 -185 407 -211 330 -211 c 0
 304 -211 281 -208 248 -199 c 1
EndSplineSet
EndChar
StartChar: tcommaaccent
Encoding: 317 355 117
Width: 333
Flags: W
HStem: -211 43<186 188 166.5 237.5> -12 58<174.5 274> 0 20 488 48<18 72 18 72 217 309>
VStem: 72 145<167 488 536 626 626 626> 218 97<-145 -119.5>
LayerCount: 2
Fore
SplineSet
18 488 m 1xdc
 18 536 l 1
 72 536 l 1
 72 626 l 1
 217 652 l 1
 217 536 l 1
 309 536 l 1
 309 488 l 1
 217 488 l 1
 217 163 l 1
 217 122 l 2
 217 71 234 46 267 46 c 0
 281 46 293 49 315 57 c 1
 315 4 l 1
 282 -7 257 -12 227 -12 c 0
 122 -12 72 45 72 167 c 2
 72 488 l 1
 18 488 l 1xdc
117 -199 m 1
 117 -157 l 1
 141 -165 159 -168 174 -168 c 0
 202 -168 218 -156 218 -134 c 0
 218 -105 191 -92 130 -91 c 1
 176 0 l 1
 229 0 l 1xac
 202 -56 l 1
 281 -61 315 -84 315 -135 c 0
 315 -185 276 -211 199 -211 c 0
 173 -211 149 -207 117 -199 c 1
EndSplineSet
EndChar
StartChar: Tcaron
Encoding: 275 356 41
Width: 667
Flags: W
HStem: 0 20 573 150<19 97 19 647 568 568 568 647> 675 48<140 170 170 258 408 408 408 496>
VStem: 258 150<142 675 142 675>
LayerCount: 2
Fore
SplineSet
168 0 m 1xb0
 168 45 l 1
 176 46 l 1
 210 48 l 2
 235 50 248 57 251 71 c 0
 255 87 258 116 258 142 c 2
 258 675 l 1
 170 675 l 2xb0
 110 675 100 669 100 633 c 2
 100 626 l 2
 100 614 99 601 98 582 c 2
 97 573 l 1
 19 573 l 1x50
 19 723 l 1
 647 723 l 1x30
 647 573 l 1
 568 573 l 1x50
 568 588 l 1
 566 632 l 2
 564 670 557 675 496 675 c 2
 408 675 l 1
 408 142 l 1
 411 93 l 2
 414 56 419 52 456 48 c 2
 490 46 l 1
 498 45 l 1
 498 0 l 1
 168 0 l 1xb0
511 940 m 1
 393 783 l 1
 273 783 l 1
 155 940 l 1
 212 940 l 1
 333 845 l 1
 454 940 l 1
 511 940 l 1
EndSplineSet
EndChar
StartChar: tcaron
Encoding: 311 357 105
Width: 521
Flags: MW
HStem: -12 58<174.5 274> 488 48<18 72 18 72 217 309>
VStem: 72 145<167 488 536 626 626 626> 362 126<554 734 599 734 701 734 734 843 701 843>
LayerCount: 2
Fore
SplineSet
18 488 m 1
 18 536 l 1
 72 536 l 1
 72 626 l 1
 217 652 l 1
 217 536 l 1
 309 536 l 1
 309 488 l 1
 217 488 l 1
 217 163 l 1
 217 122 l 2
 217 71 234 46 267 46 c 0
 281 46 293 49 315 57 c 1
 315 4 l 1
 282 -7 257 -12 227 -12 c 0
 122 -12 72 45 72 167 c 2
 72 488 l 1
 18 488 l 1
362 554 m 1
 362 599 l 1
 396 601 411 626 411 682 c 2
 411 699 l 1
 362 699 l 1
 362 843 l 1
 488 843 l 1
 488 734 l 2
 488 668 474 621 444 591 c 0
 423 569 403 560 362 554 c 1
EndSplineSet
EndChar
StartChar: uring
Encoding: 312 367 110
Width: 556
Flags: W
HStem: -12 88<147.5 273.5> 0 20 516 20<3 201 201 201 296 488 488 488> 626 45<241 279.5 241 292> 811 45<240.5 279.5>
VStem: 3 45 56 145<157 173 173 394 394 394> 187 45 343 145<0 536 89 536 143 394 394 394>
LayerCount: 2
Fore
SplineSet
3 491 m 1
 3 536 l 1
 201 536 l 1
 201 173 l 2
 201 97 213 76 256 76 c 0xa280
 291 76 316 96 343 143 c 1
 343 394 l 1
 342 443 l 2
 342 473 330 488 305 490 c 2
 296 491 l 1
 296 536 l 1
 488 536 l 1
 488 142 l 1
 489 93 l 2
 489 54 494 49 532 46 c 2
 541 45 l 1
 541 0 l 1
 343 0 l 1x6280
 343 89 l 1
 305 18 260 -12 193 -12 c 0
 102 -12 56 45 56 157 c 2
 56 394 l 1
 55 443 l 2
 54 482 50 487 12 490 c 2x8280
 3 491 l 1
260 856 m 0
 324 856 375 805 375 741 c 0
 375 676 325 626 259 626 c 0
 197 626 146 677 146 741 c 0x1d
 146 805 196 856 260 856 c 0
260 811 m 0
 221 811 191 780 191 741 c 0
 191 702 222 671 260 671 c 0
 299 671 330 702 330 741 c 0
 330 780 299 811 260 811 c 0
EndSplineSet
EndChar
StartChar: uhungarumlaut
Encoding: 313 369 111
Width: 556
Flags: W
HStem: -12 88<147.5 273.5> 0 20 516 20<3 201 201 201 296 488 488 488>
VStem: 56 145<157 173 173 394 394 394> 343 145<0 536 89 536 143 394 394 394>
LayerCount: 2
Fore
SplineSet
3 491 m 1
 3 536 l 1
 201 536 l 1
 201 173 l 2
 201 97 213 76 256 76 c 0xb8
 291 76 316 96 343 143 c 1
 343 394 l 1
 342 443 l 2
 342 473 330 488 305 490 c 2
 296 491 l 1
 296 536 l 1
 488 536 l 1
 488 142 l 1
 489 93 l 2
 489 54 494 49 532 46 c 2
 541 45 l 1
 541 0 l 1
 343 0 l 1x78
 343 89 l 1
 305 18 260 -12 193 -12 c 0
 102 -12 56 45 56 157 c 2
 56 394 l 1
 55 443 l 2
 54 482 50 487 12 490 c 2x98
 3 491 l 1
118 626 m 1
 222 783 l 1
 322 783 l 1
 165 626 l 1
 118 626 l 1
299 626 m 1
 403 783 l 1
 502 783 l 1
 346 626 l 1
 299 626 l 1
EndSplineSet
EndChar
StartChar: Uogonek
Encoding: 293 370 65
Width: 722
Flags: W
HStem: -181 48<439 442.5> -18 47<335 450.5 335 461.5> 0 20 703 20<9 316 316 316 485 712 712 712>
VStem: 87 151<275 578 578 578> 307 94<-99 -87> 563 72<273 285 285 582>
LayerCount: 2
Fore
SplineSet
9 675 m 1xde
 9 723 l 1
 316 723 l 1
 316 678 l 1
 307 678 l 1
 243 672 241 671 240 630 c 2
 238 582 l 1
 238 269 l 2
 238 93 279 29 391 29 c 0
 510 29 563 104 563 273 c 2
 563 582 l 1
 561 630 l 2
 559 671 559 672 494 678 c 1
 485 678 l 1
 485 723 l 1
 712 723 l 1
 712 678 l 1
 703 678 l 1
 641 672 639 671 638 630 c 2
 635 582 l 1
 635 285 l 2
 635 78 552 -18 371 -18 c 0
 182 -18 87 80 87 275 c 2
 87 578 l 1
 85 627 l 2
 83 667 79 670 18 675 c 1
 9 675 l 1xde
515 -122 m 1
 515 -165 l 1
 487 -176 458 -181 427 -181 c 0
 355 -181 307 -151 307 -106 c 0
 307 -68 334 -36 395 0 c 1
 445 0 l 1xae
 414 -28 401 -52 401 -82 c 0
 401 -116 420 -133 458 -133 c 0
 475 -133 493 -130 515 -122 c 1
EndSplineSet
EndChar
StartChar: uogonek
Encoding: 327 371 127
Width: 556
Flags: W
HStem: -181 48<412 415.5> -12 88<147.5 273.5> 0 20 516 20<3 201 201 201 296 488 488 488>
VStem: 3 94 56 145<157 173 173 394 394 394> 343 145<-165 89 143 394 394 394>
LayerCount: 2
Fore
SplineSet
3 491 m 1
 3 536 l 1
 201 536 l 1
 201 173 l 2
 201 97 213 76 256 76 c 0x56
 291 76 316 96 343 143 c 1
 343 394 l 1
 342 443 l 2
 342 473 330 488 305 490 c 2
 296 491 l 1
 296 536 l 1
 488 536 l 1
 488 142 l 1
 489 93 l 2
 489 54 494 49 532 46 c 2
 541 45 l 1
 541 0 l 1
 343 0 l 1x36
 343 89 l 1
 305 18 260 -12 193 -12 c 0
 102 -12 56 45 56 157 c 2
 56 394 l 1
 55 443 l 2
 54 482 50 487 12 490 c 2x46
 3 491 l 1
488 -122 m 1
 488 -165 l 1
 460 -176 431 -181 400 -181 c 0
 328 -181 280 -151 280 -106 c 0
 280 -68 307 -36 368 0 c 1
 418 0 l 1
 387 -27 374 -52 374 -82 c 0
 374 -116 393 -133 431 -133 c 0xa8
 448 -133 466 -130 488 -122 c 1
EndSplineSet
EndChar
StartChar: Ydieresis
Encoding: 159 376 54
Width: 722
Flags: W
HStem: 0 20 703 20<1 315 315 315 522 721 721 721> 783 103<263 366 263 366 461 564 263 461>
VStem: 263 103<783 886 783 886> 284 150<142 313 313 313> 461 103<783 886 783 886>
LayerCount: 2
Fore
SplineSet
205 0 m 1xe8
 205 45 l 1
 215 46 l 2
 278 50 281 53 282 93 c 2
 284 142 l 1
 284 313 l 1
 120 577 l 2
 98 612 87 631 85 634 c 0
 71 661 55 675 37 676 c 2
 11 678 l 1
 1 678 l 1
 1 723 l 1
 315 723 l 1
 315 678 l 1
 307 678 l 1
 283 678 l 2
 260 677 249 672 249 661 c 0
 249 650 261 626 291 577 c 2
 413 376 l 1
 538 577 l 2
 565 620 580 649 580 660 c 0
 580 672 564 678 533 678 c 2
 522 678 l 1
 522 723 l 1
 721 723 l 1
 721 678 l 1
 712 678 l 1
 691 676 l 2
 670 674 658 665 644 643 c 2
 602 577 l 1
 434 314 l 1
 434 142 l 1
 436 93 l 2
 438 52 440 51 503 46 c 2
 512 45 l 1
 512 0 l 1
 205 0 l 1xe8
263 783 m 1xf4
 263 886 l 1
 366 886 l 1
 366 783 l 1
 263 783 l 1xf4
461 783 m 1
 461 886 l 1
 564 886 l 1
 564 783 l 1
 461 783 l 1
EndSplineSet
EndChar
StartChar: Zacute
Encoding: 278 377 49
Width: 667
Flags: W
HStem: 0 54<44 44 212 423 423 467> 0 160<518 608 518 608> 560 163<71 161 71 607> 669 54<201 230 230 442 71 607>
LayerCount: 2
Fore
SplineSet
44 0 m 1x80
 44 54 l 1
 442 669 l 1
 230 669 l 2x90
 172 669 163 663 162 628 c 2
 162 580 l 1
 161 560 l 1
 71 560 l 1x20
 71 723 l 1
 607 723 l 1
 607 669 l 1
 212 54 l 1
 423 54 l 2x90
 511 54 513 55 515 97 c 2
 517 137 l 1
 518 160 l 1
 608 160 l 1x40
 608 0 l 1
 44 0 l 1x80
262 783 m 1
 379 940 l 1
 525 940 l 1
 326 783 l 1
 262 783 l 1
EndSplineSet
EndChar
StartChar: zacute
Encoding: 314 378 113
Width: 444
Flags: MW
HStem: 0 51<174 267 267 303 25 25> 491 45<157 188 188 258 43 406>
LayerCount: 2
Fore
SplineSet
43 407 m 1
 43 536 l 1
 406 536 l 1
 406 491 l 1
 174 51 l 1
 267 51 l 2
 339 51 345 54 347 99 c 2
 347 105 l 2
 347 108 347 111 348 113 c 2
 348 120 l 1
 349 129 l 1
 415 129 l 1
 415 0 l 1
 25 0 l 1
 25 51 l 1
 258 491 l 1
 188 491 l 2
 126 491 113 485 112 456 c 2
 110 416 l 1
 109 407 l 1xc0
 43 407 l 1
151 626 m 1
 268 783 l 1
 415 783 l 1
 215 626 l 1
 151 626 l 1
EndSplineSet
EndChar
StartChar: Zdotaccent
Encoding: 280 379 51
Width: 667
Flags: W
HStem: 0 54<44 44 212 423 423 467> 0 160<518 608 518 608> 560 163<71 161 71 607> 669 54<201 230 230 442 71 607> 783 145<261 406 261 406>
VStem: 261 145<783 928 783 928>
LayerCount: 2
Fore
SplineSet
44 0 m 1x84
 44 54 l 1
 442 669 l 1
 230 669 l 2x9c
 172 669 163 663 162 628 c 2
 162 580 l 1
 161 560 l 1
 71 560 l 1x24
 71 723 l 1
 607 723 l 1
 607 669 l 1
 212 54 l 1
 423 54 l 2x94
 511 54 513 55 515 97 c 2
 517 137 l 1
 518 160 l 1
 608 160 l 1x44
 608 0 l 1
 44 0 l 1x84
261 783 m 1
 261 928 l 1
 406 928 l 1
 406 783 l 1
 261 783 l 1
EndSplineSet
EndChar
StartChar: zdotaccent
Encoding: 316 380 115
Width: 444
Flags: MW
HStem: 0 51<174 267 267 303 25 25> 491 45<157 188 188 258 43 406> 626 145<159 304 159 304>
VStem: 25 145
LayerCount: 2
Fore
SplineSet
43 407 m 1
 43 536 l 1
 406 536 l 1
 406 491 l 1
 174 51 l 1
 267 51 l 2
 339 51 345 54 347 99 c 2
 347 105 l 2
 347 108 347 111 348 113 c 2
 348 120 l 1
 349 129 l 1
 415 129 l 1
 415 0 l 1
 25 0 l 1
 25 51 l 1
 258 491 l 1
 188 491 l 2
 126 491 113 485 112 456 c 2
 110 416 l 1
 109 407 l 1xc0
 43 407 l 1
159 626 m 1
 159 771 l 1
 304 771 l 1
 304 626 l 1x30
 159 626 l 1
EndSplineSet
EndChar
StartChar: florin
Encoding: 131 402 216
Width: 500
Flags: MW
HStem: 359 45<24 101 24 110 254 363> 692 49<347.5 377.5>
LayerCount: 2
Fore
SplineSet
0 -145 m 1
 101 359 l 1
 24 359 l 1
 24 404 l 1
 110 404 l 1
 121 460 l 2
 153 631 257 741 386 741 c 0
 415 741 447 735 482 723 c 1
 482 590 l 1
 404 590 l 1
 403 662 391 692 364 692 c 0
 331 692 303 649 288 574 c 2
 274 503 l 1
 254 404 l 1
 363 404 l 1
 363 359 l 1
 245 359 l 1
 145 -145 l 1
 0 -145 l 1
EndSplineSet
EndChar
StartChar: Scommaaccent
Encoding: 332 536 132
Width: 556
Flags: W
HStem: -211 47<256 260.5 238.5 308> -18 48<223.5 291 216.5 336.5> 693 48<271.5 318 218 336.5>
VStem: 50 139<552.5 601> 293 97<-143 -120.5> 383 143<133 189.5>
LayerCount: 2
Fore
SplineSet
49 9 m 1xf4
 49 160 l 1
 127 160 l 1
 128 148 l 1
 130 116 l 2
 132 65 181 30 252 30 c 0
 330 30 383 82 383 160 c 0
 383 219 358 250 280 293 c 2
 231 319 l 2
 110 385 50 458 50 541 c 0
 50 661 146 741 290 741 c 0
 346 741 405 731 484 709 c 1
 484 563 l 1
 405 563 l 1
 405 572 l 1
 403 605 l 2
 401 662 367 693 306 693 c 0
 237 693 189 645 189 577 c 0
 189 528 212 500 291 454 c 2
 340 426 l 2
 483 343 526 291 526 199 c 0
 526 67 420 -18 253 -18 c 0
 194 -18 132 -10 49 9 c 1xf4
194 -202 m 1xe8
 194 -158 l 1
 215 -162 232 -164 245 -164 c 0
 276 -164 293 -153 293 -133 c 0
 293 -108 271 -98 218 -97 c 1
 218 -53 l 1
 339 -55 390 -80 390 -136 c 0
 390 -185 348 -211 268 -211 c 0
 244 -211 221 -208 194 -202 c 1xe8
EndSplineSet
EndChar
StartChar: scommaaccent
Encoding: 310 537 104
Width: 389
Flags: MW
HStem: -211 47<163 167.5 145.5 215> -12 45<152 186.5 142 230> 503 45<193.5 216 142 225>
VStem: 21 137<410 440> 120 97 229 139<104 123.5>
LayerCount: 2
Fore
SplineSet
21 24 m 1
 21 150 l 1
 93 150 l 1
 94 141 l 2
 95 136 95 128 95 120 c 0
 95 61 118 33 166 33 c 0
 207 33 229 57 229 103 c 0
 229 144 209 178 168 204 c 2
 131 228 l 2
 45 284 21 320 21 391 c 0
 21 489 87 548 197 548 c 0
 235 548 275 542 328 527 c 1
 328 407 l 1
 256 407 l 1
 255 416 l 1
 254 439 l 2
 254 482 240 503 210 503 c 0
 177 503 158 477 158 430 c 0
 158 390 176 359 217 332 c 2
 244 313 l 2
 351 240 368 218 368 152 c 0
 368 56 287 -12 173 -12 c 0x74
 131 -12 87 -2 21 24 c 1
101 -202 m 1
 101 -158 l 1
 122 -162 139 -164 152 -164 c 0
 183 -164 200 -153 200 -133 c 0
 200 -108 178 -98 125 -97 c 1
 125 -53 l 1
 246 -55 297 -80 297 -136 c 0
 297 -185 255 -211 175 -211 c 0x88
 151 -211 129 -208 101 -202 c 1
EndSplineSet
EndChar
StartChar: circumflex
Encoding: 136 710 286
Width: 333
Flags: W
LayerCount: 2
Fore
SplineSet
-11 626 m 1
 107 783 l 1
 227 783 l 1
 344 626 l 1
 287 626 l 1
 167 721 l 1
 46 626 l 1
 -11 626 l 1
EndSplineSet
EndChar
StartChar: caron
Encoding: 345 711 287
Width: 333
Flags: W
LayerCount: 2
Fore
SplineSet
344 783 m 1
 227 626 l 1
 107 626 l 1
 -11 783 l 1
 46 783 l 1
 167 688 l 1
 287 783 l 1
 344 783 l 1
EndSplineSet
EndChar
StartChar: breve
Encoding: 346 728 288
Width: 333
Flags: MW
HStem: 627 84<135.5 198 135.5 212.5>
LayerCount: 2
Fore
SplineSet
-5 784 m 1
 40 784 l 1
 65 733 104 711 167 711 c 0
 229 711 267 733 293 784 c 1
 338 784 l 1
 322 685 258 627 167 627 c 0x80
 75 627 11 685 -5 784 c 1
EndSplineSet
EndChar
StartChar: ring
Encoding: 344 730 283
Width: 333
Flags: MW
HStem: 626 45<147 185.5 147 198> 811 45<146.5 185.5>
VStem: 52 45<721.5 760.5 721.5 773> 236 45<721.5 760.5>
LayerCount: 2
Fore
SplineSet
166 856 m 0
 230 856 281 805 281 741 c 0
 281 676 231 626 165 626 c 0
 103 626 52 677 52 741 c 0xf0
 52 805 102 856 166 856 c 0
166 811 m 0
 127 811 97 780 97 741 c 0
 97 702 128 671 166 671 c 0
 205 671 236 702 236 741 c 0
 236 780 205 811 166 811 c 0
EndSplineSet
EndChar
StartChar: ogonek
Encoding: 348 731 292
Width: 333
Flags: MW
HStem: -181 48<194 197.5> 0 20
VStem: 62 94<-99 -87>
LayerCount: 2
Fore
SplineSet
270 -122 m 1
 270 -165 l 1
 242 -176 213 -181 182 -181 c 0
 110 -181 62 -151 62 -106 c 0
 62 -68 89 -36 150 0 c 1
 200 0 l 1
 169 -27 156 -52 156 -82 c 0
 156 -116 175 -133 213 -133 c 0xe0
 230 -133 248 -130 270 -122 c 1
EndSplineSet
EndChar
StartChar: tilde
Encoding: 152 732 289
Width: 333
Flags: W
HStem: 627 79<243 263 243 269.5> 678 79<69.5 89.5>
LayerCount: 2
Fore
SplineSet
41 627 m 1
 -4 627 l 1
 -3 708 34 757 93 757 c 0x40
 113 757 135 751 159 740 c 2
 195 723 l 2
 216 712 237 706 249 706 c 0
 277 706 290 722 291 757 c 1
 336 757 l 1
 335 675 299 627 240 627 c 0x80
 219 627 197 633 174 643 c 2
 138 660 l 2
 110 674 96 678 83 678 c 0x40
 56 678 42 662 41 627 c 1
EndSplineSet
EndChar
StartChar: hungarumlaut
Encoding: 347 733 290
Width: 333
Flags: W
LayerCount: 2
Fore
SplineSet
-25 626 m 1
 79 783 l 1
 179 783 l 1
 22 626 l 1
 -25 626 l 1
156 626 m 1
 260 783 l 1
 359 783 l 1
 203 626 l 1
 156 626 l 1
EndSplineSet
EndChar
StartChar: endash
Encoding: 150 8211 243
Width: 500
Flags: MW
HStem: 262 78<36 464 36 464>
LayerCount: 2
Fore
SplineSet
36 262 m 1
 36 340 l 1
 464 340 l 1
 464 262 l 1
 36 262 l 1
EndSplineSet
EndChar
StartChar: emdash
Encoding: 151 8212 244
Width: 1000
Flags: MW
HStem: 262 60<48 952 48 952>
LayerCount: 2
Fore
SplineSet
48 262 m 1
 48 322 l 1
 952 322 l 1
 952 262 l 1
 48 262 l 1
EndSplineSet
EndChar
StartChar: quoteleft
Encoding: 145 8216 228
Width: 333
Flags: MW
VStem: 82 157<470 591 591 621>
LayerCount: 2
Fore
SplineSet
239 771 m 1
 239 726 l 1
 197 720 178 694 178 642 c 2
 178 627 l 1
 239 627 l 1
 239 470 l 1
 82 470 l 1
 82 591 l 2
 82 651 97 695 128 726 c 0
 155 753 182 764 239 771 c 1
EndSplineSet
EndChar
StartChar: quoteright
Encoding: 146 8217 268
Width: 333
Flags: MW
VStem: 94 157<470 650 515 650 620 650 650 771 620 771>
LayerCount: 2
Fore
SplineSet
94 470 m 1
 94 515 l 1
 133 519 155 547 155 594 c 2
 155 598 l 1
 154 614 l 1
 94 614 l 1
 94 771 l 1
 251 771 l 1
 251 650 l 2
 251 590 236 546 205 515 c 0
 178 488 151 477 94 470 c 1
EndSplineSet
EndChar
StartChar: quotesinglbase
Encoding: 130 8218 267
Width: 333
Flags: MW
HStem: 0 20
VStem: 94 157<-144 36 -99 36 6 36 36 157 6 157>
LayerCount: 2
Fore
SplineSet
94 -144 m 1
 94 -99 l 1
 133 -95 155 -67 155 -20 c 2
 155 -16 l 1
 154 0 l 1
 94 0 l 1
 94 157 l 1
 251 157 l 1
 251 36 l 2
 251 -24 236 -69 205 -100 c 0
 178 -127 151 -137 94 -144 c 1
EndSplineSet
EndChar
StartChar: quotedblleft
Encoding: 147 8220 230
Width: 500
Flags: MW
VStem: 57 145<482 588 588 618.5> 286 145<482 588 588 618.5>
LayerCount: 2
Fore
SplineSet
431 771 m 1
 431 726 l 1
 393 719 375 694 375 647 c 0
 375 642 375 638 377 627 c 1
 431 627 l 1
 431 482 l 1
 286 482 l 1
 286 588 l 2
 286 649 300 693 330 725 c 0
 355 751 380 762 431 771 c 1
202 771 m 1
 202 726 l 1
 164 719 146 694 146 647 c 0
 146 642 146 637 148 627 c 1
 202 627 l 1
 202 482 l 1
 57 482 l 1
 57 588 l 2
 57 649 71 693 101 725 c 0
 126 751 151 762 202 771 c 1
EndSplineSet
EndChar
StartChar: quotedblright
Encoding: 148 8221 229
Width: 500
Flags: MW
VStem: 69 145<482 665 527 665 634.5 665 665 771 634.5 771> 298 145<482 665 527 665 634.5 665 665 771 634.5 771>
LayerCount: 2
Fore
SplineSet
69 482 m 1
 69 527 l 1
 107 534 125 559 125 606 c 0
 125 611 125 616 123 626 c 1
 69 626 l 1
 69 771 l 1
 214 771 l 1
 214 665 l 2
 214 604 200 560 170 528 c 0
 145 502 120 491 69 482 c 1
298 482 m 1
 298 527 l 1
 336 534 354 559 354 606 c 0
 354 611 354 616 352 626 c 1
 298 626 l 1
 298 771 l 1
 443 771 l 1
 443 665 l 2
 443 604 429 560 399 528 c 0
 374 502 349 491 298 482 c 1
EndSplineSet
EndChar
StartChar: quotedblbase
Encoding: 132 8222 231
Width: 500
Flags: MW
HStem: 0 20
VStem: 69 145<-144 39 -99 39 8.5 39 39 145 8.5 145> 298 145<-144 39 -99 39 8.5 39 39 145 8.5 145>
LayerCount: 2
Fore
SplineSet
69 -144 m 1
 69 -99 l 1
 107 -92 125 -67 125 -20 c 0
 125 -15 125 -10 123 0 c 1
 69 0 l 1
 69 145 l 1
 214 145 l 1
 214 39 l 2
 214 -22 200 -66 170 -98 c 0
 145 -124 120 -135 69 -144 c 1
298 -144 m 1
 298 -99 l 1
 336 -92 354 -67 354 -20 c 0
 354 -15 354 -10 352 0 c 1
 298 0 l 1
 298 145 l 1
 443 145 l 1
 443 39 l 2
 443 -22 429 -66 399 -98 c 0
 374 -124 349 -135 298 -144 c 1
EndSplineSet
EndChar
StartChar: dagger
Encoding: 134 8224 251
Width: 500
Flags: MW
HStem: 703 20<187 313 313 313>
LayerCount: 2
Fore
SplineSet
187 -145 m 1
 199 407 l 1
 24 379 l 1
 24 488 l 1
 199 452 l 1
 187 723 l 1
 313 723 l 1
 302 452 l 1
 476 488 l 1
 476 379 l 1
 302 407 l 1
 313 -145 l 1
 187 -145 l 1
EndSplineSet
EndChar
StartChar: daggerdbl
Encoding: 135 8225 252
Width: 500
Flags: MW
HStem: 703 20<187 314 314 314>
VStem: 199 103<120 120 165 407>
LayerCount: 2
Fore
SplineSet
187 -145 m 1
 199 120 l 1
 24 90 l 1
 24 199 l 1
 199 165 l 1
 199 407 l 1
 24 379 l 1
 24 488 l 1
 199 452 l 1
 187 723 l 1
 314 723 l 1
 302 452 l 1
 476 488 l 1
 476 379 l 1
 302 407 l 1
 302 165 l 1
 476 199 l 1
 476 90 l 1
 302 120 l 1
 314 -145 l 1
 187 -145 l 1
EndSplineSet
EndChar
StartChar: ellipsis
Encoding: 133 8230 225
Width: 1000
Flags: MW
HStem: 0 108<112 220 112 220 445 553 779 887>
VStem: 112 108<0 108 0 108> 445 108<0 108 0 108> 779 108<0 108 0 108>
LayerCount: 2
Fore
SplineSet
112 0 m 1
 112 108 l 1
 220 108 l 1
 220 0 l 1
 112 0 l 1
445 0 m 1
 445 108 l 1
 553 108 l 1
 553 0 l 1
 445 0 l 1
779 0 m 1
 779 108 l 1
 887 108 l 1
 887 0 l 1
 779 0 l 1
EndSplineSet
EndChar
StartChar: perthousand
Encoding: 137 8240 279
Width: 1000
Flags: W
HStem: -18 20 0 46<474 511.5 474 542 815.5 853> 316 46<474.5 511.5 816 853.5> 360 46<145.5 183 145.5 214> 677 46<146 184> 721 20<570 630 630 630>
VStem: 12 96<496.5 586.5 496.5 601.5> 222 96<498.5 588> 340 97<136 225.5 136 241> 549 97<138 227> 682 96<136.5 226.5 136.5 241> 891 97<138 227>
LayerCount: 2
Fore
SplineSet
165 723 m 0x1bf0
 267 723 318 662 318 542 c 0
 318 421 266 360 162 360 c 0
 63 360 12 421 12 541 c 0
 12 662 63 723 165 723 c 0x1bf0
165 677 m 0
 127 677 108 631 108 542 c 0
 108 451 127 406 164 406 c 0
 202 406 222 453 222 544 c 0
 222 632 203 677 165 677 c 0
493 362 m 0x63f0
 595 362 646 302 646 182 c 0
 646 61 594 0 490 0 c 0
 391 0 340 61 340 181 c 0
 340 301 391 362 493 362 c 0x63f0
493 316 m 0
 456 316 437 270 437 181 c 0
 437 91 455 46 493 46 c 0
 530 46 549 93 549 183 c 0
 549 271 530 316 493 316 c 0
835 362 m 0
 937 362 988 302 988 182 c 0
 988 61 936 0 832 0 c 0
 733 0 682 61 682 181 c 0
 682 301 733 362 835 362 c 0
835 316 m 0
 797 316 778 271 778 182 c 0
 778 91 797 46 834 46 c 0
 872 46 891 93 891 183 c 0
 891 271 872 316 835 316 c 0
29 -18 m 1x87f0
 570 741 l 1
 630 741 l 1
 89 -18 l 1
 29 -18 l 1x87f0
EndSplineSet
EndChar
StartChar: guilsinglleft
Encoding: 139 8249 239
Width: 333
Flags: W
LayerCount: 2
Fore
SplineSet
287 452 m 1
 180 268 l 1
 287 84 l 1
 250 54 l 1
 33 268 l 1
 250 482 l 1
 287 452 l 1
EndSplineSet
EndChar
StartChar: guilsinglright
Encoding: 155 8250 238
Width: 333
Flags: W
LayerCount: 2
Fore
SplineSet
45 84 m 1
 153 268 l 1
 45 452 l 1
 83 482 l 1
 299 268 l 1
 82 54 l 1
 45 84 l 1
EndSplineSet
EndChar
StartChar: fraction
Encoding: 342 8260 277
Width: 167
Flags: MW
HStem: -18 20 721 20<324 384 384 384>
LayerCount: 2
Fore
SplineSet
-217 -18 m 1
 324 741 l 1
 384 741 l 1
 -157 -18 l 1
 -217 -18 l 1
EndSplineSet
EndChar
StartChar: Euro
Encoding: 128 8364 217
Width: 500
Flags: MW
HStem: -18 61<322 352.5> 271 48<0 46 10 46 10 51 191 191 191 342> 410 48<10 47 0 52 191 388> 694 47<282.5 335 271.5 349.5>
LayerCount: 2
Fore
SplineSet
0 271 m 1
 10 319 l 1
 46 319 l 1
 45 332 44 352 44 363 c 0
 44 377 45 388 47 410 c 1
 0 410 l 1
 10 458 l 1
 52 458 l 1
 69 542 84 584 113 630 c 0
 159 703 228 741 315 741 c 0
 355 741 400 732 476 709 c 1
 476 572 l 1
 404 572 l 1
 404 581 l 2
 404 657 377 694 322 694 c 0
 243 694 203 621 191 458 c 1
 404 458 l 1
 388 410 l 1
 190 410 l 1
 189 390 l 1
 189 362 l 1
 189 331 l 1
 189 319 l 1
 358 319 l 1
 342 271 l 1
 191 271 l 1
 197 197 206 160 225 122 c 0
 252 69 294 43 350 43 c 0
 387 43 423 55 469 81 c 1
 469 17 l 1
 417 -8 376 -18 329 -18 c 0
 177 -18 83 80 51 271 c 1
 0 271 l 1
EndSplineSet
EndChar
StartChar: trademark
Encoding: 153 8482 264
Width: 1000
Flags: MW
HStem: 675 48<69 168 69 69 277 277 277 377 476 530 931 931 931 988>
VStem: 168 109<403 675 403 675> 530 78<403 576 355 675> 820 111<403 594 594 594>
LayerCount: 2
Fore
SplineSet
111 355 m 1
 111 403 l 1
 168 403 l 1
 168 675 l 1
 69 675 l 1
 69 608 l 1
 18 608 l 1
 18 723 l 1
 428 723 l 1
 428 608 l 1
 377 608 l 1
 377 675 l 1
 277 675 l 1
 277 403 l 1
 334 403 l 1
 334 355 l 1
 111 355 l 1
476 355 m 1
 476 403 l 1
 530 403 l 1
 530 675 l 1
 476 675 l 1
 476 723 l 1
 657 723 l 1
 737 522 l 1
 814 723 l 1
 988 723 l 1
 988 675 l 1
 931 675 l 1
 931 403 l 1
 988 403 l 1
 988 355 l 1
 820 355 l 1
 820 594 l 1
 733 385 l 1
 688 385 l 1
 608 576 l 1
 608 355 l 1
 476 355 l 1
EndSplineSet
EndChar
StartChar: minus
Encoding: 341 8722 260
Width: 795
Flags: MW
HStem: 253 72<108 686 108 686>
LayerCount: 2
Fore
SplineSet
108 253 m 1
 108 325 l 1
 686 325 l 1
 686 253 l 1
 108 253 l 1
EndSplineSet
EndChar
StartChar: fi
Encoding: 336 64257 197
Width: 556
Flags: MW
HStem: 0 20 488 48<22 75 22 75 220 346> 736 48<257.5 284 201 288.5>
VStem: 75 145<142 488 142 488 536 562 562 626 142 635.5> 346 145<142 488 488 488>
LayerCount: 2
Fore
SplineSet
22 0 m 1
 22 45 l 1
 31 46 l 2
 69 49 74 54 74 93 c 2
 75 142 l 1
 75 488 l 1
 22 488 l 1
 22 536 l 1
 75 536 l 1
 75 562 l 2
 75 709 138 784 264 784 c 0
 304 784 337 777 374 761 c 1
 374 639 l 1
 314 639 l 1
 313 648 l 1
 312 684 l 2
 310 722 301 736 276 736 c 0
 239 736 220 698 220 626 c 2
 220 536 l 1
 491 536 l 1
 491 142 l 1
 492 93 l 2
 493 54 497 49 535 46 c 2
 544 45 l 1
 544 0 l 1
 298 0 l 1
 298 45 l 1
 335 46 345 55 345 93 c 2
 346 142 l 1
 346 488 l 1
 220 488 l 1
 220 142 l 1
 221 93 l 2
 222 55 231 46 268 45 c 1
 268 0 l 1
 22 0 l 1
EndSplineSet
EndChar
StartChar: fl
Encoding: 337 64258 198
Width: 556
Flags: MW
HStem: 0 20 735 48<261.5 280.5 201.5 293.5>
VStem: 75 145<93 488 142 488 142 488 536 562 562 562> 346 145<142 700 700 700>
LayerCount: 2
Fore
SplineSet
22 0 m 1
 22 45 l 1
 31 46 l 2
 69 49 74 54 75 93 c 2
 75 142 l 1
 75 488 l 1
 22 488 l 1
 22 536 l 1
 75 536 l 1
 75 562 l 2
 78 713 138 783 265 783 c 0
 296 783 321 779 347 771 c 1
 491 771 l 1
 491 142 l 1
 492 93 l 2
 493 54 497 49 535 46 c 2
 544 45 l 1
 544 0 l 1
 298 0 l 1
 298 45 l 1
 335 46 345 55 345 93 c 2
 346 142 l 1
 346 700 l 1
 324 724 305 735 282 735 c 0
 241 735 220 698 220 626 c 2
 220 536 l 1
 273 536 l 1
 273 488 l 1
 220 488 l 1
 220 142 l 1
 221 93 l 2
 221 55 231 46 268 45 c 1
 268 0 l 1
 22 0 l 1
EndSplineSet
EndChar
StartChar: commaaccent
Encoding: 350 -1 294
Width: 333
Flags: MW
HStem: -211 47<131 135.5 113.5 183>
VStem: 168 97<-143 -120.5>
LayerCount: 2
Fore
SplineSet
69 -202 m 1
 69 -158 l 1
 90 -162 107 -164 120 -164 c 0
 151 -164 168 -153 168 -133 c 0
 168 -108 146 -98 93 -97 c 1
 93 -53 l 1
 214 -55 265 -80 265 -136 c 0
 265 -185 223 -211 143 -211 c 0xc0
 119 -211 97 -208 69 -202 c 1
EndSplineSet
EndChar
